<svg xmlns="http://www.w3.org/2000/svg" viewBox="0 0 134.16 52.02"><title>Anton-Regular</title><path d="M0,51.54,5,0H22.44l4.92,51.54H17.58l-.72-8.34H10.62L10,51.54ZM11.4,35h4.68L13.8,8.76h-.48Z"/><path d="M30.3,7.62H40.8V13.2a9.36,9.36,0,0,1,2.28-4.38A5.72,5.72,0,0,1,47.4,7.14q4.44,0,6.57,2.73t2.13,7.77v33.9H45.78V18.72a5,5,0,0,0-.57-2.46,1.89,1.89,0,0,0-1.77-1,2,2,0,0,0-2.13,1.47,12.32,12.32,0,0,0-.51,3.93v30.9H30.3Z"/><path d="M63.6,50.28Q62,48.54,62,44.7V17.28H59.1v-8H62V0h10.2V9.3h3v8h-3V41.94a5.74,5.74,0,0,0,.18,1.68q.18.54,1,.54a10.33,10.33,0,0,0,1.14-.06l.72-.06v7.2q-.9.24-2.61.51A21.34,21.34,0,0,1,69.3,52Q65.16,52,63.6,50.28Z"/><path d="M78.18,38.4V20.76q0-6.24,3.51-9.93t9.63-3.69q6.12,0,9.63,3.69t3.51,9.93V38.4Q104.46,52,91.32,52T78.18,38.4Zm15,4.62a4.39,4.39,0,0,0,.6-2.46V19.08q0-3.84-2.46-3.84t-2.46,3.84V40.56a4.39,4.39,0,0,0,.6,2.46,2.37,2.37,0,0,0,3.72,0Z"/><path d="M108.36,7.62h10.5V13.2a9.36,9.36,0,0,1,2.28-4.38,5.72,5.72,0,0,1,4.32-1.68q4.44,0,6.57,2.73t2.13,7.77v33.9H123.84V18.72a5,5,0,0,0-.57-2.46,1.89,1.89,0,0,0-1.77-1,2,2,0,0,0-2.13,1.47,12.32,12.32,0,0,0-.51,3.93v30.9h-10.5Z"/></svg>
