<svg xmlns="http://www.w3.org/2000/svg" viewBox="0 0 186.9 46.44"><title>Bangers-Regular</title><path d="M26.16,34.5a13.73,13.73,0,0,1-2.76,3.81,18.84,18.84,0,0,1-4,3,29.45,29.45,0,0,1-4.86,2.16,33.26,33.26,0,0,1-5.22,1.32,30.88,30.88,0,0,1-5.13.45A22.47,22.47,0,0,1,0,44.88,199.43,199.43,0,0,0,4.59,23.73Q6.3,13.08,7.86,2.28,11,1.62,14.34,1.11a46.34,46.34,0,0,1,7-.51A15.2,15.2,0,0,1,24.48,1a8.37,8.37,0,0,1,3.06,1.32A8,8,0,0,1,29.85,4.8a7.64,7.64,0,0,1,.93,4A11.93,11.93,0,0,1,30,13a15.48,15.48,0,0,1-1.92,3.6,13.64,13.64,0,0,1-2.67,2.79,12,12,0,0,1-3.06,1.77A8,8,0,0,1,24,22.38a10.88,10.88,0,0,1,1.56,1.83,9.26,9.26,0,0,1,1.17,2.49,10.84,10.84,0,0,1,.45,3.24A10.3,10.3,0,0,1,26.16,34.5ZM13,26.25q-.21,1.11-.39,2.13t-.39,2.13q-.21,1.11-.45,2.61,1.14-.12,2.58-.42a12.13,12.13,0,0,0,2.76-.93,6.66,6.66,0,0,0,2.22-1.68,3.78,3.78,0,0,0,.9-2.55,2.81,2.81,0,0,0-.57-1.8,4.71,4.71,0,0,0-1.44-1.2,6.67,6.67,0,0,0-1.89-.69,9.54,9.54,0,0,0-1.92-.21h-.51a1.86,1.86,0,0,0-.45.06Q13.2,25.14,13,26.25Zm2.88-15.51q-.15.9-.33,1.89t-.39,1.95q-.21,1-.33,1.68a21.22,21.22,0,0,0,2.64-.66,17.76,17.76,0,0,0,2.37-.93,6.61,6.61,0,0,0,1.68-1.11,1.8,1.8,0,0,0,.63-1.32,2.05,2.05,0,0,0-.54-1.47,4,4,0,0,0-1.41-.93,8,8,0,0,0-1.8-.51,10.5,10.5,0,0,0-1.65-.15h-.6Q16,9.84,15.87,10.74Z"/><path d="M44.52,44.34l-3.24.54q.24-2,.48-3.9.18-1.68.33-3.36t.27-2.88H37.14l-2.4,8.64-3.12.39-3.36.39-3.78.48q2.4-8,4.74-15.72l2-6.78,2.1-7q1.05-3.51,2-6.75T37,2.4q4.08-.3,8.31-.72T53.58.54q-.18,1.92-.39,4.77t-.39,6.21q-.18,3.36-.36,7t-.36,7.2q-.3,8.28-.66,17.58-1.8.3-3.6.48Zm-5.94-15.6.87,0,1.32-.06,1.29-.06a5,5,0,0,0,.84-.09q0-.36.09-1.23t.18-2q.09-1.11.21-2.43t.24-2.58q.24-3.06.6-6.6l.36-5.22-.9.06L42.3,13.68Z"/><path d="M52,45.3q1.8-8.64,3.42-16.74.6-3.48,1.29-7.2T58,14q.6-3.63,1.08-7t.72-6q.78.06,1.32.06H62.4l2,0q1.2,0,2.4-.09L69.42.84q.84,4.2,1.5,8.1l1.35,7q.69,3.6,1.23,6.12.24-1.2.54-2.79T74.7,16q.36-1.74.69-3.51t.69-3.51q.84-3.9,1.74-8L85.14,0q-2,9.18-3.6,17.4-.72,3.54-1.41,7.17t-1.29,7q-.6,3.33-1,6.18t-.66,4.77a13.07,13.07,0,0,0-1.41.27l-2.82.63-3.18.72a18.5,18.5,0,0,0-2.37.66Q67,40,66.6,35.64q-.18-1.86-.39-3.81t-.45-3.75q-.24-1.8-.48-3.36T64.8,22q-.18,1.14-.48,2.64t-.6,3.18q-.3,1.68-.6,3.51t-.66,3.51q-.78,4-1.68,8.4Z"/><path d="M109.08,32.79a27.5,27.5,0,0,1-4.77,7.59,19.14,19.14,0,0,1-6,4.56,14.41,14.41,0,0,1-6.09,1.5,9.7,9.7,0,0,1-4.23-1,9.44,9.44,0,0,1-3.48-2.91,14.81,14.81,0,0,1-2.31-4.89,25.25,25.25,0,0,1-.84-6.9,37.45,37.45,0,0,1,2.22-13.5,31.41,31.41,0,0,1,5.61-9.6A23.16,23.16,0,0,1,96.45,2,16.79,16.79,0,0,1,103.68.12a9.64,9.64,0,0,1,4.17.84,8.19,8.19,0,0,1,2.91,2.25,8.84,8.84,0,0,1,1.65,3.3,15.25,15.25,0,0,1,.51,4l-8.22,1.56a7.87,7.87,0,0,0-1.44-3.42,2.67,2.67,0,0,0-2-1q-1.5,0-3.3,2.13a24.44,24.44,0,0,0-3.36,5.49,45.6,45.6,0,0,0-2.64,7.38,34.56,34.56,0,0,0-1.2,7.92q0,3.72,1.11,5.31a3.35,3.35,0,0,0,2.85,1.59,5.89,5.89,0,0,0,2.49-.6,7.31,7.31,0,0,0,2.31-1.71,10.16,10.16,0,0,0,1.71-2.58,8.13,8.13,0,0,0,.75-3.21l-6.42,1,1.14-5.94,5.52-.72q2.28-.3,4.83-.72t4.47-.78A32,32,0,0,1,109.08,32.79Z"/><path d="M109.26,45.06,117.12,2.4l19-1.62q-.42,1.32-.72,2.7-.3,1.14-.57,2.37T134.34,8q-.6.06-1.71.09l-2.37.06q-1.26,0-2.55,0h-2.25L123.36,19q1.86-.12,3.48-.18,1.32-.06,2.7-.06t2-.06q-.24,1.68-.45,3.3t-.51,3.3q-.6.06-2,.09l-2.73.09-3.42.12-2,11,8.76-1.38-.6,6.84Z"/><path d="M129.48,45.06q1.62-8,3.12-15.6.54-3.24,1.2-6.75t1.23-7q.57-3.45,1.08-6.66t.81-5.85a42.52,42.52,0,0,1,7.38-1.59,61.48,61.48,0,0,1,7.86-.51,11.78,11.78,0,0,1,3.87.54,5.59,5.59,0,0,1,2.4,1.53,5.73,5.73,0,0,1,1.23,2.31A11.17,11.17,0,0,1,160,8.46a13.69,13.69,0,0,1-.84,4.71,19.74,19.74,0,0,1-2.25,4.38,22.47,22.47,0,0,1-3.24,3.78,17.41,17.41,0,0,1-3.93,2.79q1.08,2.4,2.31,5.25t2.31,5.43q1.2,3,2.46,6L147.54,44q-1.2-3.84-2.16-7.2-.42-1.38-.84-2.85t-.78-2.79q-.36-1.32-.6-2.37a13.53,13.53,0,0,1-.3-1.71l-.78.24q-.36,1.92-.87,4.5t-.93,5q-.54,2.82-1.08,5.7Zm14.1-26a8.4,8.4,0,0,0,2.79-1,19.5,19.5,0,0,0,3.15-2,17.79,17.79,0,0,0,2.58-2.43,3.66,3.66,0,0,0,1.08-2.22,1.36,1.36,0,0,0-.42-1.05,2.8,2.8,0,0,0-1.17-.6,8.12,8.12,0,0,0-1.65-.27q-.9-.06-1.86-.06l-1.35,0-1.23,0Z"/><path d="M181.17,36.27A14.81,14.81,0,0,1,177.69,41,15.5,15.5,0,0,1,172.53,44a18.56,18.56,0,0,1-6.39,1.08,10.06,10.06,0,0,1-4.8-1.29,15.22,15.22,0,0,1-4.62-4.11l4.44-8.7a6.63,6.63,0,0,0,1.26,1.59A9.5,9.5,0,0,0,164.31,34a14.21,14.21,0,0,0,2.1,1,5.5,5.5,0,0,0,1.89.39,5.09,5.09,0,0,0,1.5-.24,4.86,4.86,0,0,0,1.44-.72,3.94,3.94,0,0,0,1-1.11,2.74,2.74,0,0,0,.39-1.47,4.34,4.34,0,0,0-.93-2.67,13.4,13.4,0,0,0-2.31-2.34q-1.38-1.11-3-2.25a27.74,27.74,0,0,1-3-2.4,13.57,13.57,0,0,1-2.31-2.82,6.51,6.51,0,0,1-1-3.48,10.06,10.06,0,0,1,1.86-5.82,18.35,18.35,0,0,1,4.65-4.65,24.58,24.58,0,0,1,6.09-3.09A19.13,19.13,0,0,1,179,1.2a11.66,11.66,0,0,1,3.06.39,6.51,6.51,0,0,1,2.49,1.26A6.35,6.35,0,0,1,186.27,5a7.65,7.65,0,0,1,.63,3.3,9.54,9.54,0,0,1-.15,1.68q-.15.84-.27,1.8l-8.7,2.52q.12-.48.21-1a5.2,5.2,0,0,0,.09-1,4.28,4.28,0,0,0-.63-2.61A2,2,0,0,0,175.8,9a2.65,2.65,0,0,0-1.17.36,8,8,0,0,0-1.38.93,5.42,5.42,0,0,0-1.17,1.35,3.15,3.15,0,0,0-.48,1.68,3.59,3.59,0,0,0,.81,2.4,10.44,10.44,0,0,0,2,1.8q1.2.84,2.61,1.71a11.4,11.4,0,0,1,2.61,2.25,11.71,11.71,0,0,1,2,3.45,14.55,14.55,0,0,1,.81,5.25A14.08,14.08,0,0,1,181.17,36.27Z"/></svg>
