<svg xmlns="http://www.w3.org/2000/svg" viewBox="0 0 165 54.6"><title>Cuprum-Regular</title><path d="M5.88,41.25Q3,39.3,1.5,34.56A44.56,44.56,0,0,1,0,21.6,44.29,44.29,0,0,1,1.5,8.7Q3,4,5.73,2A11.4,11.4,0,0,1,12.6,0a35.6,35.6,0,0,1,5,.36,23.65,23.65,0,0,1,4,.84V3.9H13.8A6.82,6.82,0,0,0,7.59,7.8Q5.4,11.7,5.4,21.6A41.71,41.71,0,0,0,6.48,32.28q1.08,3.9,3.06,5.46A7.61,7.61,0,0,0,14.4,39.3h7.8V42a23.65,23.65,0,0,1-3.93.84,35.39,35.39,0,0,1-5.07.36A12.79,12.79,0,0,1,5.88,41.25Z"/><path d="M28.74,41.25q-2.34-1.95-2.34-7V12.6h5.4V34.2q0,2.94,1.5,4.17a6.45,6.45,0,0,0,4.2,1.23,7.94,7.94,0,0,0,2.28-.36,7.24,7.24,0,0,0,1.92-.84V12.6h5.4v30H42.6l-.3-1.8H42a7.79,7.79,0,0,1-2.82,1.77,9.83,9.83,0,0,1-3.48.63Q31.08,43.2,28.74,41.25Z"/><path d="M54.9,12.6h4.5l.3,1.8H60a7.79,7.79,0,0,1,2.82-1.77A9.83,9.83,0,0,1,66.3,12q5,0,7.44,3.48T76.2,27.6q0,8.64-2.46,12.12T66.3,43.2a13.31,13.31,0,0,1-6-1.5V54.6H54.9ZM69.24,37q1.56-2.61,1.56-9.39t-1.56-9.39A5.15,5.15,0,0,0,64.5,15.6a7.94,7.94,0,0,0-2.28.36,7.24,7.24,0,0,0-1.92.84V38.4a7.24,7.24,0,0,0,1.92.84,7.94,7.94,0,0,0,2.28.36A5.15,5.15,0,0,0,69.24,37Z"/><path d="M82.8,12.6h4.56l.3,2.4H88a11.23,11.23,0,0,1,7.44-2.4h3v4.5h-6a6.88,6.88,0,0,0-4.2,1.2V42.6H82.8Z"/><path d="M105.24,41.25q-2.34-1.95-2.34-7V12.6h5.4V34.2q0,2.94,1.5,4.17A6.45,6.45,0,0,0,114,39.6a7.94,7.94,0,0,0,2.28-.36,7.24,7.24,0,0,0,1.92-.84V12.6h5.4v30h-4.5l-.3-1.8h-.3a7.79,7.79,0,0,1-2.82,1.77,9.83,9.83,0,0,1-3.48.63Q107.58,43.2,105.24,41.25Z"/><path d="M131.4,12.6h4.5l.3,1.8h.3a8.17,8.17,0,0,1,2.64-1.8,8.69,8.69,0,0,1,3.36-.6q4.62,0,6.72,2.64a10.32,10.32,0,0,1,3.51-1.92A12.2,12.2,0,0,1,156.6,12a8.94,8.94,0,0,1,6.21,2Q165,16,165,21V42.6h-5.4V21a5.45,5.45,0,0,0-1.35-4.14,4.86,4.86,0,0,0-3.45-1.26,9.14,9.14,0,0,0-2.52.36,7.16,7.16,0,0,0-2,.84,13.3,13.3,0,0,1,.6,4.2V42.6h-5.4V21a5.45,5.45,0,0,0-1.35-4.14,4.86,4.86,0,0,0-3.45-1.26,6.62,6.62,0,0,0-2.1.36,7.56,7.56,0,0,0-1.8.84V42.6h-5.4Z"/></svg>
