<svg xmlns="http://www.w3.org/2000/svg" viewBox="0 0 319.44 60"><title>DancingScript-Regular</title><path d="M2.67,47.85A5.47,5.47,0,0,1,0,45.72q1.56-7.5,5-18.63t5.37-16.17A19.8,19.8,0,0,1,12.3,7.14a3.36,3.36,0,0,1,2.76-1.86,2.88,2.88,0,0,1,1.68.6,212.62,212.62,0,0,0-7.29,20q-3.69,11.7-5.67,20.7a15.86,15.86,0,0,0,2.58.24,18.42,18.42,0,0,0,11.82-4.62A34.23,34.23,0,0,0,27.3,30.39a33.39,33.39,0,0,0,3.48-14.61q0-7-3.3-10.59a11.65,11.65,0,0,0-9-3.57,15.79,15.79,0,0,0-7,1.53A12.22,12.22,0,0,0,6.54,7.38a10.48,10.48,0,0,0-1.8,5.94A7.09,7.09,0,0,0,5,15.54a3.58,3.58,0,0,1-2.73-.93,3.41,3.41,0,0,1-.87-2.43A8.43,8.43,0,0,1,4,6.54,19.74,19.74,0,0,1,11,1.86,23.48,23.48,0,0,1,20.28,0Q27.9,0,31.56,4.5t3.66,11.94A31.22,31.22,0,0,1,31,32.22,34.25,34.25,0,0,1,20.07,44,24.54,24.54,0,0,1,6.42,48.42,11.12,11.12,0,0,1,2.67,47.85Z"/><path d="M34.89,44.73A5.14,5.14,0,0,1,33.66,41a16.08,16.08,0,0,1,2.55-7.92,26,26,0,0,1,6.45-7.44,12.43,12.43,0,0,1,7.62-3.06,6,6,0,0,1,3.9,1.26,4,4,0,0,1,1.56,3.24,2.34,2.34,0,0,1-.78,2,3.47,3.47,0,0,1-2.16.6,7.83,7.83,0,0,0,.3-2.1,3.86,3.86,0,0,0-.72-2.43,2.63,2.63,0,0,0-2.22-.93q-2.64,0-5.55,2.94a25.51,25.51,0,0,0-4.86,7,16.86,16.86,0,0,0-2,7q0,2.34,1.62,2.34,2.4,0,5.64-3.81a110.26,110.26,0,0,0,7-9.27,5.65,5.65,0,0,1,1.59.51q.81.39.81,1a3.82,3.82,0,0,1-.57,1.53q-.57,1.05-.69,1.23a31.72,31.72,0,0,0-1.62,3.09,6.18,6.18,0,0,0-.6,2.49,3.36,3.36,0,0,0,.51,1.83A1.69,1.69,0,0,0,53,43q1.74,0,4.38-2.49a30.34,30.34,0,0,0,5.22-7l.6.6a22.15,22.15,0,0,1-3.24,5.67,16.28,16.28,0,0,1-4.26,3.87A8.48,8.48,0,0,1,51.3,45a4.1,4.1,0,0,1-3.21-1.23,4.28,4.28,0,0,1-1.11-3,9.52,9.52,0,0,1,.18-1.74,28.9,28.9,0,0,1-4.83,5.28A6.84,6.84,0,0,1,38.1,46,4.23,4.23,0,0,1,34.89,44.73Z"/><path d="M77.64,43.35a3.71,3.71,0,0,1-1.08-2.79,7.49,7.49,0,0,1,.27-1.83q.27-1,.57-2.07A23.57,23.57,0,0,0,78,34.38a9.94,9.94,0,0,0,.27-2.16q0-2.94-2.4-2.94t-4.77,2.4A31.8,31.8,0,0,0,66.69,37Q64.74,40,62.28,44.1a5,5,0,0,1-1.86-.33,2.89,2.89,0,0,1-1.32-1,11.13,11.13,0,0,1,.78-2.16q1.5-3.84,2.46-7a21.31,21.31,0,0,0,1-5.61,3.88,3.88,0,0,1,1.2-.87,3.46,3.46,0,0,1,1.56-.39q1.62,0,1.62,1.56a16,16,0,0,1-.54,3.15q-.54,2.25-1.38,4.77a40.76,40.76,0,0,1,6.12-7.5q3.24-3.06,6.36-3.06a3.79,3.79,0,0,1,3.33,1.59,6.49,6.49,0,0,1,1.11,3.81,9.46,9.46,0,0,1-.33,2.52,22.63,22.63,0,0,1-1,2.76q-.54,1.32-.84,2.28a6.41,6.41,0,0,0-.3,1.92q0,2.28,1.8,2.28,2,0,4.23-2.7a36.44,36.44,0,0,0,4.17-6.66l.66.78Q86.82,44.4,80.76,44.4A4.3,4.3,0,0,1,77.64,43.35Z"/><path d="M90.9,44.58A8,8,0,0,1,89,38.88a16,16,0,0,1,2-7.62,17.87,17.87,0,0,1,5.07-6,10.19,10.19,0,0,1,6.09-2.31,3.87,3.87,0,0,1,3.27,1.29,5,5,0,0,1,1,3.15,5.69,5.69,0,0,1-.81,3.09,2.48,2.48,0,0,1-2.19,1.29,2.16,2.16,0,0,1-1.74-.9A3.57,3.57,0,0,0,103.26,29a6.94,6.94,0,0,0,.66-2.85,1.77,1.77,0,0,0-.3-1.14,1.26,1.26,0,0,0-1-.36q-2,0-4.35,2.43a21.38,21.38,0,0,0-3.9,5.91,15.47,15.47,0,0,0-1.59,6.36,5.94,5.94,0,0,0,1,3.57,3.86,3.86,0,0,0,3.36,1.41,11.22,11.22,0,0,0,7.23-3,19.29,19.29,0,0,0,5.49-7.86l.78.6a22.35,22.35,0,0,1-3.78,6.45,19.12,19.12,0,0,1-5.31,4.47,11.82,11.82,0,0,1-5.79,1.62A6.36,6.36,0,0,1,90.9,44.58Z"/><path d="M109.62,43.35a5.41,5.41,0,0,1-1.2-3.63,22.53,22.53,0,0,1,1.35-6.48A31.22,31.22,0,0,1,113.13,26q2-3.12,3.93-3.12a1.32,1.32,0,0,1,.93.36,1.24,1.24,0,0,1,.39,1q0,.84-1.92,4a57.2,57.2,0,0,0-3.15,5.91,12.12,12.12,0,0,0-1.17,5,4.32,4.32,0,0,0,.69,2.85,2.93,2.93,0,0,0,2.25.75q4.68,0,9.24-9.18l.54.6a17.33,17.33,0,0,1-5,7.86A10.4,10.4,0,0,1,113,44.76,4.24,4.24,0,0,1,109.62,43.35Zm8.85-26.58a1.72,1.72,0,0,1-.69-1.47,2.67,2.67,0,0,1,1.44-2.16,5.24,5.24,0,0,1,2.94-1q2,0,2,1.86a2.94,2.94,0,0,1-1.23,2.19,4,4,0,0,1-2.67,1.05A2.9,2.9,0,0,1,118.47,16.77Z"/><path d="M139.44,43.35a3.71,3.71,0,0,1-1.08-2.79,7.49,7.49,0,0,1,.27-1.83q.27-1,.57-2.07a23.57,23.57,0,0,0,.63-2.28,9.94,9.94,0,0,0,.27-2.16q0-2.94-2.4-2.94t-4.77,2.4A31.8,31.8,0,0,0,128.49,37q-2,2.94-4.41,7.08a5,5,0,0,1-1.86-.33,2.89,2.89,0,0,1-1.32-1,11.13,11.13,0,0,1,.78-2.16q1.5-3.84,2.46-7a21.31,21.31,0,0,0,1-5.61,3.88,3.88,0,0,1,1.2-.87,3.46,3.46,0,0,1,1.56-.39q1.62,0,1.62,1.56a16,16,0,0,1-.54,3.15q-.54,2.25-1.38,4.77a40.76,40.76,0,0,1,6.12-7.5q3.24-3.06,6.36-3.06a3.79,3.79,0,0,1,3.33,1.59,6.49,6.49,0,0,1,1.11,3.81,9.46,9.46,0,0,1-.33,2.52,22.63,22.63,0,0,1-1,2.76q-.54,1.32-.84,2.28a6.41,6.41,0,0,0-.3,1.92q0,2.28,1.8,2.28,2,0,4.23-2.7a36.44,36.44,0,0,0,4.17-6.66l.66.78Q148.62,44.4,142.56,44.4A4.3,4.3,0,0,1,139.44,43.35Z"/><path d="M151,59.13a3.24,3.24,0,0,1-1-2.61,6,6,0,0,1,1.74-4.11,17.93,17.93,0,0,1,4-3.24q2.25-1.35,6-3.21a81.35,81.35,0,0,0,3.06-9.9q-5.34,7.68-9.78,7.68a3.91,3.91,0,0,1-3.3-1.59,6.85,6.85,0,0,1-1.2-4.23A12.88,12.88,0,0,1,153,30.36a20,20,0,0,1,6.3-5.79,14.09,14.09,0,0,1,7-2.19,4.42,4.42,0,0,1,2.43.54,1.61,1.61,0,0,1,.81,1.38,1.24,1.24,0,0,1-.27.81,1.19,1.19,0,0,1-.45.39,2.7,2.7,0,0,0-2.4-.9,9.06,9.06,0,0,0-5.79,2.28,18.12,18.12,0,0,0-4.53,5.52,12.56,12.56,0,0,0-1.74,5.82,3.58,3.58,0,0,0,.57,2.19,1.82,1.82,0,0,0,1.53.75q1.62,0,4.05-2.22a33.3,33.3,0,0,0,4.83-5.7l.72-3.18a5.08,5.08,0,0,1,1-2.1,2.48,2.48,0,0,1,2.07-1,5.29,5.29,0,0,1,1.26.18,32,32,0,0,1-1.32,6.51,94.6,94.6,0,0,1-3.3,9.93,21.14,21.14,0,0,0,5.79-4.17,17.69,17.69,0,0,0,4-6l.78.6a16.19,16.19,0,0,1-4.53,6.66,27.18,27.18,0,0,1-6.69,4.62,51.25,51.25,0,0,1-5.7,10.74q-2.88,3.9-6,3.9A3.66,3.66,0,0,1,151,59.13Zm5.73-3.66A34.77,34.77,0,0,0,161,47.58a40.22,40.22,0,0,0-6.78,4.14A5.46,5.46,0,0,0,151.8,56a2.67,2.67,0,0,0,.39,1.53,1.21,1.21,0,0,0,1.05.57Q154.62,58.08,156.69,55.47Z"/><path d="M196,47.22a10.34,10.34,0,0,1-4.59-3.63,10,10,0,0,1-1.71-5.91q0-4.26,2.34-6.15a8.26,8.26,0,0,1,5.34-1.89,12.32,12.32,0,0,0-2.46,3.84,11.24,11.24,0,0,0-.84,4.2,8.19,8.19,0,0,0,2.37,6q2.37,2.4,6.81,2.4a14.32,14.32,0,0,0,5.37-1,10.14,10.14,0,0,0,4.17-3,7.25,7.25,0,0,0,1.62-4.74,7.54,7.54,0,0,0-1.2-4.23,11.71,11.71,0,0,0-3-3.12q-1.8-1.29-4.8-3.09a58.11,58.11,0,0,1-4.89-3.15,12.66,12.66,0,0,1-3.09-3.27A7.91,7.91,0,0,1,196.2,16a14.49,14.49,0,0,1,2.16-7.23,18.22,18.22,0,0,1,6.09-6.27A16,16,0,0,1,213.3,0q3.3,0,4.8,1.62A6.19,6.19,0,0,1,219.6,6a18.84,18.84,0,0,1-1.44,6.72A37.62,37.62,0,0,1,215,19.2a2.34,2.34,0,0,1-2-2.58,8.76,8.76,0,0,1,.45-2.58q.45-1.44,1.29-3.6.9-2.34,1.35-3.81A9.05,9.05,0,0,0,216.54,4a2.42,2.42,0,0,0-.75-1.92,4,4,0,0,0-2.61-.66,11,11,0,0,0-6.57,2.19,17,17,0,0,0-4.83,5.31,11.6,11.6,0,0,0-1.8,5.7A5.82,5.82,0,0,0,201,18.06a10.78,10.78,0,0,0,2.61,2.61,46.83,46.83,0,0,0,4.26,2.61,54.41,54.41,0,0,1,5.22,3.33,13.49,13.49,0,0,1,3.39,3.72,9.79,9.79,0,0,1,1.41,5.31,10.6,10.6,0,0,1-2.31,6.84,14.9,14.9,0,0,1-5.91,4.41,18.84,18.84,0,0,1-7.44,1.53A16.06,16.06,0,0,1,196,47.22Z"/><path d="M223.8,44.58a8,8,0,0,1-1.86-5.7,16,16,0,0,1,2-7.62,17.87,17.87,0,0,1,5.07-6,10.19,10.19,0,0,1,6.09-2.31,3.87,3.87,0,0,1,3.27,1.29,5,5,0,0,1,1,3.15,5.69,5.69,0,0,1-.81,3.09,2.48,2.48,0,0,1-2.19,1.29,2.16,2.16,0,0,1-1.74-.9A3.57,3.57,0,0,0,236.16,29a6.94,6.94,0,0,0,.66-2.85,1.77,1.77,0,0,0-.3-1.14,1.26,1.26,0,0,0-1-.36q-2,0-4.35,2.43a21.38,21.38,0,0,0-3.9,5.91,15.47,15.47,0,0,0-1.59,6.36,5.94,5.94,0,0,0,1,3.57A3.86,3.86,0,0,0,230,44.28a11.22,11.22,0,0,0,7.23-3,19.29,19.29,0,0,0,5.49-7.86l.78.6a22.35,22.35,0,0,1-3.78,6.45,19.12,19.12,0,0,1-5.31,4.47,11.82,11.82,0,0,1-5.79,1.62A6.36,6.36,0,0,1,223.8,44.58Z"/><path d="M248.79,43.68a3.66,3.66,0,0,1-1.17-2.82A15.86,15.86,0,0,1,249.36,35q.78-2,1.17-3.15a7,7,0,0,0,.39-2.19,3.71,3.71,0,0,0-.69-2.37,6.91,6.91,0,0,0-1.53-1.44q-.84-.57-1.14-.75-1.32,3.36-2.82,6.57t-2.52,5l-.54-1a83.4,83.4,0,0,0,4.86-11.4,2,2,0,0,1-.6-1.44,4.75,4.75,0,0,1,.45-2,4.39,4.39,0,0,1,1.08-1.5,1.8,1.8,0,0,1,1-.54q.84,0,.84,1.44a4.49,4.49,0,0,1-.3,1.08,10.15,10.15,0,0,0-.36,1.14,1.55,1.55,0,0,0,.51,1.11,12.22,12.22,0,0,0,1.65,1.29,14.71,14.71,0,0,1,2.91,2.61,5.11,5.11,0,0,1,1,3.33,8.38,8.38,0,0,1-.42,2.61q-.42,1.29-1.26,3.39a11.82,11.82,0,0,0-1.32,4.14,1.59,1.59,0,0,0,1.8,1.8,6.89,6.89,0,0,0,3.87-1.44,18.78,18.78,0,0,0,3.81-3.57,17.25,17.25,0,0,0,2.52-3.93l.78.6a21.76,21.76,0,0,1-5.4,7.32q-3.54,3.18-7.14,3.18A4.55,4.55,0,0,1,248.79,43.68Z"/><path d="M263.4,43.35a5.41,5.41,0,0,1-1.2-3.63,22.53,22.53,0,0,1,1.35-6.48A31.22,31.22,0,0,1,266.91,26q2-3.12,3.93-3.12a1.32,1.32,0,0,1,.93.36,1.24,1.24,0,0,1,.39,1q0,.84-1.92,4a57.2,57.2,0,0,0-3.15,5.91,12.12,12.12,0,0,0-1.17,5,4.32,4.32,0,0,0,.69,2.85,2.93,2.93,0,0,0,2.25.75q4.68,0,9.24-9.18l.54.6a17.33,17.33,0,0,1-4.95,7.86,10.4,10.4,0,0,1-6.87,2.82A4.24,4.24,0,0,1,263.4,43.35Zm8.85-26.58a1.72,1.72,0,0,1-.69-1.47A2.67,2.67,0,0,1,273,13.14a5.24,5.24,0,0,1,2.94-1q2,0,2,1.86a2.94,2.94,0,0,1-1.23,2.19A4,4,0,0,1,274,17.28,2.9,2.9,0,0,1,272.25,16.77Z"/><path d="M272.28,59.52a5.08,5.08,0,0,1-.72-1.08q-.3-.6-.24-.72.84-2.88,2-6.36,1.32-3.84,2.22-7t1.89-8.61q1-5.43,2-13.89a1.36,1.36,0,0,1,.27-.81,1.27,1.27,0,0,1,.87-.21,2.74,2.74,0,0,1,2.16.81,2.83,2.83,0,0,1,.72,1.95,54.58,54.58,0,0,1-1.38,8.1,24,24,0,0,1,4.53-6.21,8.23,8.23,0,0,1,5.85-2.61,5.61,5.61,0,0,1,4.35,1.89,7.09,7.09,0,0,1,1.71,4.95,14.66,14.66,0,0,1-1.86,6.75,16.87,16.87,0,0,1-5.13,5.94,12,12,0,0,1-7.17,2.37,8,8,0,0,1-2.49-.33q-1-.33-1-.75,0-.18.45-.24a8,8,0,0,1,1.05-.06,10.17,10.17,0,0,0,5.94-2,15.33,15.33,0,0,0,4.56-5,12.29,12.29,0,0,0,1.74-6.12,5.84,5.84,0,0,0-.87-3.33,2.88,2.88,0,0,0-2.55-1.29,6.38,6.38,0,0,0-3.93,1.59,18.37,18.37,0,0,0-3.6,3.84,23,23,0,0,0-2.43,4.23q-2.22,9.48-4.29,16.47t-3.09,8a1,1,0,0,1-.72.3A1.2,1.2,0,0,1,272.28,59.52Z"/><path d="M300.18,40a27.84,27.84,0,0,1,.93-6.39,68.53,68.53,0,0,1,2.55-8.07,15.3,15.3,0,0,1-2.16-.48V24q2.16.24,2.64.24a75.48,75.48,0,0,1,5.67-11.85q3-5,4.77-5a1.28,1.28,0,0,1,1.26,1.32,5.76,5.76,0,0,1-.75,2.28q-.75,1.5-2.55,4.62-.3.6-1.86,3.33t-2.82,5.49h2.22q5,0,8.58-.36v1.08a101,101,0,0,1-10.56.72h-.9q-3.3,7.56-3.3,13.08a6.61,6.61,0,0,0,.78,3.69,2.93,2.93,0,0,0,2.58,1.11A9,9,0,0,0,313.32,41a24.64,24.64,0,0,0,5.34-7.53l.78.6a23.36,23.36,0,0,1-6,8.55A11.87,11.87,0,0,1,305.52,46Q300.18,46,300.18,40Z"/></svg>
