<svg xmlns="http://www.w3.org/2000/svg" viewBox="0 0 110.34 44.22"><title>Dosis-Light</title><path d="M0,42.6V1.26A1.17,1.17,0,0,1,.42.39a1.44,1.44,0,0,1,1-.39H12.06a12.56,12.56,0,0,1,8.79,3q3.33,3,3.33,9.57V31.26q0,6.54-3.33,9.57a12.56,12.56,0,0,1-8.79,3H1.44a1.44,1.44,0,0,1-1-.39A1.17,1.17,0,0,1,0,42.6ZM3,41h9.06a9,9,0,0,0,6.75-2.43q2.37-2.43,2.37-7.29V12.6q0-4.86-2.37-7.29a9,9,0,0,0-6.75-2.43H3Z"/><path d="M31.32,33.12v-7a10.59,10.59,0,0,1,3.24-7.71,10.52,10.52,0,0,1,7.74-3.27A10.69,10.69,0,0,1,50,18.42a10.47,10.47,0,0,1,3.3,7.74v7A10.68,10.68,0,0,1,50,40.86a10.52,10.52,0,0,1-15.39,0A10.7,10.7,0,0,1,31.32,33.12Zm2.94,0a8.28,8.28,0,0,0,2.37,5.79,7.48,7.48,0,0,0,5.67,2.55A7.57,7.57,0,0,0,48,38.91a8.22,8.22,0,0,0,2.4-5.79v-7a8.05,8.05,0,0,0-2.4-5.7,7.61,7.61,0,0,0-5.7-2.52,7.52,7.52,0,0,0-5.67,2.52,8.1,8.1,0,0,0-2.37,5.7Z"/><path d="M58.32,40.14a1.55,1.55,0,0,1,.33-.93.93.93,0,0,1,.75-.45,1.37,1.37,0,0,1,1,.42l1.38,1a9.28,9.28,0,0,0,2.22,1,11,11,0,0,0,3.36.48,7.93,7.93,0,0,0,5-1.29A4.06,4.06,0,0,0,73.92,37a4.88,4.88,0,0,0-1.53-3.8,9.53,9.53,0,0,0-3.7-2l-4.42-1.33a8.42,8.42,0,0,1-3.76-2.3A6.12,6.12,0,0,1,59,23.1a7.73,7.73,0,0,1,2.31-5.52q2.31-2.4,6.81-2.4a15.46,15.46,0,0,1,5.25.87q2.43.87,2.43,1.83a1.7,1.7,0,0,1-.42,1,1.17,1.17,0,0,1-.9.54s-.74-.27-2.1-.81a11.28,11.28,0,0,0-4.2-.81,6.49,6.49,0,0,0-4.83,1.62A5,5,0,0,0,61.74,23a3.73,3.73,0,0,0,1.53,3.17A12.17,12.17,0,0,0,67,28l4.44,1.34a7.68,7.68,0,0,1,3.76,2.52,7.39,7.39,0,0,1,1.53,4.9,6.62,6.62,0,0,1-2.46,5.46,10.74,10.74,0,0,1-6.9,2,13.93,13.93,0,0,1-6.45-1.35Q58.32,41.52,58.32,40.14Z"/><path d="M82,4.38a2,2,0,0,1,.66-1.47,2.26,2.26,0,0,1,1.62-.63,2.18,2.18,0,0,1,1.56.63,2,2,0,0,1,.66,1.47,2.13,2.13,0,0,1-.66,1.56,2.13,2.13,0,0,1-1.56.66,2.2,2.2,0,0,1-1.62-.66A2.13,2.13,0,0,1,82,4.38Zm.84,38.16V16.74q0-1.2,1.44-1.2t1.5,1.2v25.8a1.23,1.23,0,0,1-.45.9,1.49,1.49,0,0,1-1,.42,1.44,1.44,0,0,1-1-.39A1.23,1.23,0,0,1,82.86,42.54Z"/><path d="M91.92,40.14a1.55,1.55,0,0,1,.33-.93.93.93,0,0,1,.75-.45,1.37,1.37,0,0,1,1,.42l1.38,1a9.28,9.28,0,0,0,2.22,1,11,11,0,0,0,3.36.48,7.93,7.93,0,0,0,5-1.29A4.06,4.06,0,0,0,107.52,37a4.88,4.88,0,0,0-1.53-3.8,9.53,9.53,0,0,0-3.7-2l-4.42-1.33a8.42,8.42,0,0,1-3.76-2.3,6.12,6.12,0,0,1-1.53-4.38,7.73,7.73,0,0,1,2.31-5.52q2.31-2.4,6.81-2.4a15.46,15.46,0,0,1,5.25.87q2.43.87,2.43,1.83a1.7,1.7,0,0,1-.42,1,1.17,1.17,0,0,1-.9.54s-.74-.27-2.1-.81a11.28,11.28,0,0,0-4.2-.81,6.49,6.49,0,0,0-4.83,1.62A5,5,0,0,0,95.34,23a3.73,3.73,0,0,0,1.53,3.17A12.17,12.17,0,0,0,100.61,28l4.44,1.34a7.68,7.68,0,0,1,3.76,2.52,7.39,7.39,0,0,1,1.53,4.9,6.62,6.62,0,0,1-2.46,5.46,10.74,10.74,0,0,1-6.9,2,13.93,13.93,0,0,1-6.45-1.35Q91.92,41.52,91.92,40.14Z"/></svg>
