<svg xmlns="http://www.w3.org/2000/svg" viewBox="0 0 217.71 68.64"><title>FjallaOne-Regular</title><path d="M0,5.6H19.13v6H7.59v15h9.05v6h-9V55.63H0Z"/><path d="M23.85,15.29h7.41V58.1a18,18,0,0,1-.66,5.36,8.31,8.31,0,0,1-1.77,3.21,5.6,5.6,0,0,1-2.55,1.56,10.58,10.58,0,0,1-3,.41,12.31,12.31,0,0,1-1.79-.14,6.93,6.93,0,0,1-1.78-.56V63.63l.47,0h.46a3.4,3.4,0,0,0,1.23-.23,2.51,2.51,0,0,0,1-.78,4.06,4.06,0,0,0,.69-1.43A8.71,8.71,0,0,0,23.85,59Zm3.84-5.77a4.29,4.29,0,0,1-3.24-1.23,5,5,0,0,1-1.19-3.6,6.68,6.68,0,0,1,.31-2.21A3.45,3.45,0,0,1,24.45,1,3.46,3.46,0,0,1,25.84.25,6.32,6.32,0,0,1,27.71,0a4.6,4.6,0,0,1,3.34,1.11A4.81,4.81,0,0,1,32.2,4.69,5.12,5.12,0,0,1,31,8.25,4.29,4.29,0,0,1,27.69,9.52Z"/><path d="M44.56,56.07a7.09,7.09,0,0,1-3.32-.74,7.22,7.22,0,0,1-2.45-2,9.13,9.13,0,0,1-1.51-3.06,13.89,13.89,0,0,1-.51-3.85A14.64,14.64,0,0,1,37.38,42a11.28,11.28,0,0,1,1.8-3.48,14.23,14.23,0,0,1,3-2.83,28,28,0,0,1,4.07-2.42c.74-.37,1.58-.74,2.51-1.13s1.75-.7,2.47-1V25.78c0-.78,0-1.51-.09-2.18a5.29,5.29,0,0,0-.42-1.76,2.62,2.62,0,0,0-1-1.17,3.49,3.49,0,0,0-1.85-.43,4.14,4.14,0,0,0-1.54.3,3.15,3.15,0,0,0-1.31,1,5.23,5.23,0,0,0-.91,1.88,10.44,10.44,0,0,0-.34,2.9v1.76H38.06c-.18-.77-.31-1.46-.4-2.1a13.34,13.34,0,0,1-.13-1.89,9.58,9.58,0,0,1,.78-4,8,8,0,0,1,2.16-2.9,9.67,9.67,0,0,1,3.33-1.78,14.26,14.26,0,0,1,4.25-.6,16.18,16.18,0,0,1,5,.66,7.32,7.32,0,0,1,3.18,2,7.57,7.57,0,0,1,1.67,3.31,20.05,20.05,0,0,1,.48,4.66v30.2H52.88l-.53-3.45A9.11,9.11,0,0,1,49.15,55,9.54,9.54,0,0,1,44.56,56.07Zm3.28-5.71a3.79,3.79,0,0,0,1.83-.48,5.28,5.28,0,0,0,1.51-1.19V36.06l-1.32.56a14.9,14.9,0,0,0-1.58.85,10.43,10.43,0,0,0-1.55,1.2,8.06,8.06,0,0,0-1.36,1.67,9,9,0,0,0-1,2.18A9.2,9.2,0,0,0,44,45.23,6.84,6.84,0,0,0,44.94,49,3.21,3.21,0,0,0,47.84,50.36Z"/><path d="M66.18,2.34h7.41V55.63H66.18Z"/><path d="M81.45,2.34h7.41V55.63H81.45Z"/><path d="M102.16,56.07a7.16,7.16,0,0,1-3.33-.74,7.28,7.28,0,0,1-2.44-2,8.94,8.94,0,0,1-1.51-3.06,13.89,13.89,0,0,1-.51-3.85A14.64,14.64,0,0,1,95,42a11.28,11.28,0,0,1,1.8-3.48,13.75,13.75,0,0,1,3-2.83,28,28,0,0,1,4.07-2.42c.74-.37,1.58-.74,2.5-1.13s1.76-.7,2.48-1V25.78c0-.78,0-1.51-.09-2.18a5.55,5.55,0,0,0-.42-1.76,2.62,2.62,0,0,0-1-1.17,3.49,3.49,0,0,0-1.85-.43,4.1,4.1,0,0,0-1.54.3,3.12,3.12,0,0,0-1.32,1,5.23,5.23,0,0,0-.9,1.88,10.44,10.44,0,0,0-.34,2.9v1.76H95.65c-.17-.77-.3-1.46-.39-2.1a13.34,13.34,0,0,1-.13-1.89,9.74,9.74,0,0,1,.77-4,8.05,8.05,0,0,1,2.17-2.9,9.67,9.67,0,0,1,3.33-1.78,14.24,14.24,0,0,1,4.24-.6,16.09,16.09,0,0,1,5,.66,7.21,7.21,0,0,1,3.18,2,7.47,7.47,0,0,1,1.67,3.31,19.49,19.49,0,0,1,.49,4.66v30.2h-5.51L110,52.18A9.06,9.06,0,0,1,106.74,55,9.48,9.48,0,0,1,102.16,56.07Zm3.28-5.71a3.85,3.85,0,0,0,1.83-.48,5.28,5.28,0,0,0,1.51-1.19V36.06l-1.32.56a14,14,0,0,0-1.58.85,9.94,9.94,0,0,0-1.55,1.2A8.1,8.1,0,0,0,103,40.34a9,9,0,0,0-1,2.18,9.2,9.2,0,0,0-.37,2.71,6.75,6.75,0,0,0,.91,3.73A3.2,3.2,0,0,0,105.44,50.36Z"/><path d="M148,56.07a19.09,19.09,0,0,1-2.61-.19,9.77,9.77,0,0,1-2.78-.8A10.05,10.05,0,0,1,140,53.33a10.38,10.38,0,0,1-2.26-3,17.5,17.5,0,0,1-1.57-4.55,31.06,31.06,0,0,1-.58-6.46V21.62a30,30,0,0,1,.6-6.46,17.53,17.53,0,0,1,1.59-4.51,10.35,10.35,0,0,1,2.27-2.92,10,10,0,0,1,2.67-1.65,11.1,11.1,0,0,1,2.77-.75A19.7,19.7,0,0,1,148,5.16a20.63,20.63,0,0,1,2.47.16,10.56,10.56,0,0,1,2.73.7,9.91,9.91,0,0,1,2.65,1.61,9.79,9.79,0,0,1,2.28,2.9,17.26,17.26,0,0,1,1.6,4.54,30.78,30.78,0,0,1,.6,6.55V39.35a29,29,0,0,1-.61,6.4,18.17,18.17,0,0,1-1.62,4.54,10.39,10.39,0,0,1-2.3,3A11.19,11.19,0,0,1,153.18,55a10.19,10.19,0,0,1-2.71.84A15.85,15.85,0,0,1,148,56.07Zm0-5.71a4.74,4.74,0,0,0,2-.38,3,3,0,0,0,1.37-1.32,7.6,7.6,0,0,0,.82-2.47,22,22,0,0,0,.28-3.89V19.54a23.61,23.61,0,0,0-.28-4,8.3,8.3,0,0,0-.82-2.6A3.28,3.28,0,0,0,150,11.54a4.44,4.44,0,0,0-2-.41,4.64,4.64,0,0,0-2,.41,3.34,3.34,0,0,0-1.4,1.39,8.27,8.27,0,0,0-.84,2.6,24.83,24.83,0,0,0-.27,4V42.3a23.16,23.16,0,0,0,.27,3.89,7.58,7.58,0,0,0,.84,2.47A3.1,3.1,0,0,0,146,50,5,5,0,0,0,148,50.36Z"/><path d="M167.08,15.29h5.71l.68,4.31v0a10.81,10.81,0,0,1,1.89-2.3,9.42,9.42,0,0,1,2.09-1.48,8.87,8.87,0,0,1,2.21-.79,10.73,10.73,0,0,1,2.24-.24,6.51,6.51,0,0,1,5.47,2.48q1.92,2.47,1.92,7.43v30.9h-7.41V25a6.18,6.18,0,0,0-.83-3.71,2.86,2.86,0,0,0-2.4-1,4,4,0,0,0-2.21.74,7,7,0,0,0-1.95,2V55.63h-7.41Z"/><path d="M206.69,56.07a10.52,10.52,0,0,1-4.61-1,8.56,8.56,0,0,1-3.39-3,15.25,15.25,0,0,1-2.08-5.26,36.51,36.51,0,0,1-.7-7.72V31.49a32.7,32.7,0,0,1,.57-6.57,19.42,19.42,0,0,1,1.49-4.6,9.82,9.82,0,0,1,2.14-2.95,9.7,9.7,0,0,1,2.51-1.65,8.91,8.91,0,0,1,2.56-.73,18.58,18.58,0,0,1,2.36-.17,12.34,12.34,0,0,1,3.84.6,8,8,0,0,1,3.25,2.06,10.23,10.23,0,0,1,2.24,3.88,18.76,18.76,0,0,1,.84,6.06c0,.82,0,1.65-.08,2.49s-.11,1.67-.19,2.48-.18,1.59-.31,2.36-.26,1.46-.39,2.11H203.35V41a42.39,42.39,0,0,0,.2,4.44,10.46,10.46,0,0,0,.69,2.9,3.29,3.29,0,0,0,1.32,1.58,4.18,4.18,0,0,0,2.1.48,3.18,3.18,0,0,0,1.31-.28,2.73,2.73,0,0,0,1.13-.92,5.23,5.23,0,0,0,.78-1.71,10.53,10.53,0,0,0,.29-2.66V43.54h6.18v1.55c0,3.83-.91,6.61-2.74,8.36S210.15,56.07,206.69,56.07Zm4.1-24.19q0-.33.06-.87c0-.36,0-.74,0-1.13s0-.77,0-1.15v-1A12.87,12.87,0,0,0,210,22a3,3,0,0,0-2.78-1.76,3.18,3.18,0,0,0-1.7.46,3.22,3.22,0,0,0-1.2,1.52,10.66,10.66,0,0,0-.71,2.83,35.16,35.16,0,0,0-.23,4.36v2.47Z"/></svg>
