<svg xmlns="http://www.w3.org/2000/svg" viewBox="0 0 204.76 57.39"><title>Georgia-Regular</title><path d="M40.81,27.8c-.47.06-1.1.15-1.89.28a7.43,7.43,0,0,0-1.92.54,2.59,2.59,0,0,0-1.24,1.25,4.46,4.46,0,0,0-.37,1.89V35c0,2.34,0,3.93,0,4.75s.07,1.49.11,2a44,44,0,0,1-7.77,2.69,31.77,31.77,0,0,1-7.58.94,20.39,20.39,0,0,1-7.68-1.49,19.3,19.3,0,0,1-6.45-4.26,20.38,20.38,0,0,1-4.42-6.77A23.26,23.26,0,0,1,0,24a24.15,24.15,0,0,1,1.57-8.81A20.72,20.72,0,0,1,6,8.09a19.54,19.54,0,0,1,6.63-4.56A21.08,21.08,0,0,1,20.89,1.9,20,20,0,0,1,27,2.75a22.46,22.46,0,0,1,4.6,2.05l1.2-2h2.35l.26,14.53H33a40.7,40.7,0,0,0-1.53-4.73,16.58,16.58,0,0,0-2.34-4.17,11,11,0,0,0-3.51-2.95,10.41,10.41,0,0,0-4.94-1.1,12,12,0,0,0-5.6,1.28,12.24,12.24,0,0,0-4.29,3.8,17.82,17.82,0,0,0-2.75,6.07,31.34,31.34,0,0,0-1,8.12A28.55,28.55,0,0,0,8,31.12a18.83,18.83,0,0,0,2.78,6.05,13.23,13.23,0,0,0,4.54,4.11,12.63,12.63,0,0,0,6.19,1.49A13.38,13.38,0,0,0,26.26,42a8.41,8.41,0,0,0,3-1.67,22.43,22.43,0,0,0,.25-3.07c0-1,0-1.92,0-2.64V32.31a6.4,6.4,0,0,0-.34-2.18,2.3,2.3,0,0,0-1.39-1.39,9.73,9.73,0,0,0-2.62-.66c-1.1-.15-2-.24-2.59-.28V25.66H40.81Z"/><path d="M69,37.59a14.85,14.85,0,0,1-4.86,5.51,12.28,12.28,0,0,1-7,2A14.24,14.24,0,0,1,51,43.92a12,12,0,0,1-4.32-3.34,14.14,14.14,0,0,1-2.53-4.93,20.6,20.6,0,0,1-.84-5.94,17.73,17.73,0,0,1,.89-5.53,15.51,15.51,0,0,1,2.63-4.87A12.62,12.62,0,0,1,51,16a11.94,11.94,0,0,1,5.55-1.27,13.42,13.42,0,0,1,5.42,1,9.74,9.74,0,0,1,3.67,2.73,10.94,10.94,0,0,1,2,3.87,16.89,16.89,0,0,1,.66,4.83V29H49.16a22.8,22.8,0,0,0,.54,5.17,12.11,12.11,0,0,0,1.72,4.08,8.13,8.13,0,0,0,3,2.69,9.19,9.19,0,0,0,4.4,1,8.06,8.06,0,0,0,4.5-1.22,12,12,0,0,0,3.64-4.4Zm-6.47-11a23.17,23.17,0,0,0-.28-3.5,10.59,10.59,0,0,0-.89-3.13,6.06,6.06,0,0,0-1.85-2.19,5.07,5.07,0,0,0-3-.85,6.29,6.29,0,0,0-5.11,2.56,11.88,11.88,0,0,0-2.21,7.11Z"/><path d="M100.52,29.65a19.21,19.21,0,0,1-1,6,14.17,14.17,0,0,1-2.76,5,12.73,12.73,0,0,1-4.69,3.49,15.07,15.07,0,0,1-6,1.14,13.37,13.37,0,0,1-5.25-1,13.16,13.16,0,0,1-4.43-3,14.6,14.6,0,0,1-3-4.79,17,17,0,0,1-1.12-6.34A15.79,15.79,0,0,1,76.22,19a13.37,13.37,0,0,1,10.34-4.3,13.33,13.33,0,0,1,10,4.08Q100.52,22.85,100.52,29.65Zm-6.07.06A25.67,25.67,0,0,0,94,25.06a14.4,14.4,0,0,0-1.32-4.14A8.19,8.19,0,0,0,90.23,18a6.24,6.24,0,0,0-3.73-1.1A6.61,6.61,0,0,0,82.64,18a8.26,8.26,0,0,0-2.6,3,13.87,13.87,0,0,0-1.32,4.08,27.31,27.31,0,0,0-.38,4.42,28.06,28.06,0,0,0,.45,5.2A15.06,15.06,0,0,0,80.25,39,8.3,8.3,0,0,0,82.76,42,6.31,6.31,0,0,0,86.5,43a6.53,6.53,0,0,0,5.81-3.55Q94.45,36,94.45,29.71Z"/><path d="M126.8,19.22a4.85,4.85,0,0,1-.74,2.65A2.48,2.48,0,0,1,123.81,23a3.46,3.46,0,0,1-2.51-.85,2.61,2.61,0,0,1-.86-1.88,6,6,0,0,1,.1-1.17c.07-.35.13-.7.19-1.05a6.49,6.49,0,0,0-3.22,1.11,9.46,9.46,0,0,0-3.13,3.16V39.17a3.2,3.2,0,0,0,.39,1.67,2.4,2.4,0,0,0,1.25,1,8,8,0,0,0,1.89.44c.77.09,1.44.16,2,.2v1.93H104.68V42.45l1.39-.12a5.17,5.17,0,0,0,1.24-.23,2.11,2.11,0,0,0,1.22-.92,3.33,3.33,0,0,0,.4-1.71V21.65a4.13,4.13,0,0,0-.43-1.79,3.53,3.53,0,0,0-1.19-1.4,4,4,0,0,0-1.31-.52,13.27,13.27,0,0,0-1.64-.22V15.79l9.6-.64.42.41v4.07h.14a13.18,13.18,0,0,1,4-3.6,8.62,8.62,0,0,1,4.08-1.24,4,4,0,0,1,3,1.21A4.45,4.45,0,0,1,126.8,19.22Z"/><path d="M154,41.4a8.55,8.55,0,0,1,1.85,2.52,8,8,0,0,1,.67,3.48,8.73,8.73,0,0,1-.9,3.91,8.84,8.84,0,0,1-2.76,3.18,15.23,15.23,0,0,1-4.69,2.14,25.26,25.26,0,0,1-6.73.76q-6.57,0-9.82-1.92a6.14,6.14,0,0,1-3.25-5.61,5.54,5.54,0,0,1,2.34-4.71,10.55,10.55,0,0,1,6-1.88v-.41a15.55,15.55,0,0,1-1.82-.66,7.07,7.07,0,0,1-1.61-.92A4.88,4.88,0,0,1,132,39.83a4.22,4.22,0,0,1-.47-2.07,4.35,4.35,0,0,1,1.1-2.85A8.55,8.55,0,0,1,136,32.67v-.44a11.35,11.35,0,0,1-4.37-3.39,7.76,7.76,0,0,1-1.55-4.79,8.51,8.51,0,0,1,3.06-6.74A11.61,11.61,0,0,1,141,14.68a13.61,13.61,0,0,1,2.62.26c.87.18,1.75.4,2.65.68h10.08v2.81h-6.8v.17a8.5,8.5,0,0,1,1.61,2.79,9.12,9.12,0,0,1,.53,3,8.17,8.17,0,0,1-3.09,6.44,10.74,10.74,0,0,1-7.19,2.64h-3.55a4.34,4.34,0,0,0-1.4.85A2.06,2.06,0,0,0,135.7,36a2.14,2.14,0,0,0,.62,1.65,3.29,3.29,0,0,0,1.49.78,9.88,9.88,0,0,0,2,.29c.75,0,1.53.07,2.33.09s2,.08,3.53.17,2.55.16,3.18.18a7.51,7.51,0,0,1,2.71.65A8.48,8.48,0,0,1,154,41.4Zm-2.28,7.09a4.54,4.54,0,0,0-.76-2.7,3.86,3.86,0,0,0-2.32-1.43c-.54-.08-1.67-.17-3.37-.27s-3.67-.14-5.91-.14a8.08,8.08,0,0,0-4.5,2.06,5.3,5.3,0,0,0-1.33,3.74,4.62,4.62,0,0,0,.43,2,4.8,4.8,0,0,0,1.53,1.73,8.29,8.29,0,0,0,2.75,1.24,15.93,15.93,0,0,0,4.22.49,12.1,12.1,0,0,0,6.78-1.66A5.63,5.63,0,0,0,151.73,48.49ZM146.1,24.26a9.53,9.53,0,0,0-1.39-5.47,4.48,4.48,0,0,0-3.91-2,4.63,4.63,0,0,0-2.36.57A4.37,4.37,0,0,0,136.85,19a6.7,6.7,0,0,0-.84,2.32,15.27,15.27,0,0,0-.25,2.8,9.07,9.07,0,0,0,1.42,5.3,4.31,4.31,0,0,0,3.68,2.06,4.39,4.39,0,0,0,3.88-2A9,9,0,0,0,146.1,24.26Z"/><path d="M173.82,44.38H159.87V42.45l1.39-.12a5.26,5.26,0,0,0,1.25-.23,2.14,2.14,0,0,0,1.22-.92,3.33,3.33,0,0,0,.39-1.71V21.65a3.56,3.56,0,0,0-.42-1.72,3.88,3.88,0,0,0-1.19-1.3,5.68,5.68,0,0,0-1.61-.6,12.71,12.71,0,0,0-1.94-.31V15.79l10.2-.64.41.41V39.11a3.34,3.34,0,0,0,.39,1.7,2.41,2.41,0,0,0,1.24,1,11.48,11.48,0,0,0,1.25.42,7.55,7.55,0,0,0,1.37.22ZM170.16,3.75a4.32,4.32,0,0,1-1.1,2.92,3.51,3.51,0,0,1-5.31,0A3.87,3.87,0,0,1,162.66,4a4,4,0,0,1,1.09-2.81,3.43,3.43,0,0,1,2.6-1.2,3.63,3.63,0,0,1,2.74,1.13A3.69,3.69,0,0,1,170.16,3.75Z"/><path d="M204.76,43.86c-.92.33-1.73.6-2.42.8A8.13,8.13,0,0,1,200,45a5.78,5.78,0,0,1-3.65-1.07,4.89,4.89,0,0,1-1.74-3.12h-.18A14.22,14.22,0,0,1,190.33,44a11.38,11.38,0,0,1-5.26,1.12,7.49,7.49,0,0,1-5.35-2,6.9,6.9,0,0,1-2.09-5.22,8.73,8.73,0,0,1,.47-3,7.11,7.11,0,0,1,1.4-2.37A6.91,6.91,0,0,1,181.44,31a17.73,17.73,0,0,1,2.25-1.1Q185,29.39,189,28a39.72,39.72,0,0,0,5.43-2.11V23a11.74,11.74,0,0,0-.16-1.47,6.29,6.29,0,0,0-.69-2A5.9,5.9,0,0,0,192,17.62a5,5,0,0,0-3-.8,6.87,6.87,0,0,0-2.51.45,4.64,4.64,0,0,0-1.63.95,8.41,8.41,0,0,0,.28,1.73,8.76,8.76,0,0,1,.28,2.11,2.55,2.55,0,0,1-.92,1.88,3.68,3.68,0,0,1-2.56.85,2.41,2.41,0,0,1-2.16-1,4.09,4.09,0,0,1,.27-4.91,9.66,9.66,0,0,1,2.47-2.2,13.3,13.3,0,0,1,3.19-1.39,12.61,12.61,0,0,1,3.67-.57,24.46,24.46,0,0,1,4.29.33,7.93,7.93,0,0,1,3.32,1.45,6.73,6.73,0,0,1,2.27,2.95A12.52,12.52,0,0,1,200,24.2q0,4.18-.09,7.43t-.09,7.07a3.64,3.64,0,0,0,.4,1.82,3.14,3.14,0,0,0,1.22,1.14,2.91,2.91,0,0,0,1.39.29q.94,0,1.95,0ZM194.53,28.39c-1.66.49-3.11,1-4.36,1.44a17.3,17.3,0,0,0-3.49,1.76A7.74,7.74,0,0,0,184.37,34a6,6,0,0,0-.85,3.25,4.58,4.58,0,0,0,1.27,3.58A4.68,4.68,0,0,0,188,41.92a6.62,6.62,0,0,0,3.66-1,10.78,10.78,0,0,0,2.67-2.39Z"/></svg>
