<svg xmlns="http://www.w3.org/2000/svg" viewBox="0 0 247.91 73.14"><title>GreatVibes-Regular</title><path d="M12.36,23A27.12,27.12,0,0,0,9.48,34.14q0,10.14,7,12.42a16.23,16.23,0,0,0,4.17.54,17.63,17.63,0,0,0,4.29-.54,25.62,25.62,0,0,0,7.74-3.42q3.42-2.28,4.32-4.38,2.4-5.58,5.16-5.58A1.88,1.88,0,0,1,44,34.74a2.42,2.42,0,0,1,.12,1.32,34.36,34.36,0,0,1-2.58,9.27,88.34,88.34,0,0,1-5.58,10.53,55.57,55.57,0,0,1,13.14,1.56q1.26.3,1.26.84t-1.74.24a50.2,50.2,0,0,0-11.94-1.08H35.1a35.73,35.73,0,0,1-9.75,9.33A39.63,39.63,0,0,1,13.5,72.3a21.76,21.76,0,0,1-5.4.84,11.08,11.08,0,0,1-3.72-.54Q0,71,0,68.34a4,4,0,0,1,.42-1.68Q2,63.06,8.94,60a41.26,41.26,0,0,1,11-3.18,103,103,0,0,1,13-1A50.79,50.79,0,0,0,39,41.1l.24-1A34.85,34.85,0,0,1,32.73,45a31.42,31.42,0,0,1-6.33,3,24.44,24.44,0,0,1-7.11,1.38,14,14,0,0,1-4.89-.78,11.7,11.7,0,0,1-6.24-5.28,18.77,18.77,0,0,1-2.58-10A30,30,0,0,1,8.64,20.76q-4-4.08-4-8.67A12.93,12.93,0,0,1,8.4,3.36q.72-.78,1-.57t-.27,1a12,12,0,0,0-2.7,7.26A11.91,11.91,0,0,0,9.6,19a25.06,25.06,0,0,1,1.32-2.34A31.09,31.09,0,0,1,23.64,4.86,26.59,26.59,0,0,1,35.82,1.62a22.08,22.08,0,0,1,3.24.24Q46.8,3.06,49.5,8.22a9.28,9.28,0,0,1,1.08,4.41,10.51,10.51,0,0,1-1.5,5.07q-3.36,5.82-11.76,8.16a33,33,0,0,1-9.06,1.26Q18.54,27.12,12.36,23ZM3.06,68.76q0,1.68,2.88,2.28a8.65,8.65,0,0,0,2.1.24q4.26,0,10.8-3.06A31.69,31.69,0,0,0,32,57.48a83.49,83.49,0,0,0-11,1,33,33,0,0,0-13,5Q3.06,66.54,3.06,68.76ZM37.2,3.48A21.25,21.25,0,0,0,26.28,7,33.94,33.94,0,0,0,13.14,21.42a17.31,17.31,0,0,0,6.51,3.06,26.35,26.35,0,0,0,5.91.9q12.66,0,19.14-6.78,3.24-3.48,3.24-7,0-5.52-6.18-7.44A15.07,15.07,0,0,0,37.2,3.48Z"/><path d="M56.28,26.64q0,2.7-3.42,5.1,1.2.06,3.21.06t5.07-.3a2.23,2.23,0,0,1,.12,1,6.14,6.14,0,0,1-.72,2.31q-.72,1.53-1.29,2.64l-1.08,2.1q-.51,1-1.14,2.43T56,44.58q-1.5,4.56.48,4.56,2.52,0,7.44-10,.42-.78.69-.6a.53.53,0,0,1,.27.45,8.39,8.39,0,0,1-.78,1.86q-.78,1.59-1.68,3.27A22.5,22.5,0,0,1,59.58,48q-2.28,2.76-4.38,2.76-2.34,0-3.24-2.82a5.46,5.46,0,0,1-.18-1.62,8.6,8.6,0,0,1,.69-2.88,31.59,31.59,0,0,1,2.19-4.38q1.5-2.58,1.68-3a2.34,2.34,0,0,0,.18-.87q0-1.86-4.8-2L51,35.1Q47.22,45,43.74,48.36q-.6.54-.6-.36a1,1,0,0,1,.12-.42,46,46,0,0,0,5.82-10.5A57,57,0,0,0,52.5,25.56q.36-1.86,1.68-1.86t1.92,1.68A4,4,0,0,1,56.28,26.64Z"/><path d="M66.42,41.46A11.87,11.87,0,0,0,65.58,46a4.32,4.32,0,0,0,.75,2.67,2.51,2.51,0,0,0,2.13,1q5.46,0,9.9-10.26.42-1,1-.84a.28.28,0,0,1,.24.3A25.2,25.2,0,0,1,78.27,42a25.32,25.32,0,0,1-2.73,4.71q-3.06,4.2-7.56,4.2a5.78,5.78,0,0,1-4.08-1.56,5.53,5.53,0,0,1-1.68-4.26,14.65,14.65,0,0,1,1.29-5.73A21.94,21.94,0,0,1,67,33.75a13.47,13.47,0,0,1,5.1-3.81,6.62,6.62,0,0,1,2.64-.6,4.14,4.14,0,0,1,2.34.72,2.4,2.4,0,0,1,1,1.86q0,3.6-4.32,6.9a12.86,12.86,0,0,1-3.72,1.83A12.59,12.59,0,0,1,66.42,41.46Zm10.08-9.6q0-1.2-1-1.2-1.68,0-5.1,4.14a30.85,30.85,0,0,0-3.6,5.64,9.48,9.48,0,0,0,3-.72A11.42,11.42,0,0,0,73.2,37.8Q76.5,35,76.5,31.86Z"/><path d="M93.72,39.33A25.19,25.19,0,0,0,91.35,45,15.87,15.87,0,0,0,91,48.09q0,1.17.9,1.17,1.14,0,2.82-2.1a42.68,42.68,0,0,0,4.86-8q.24-.54.54-.6.48-.18.48.36a1.89,1.89,0,0,1-.18.72q-5.52,11.16-9.3,11.16a3.24,3.24,0,0,1-2.82-1.68,4.64,4.64,0,0,1-.54-2.4,14.09,14.09,0,0,1,.6-3.66q-4.8,7.74-8.28,7.74a2.78,2.78,0,0,1-1.74-.6Q76.5,49,76.5,45.9,76.5,40,81.6,34a13.24,13.24,0,0,1,7.08-4.38,8.5,8.5,0,0,1,2.16-.3,6.37,6.37,0,0,1,4.68,1.92,1.17,1.17,0,0,1,.36,1.26.83.83,0,0,1-1,.48A2.77,2.77,0,0,0,92,30.78q-2.58,0-6.36,4.08a32.82,32.82,0,0,0-4,5.64q-2.34,3.9-2.34,6.24t1.5,2.34q3.6,0,9.42-11a13.81,13.81,0,0,1,1.92-3,2.63,2.63,0,0,1,2-.81,10.07,10.07,0,0,1,1.23.18,3.79,3.79,0,0,0,1.47.06A23,23,0,0,0,93.72,39.33Z"/><path d="M98,45.9q0-5,4.8-16.68H99.72a.38.38,0,0,1-.39-.33,1,1,0,0,1,.06-.66.48.48,0,0,1,.45-.33h3.6q2.16-4.74,4-7.92a14,14,0,0,1,3.42-4.29,4.91,4.91,0,0,1,2.25-1.11,2.91,2.91,0,0,1,1,.12,2.72,2.72,0,0,1,1.38,2.73,12.26,12.26,0,0,1-1.38,5q-1.38,2.94-2.7,5.46h2.88a.38.38,0,0,1,.39.33,1,1,0,0,1-.06.66.48.48,0,0,1-.45.33H110.7a43.58,43.58,0,0,1-8,9.9l-1.38,6.12a6.79,6.79,0,0,0-.18,1.53,3.21,3.21,0,0,0,.42,1.53,1.4,1.4,0,0,0,1.32.78,4.69,4.69,0,0,0,2.28-.72q2.88-2.16,6.36-9.06a1.13,1.13,0,0,1,.57-.66q.33-.12.39.15a1.69,1.69,0,0,1-.18.87,55.85,55.85,0,0,1-3.12,5.88q-3.24,5.22-6.9,5.22a3.88,3.88,0,0,1-3.06-1.38A5.11,5.11,0,0,1,98,45.9Zm11.28-16.68H106.5q-.72,1.68-3.24,8A45.86,45.86,0,0,0,109.32,29.22Zm.78-1.32q4-7.08,4-9.84,0-1.2-.42-1.2-.66,0-2,1.92a67.73,67.73,0,0,0-4.53,9.12Z"/><path d="M156.6,56.46a5,5,0,0,1-1.08-.12q-2.88-.54-2.88-5.1,0-7.38,7.44-25.14A72.07,72.07,0,0,0,164.34,13a19.36,19.36,0,0,0,.54-3.93,17.24,17.24,0,0,0-.12-2.31,4.58,4.58,0,0,0-2-3.66,13.91,13.91,0,0,0-6.72-1.62,20.25,20.25,0,0,0-8.22,1.92,44.91,44.91,0,0,0-8.13,4.68,37,37,0,0,0-6.93,6.57,27.6,27.6,0,0,0-4.65,8,22.12,22.12,0,0,0-1.53,7.53,14.09,14.09,0,0,0,.24,2.64,10.46,10.46,0,0,0,3.6,6.18,9.91,9.91,0,0,0,6.24,2q5,0,9.45-4.44t4.41-9.42a5.75,5.75,0,0,0-1.08-3.9,3,3,0,0,0-2.22-1.2,8.17,8.17,0,0,0-2.28.33q-1.14.33-1.14-.06t1.38-1a6.86,6.86,0,0,1,2.88-.63,4.65,4.65,0,0,1,2.76.9,6.46,6.46,0,0,1,2.34,5.46,12.17,12.17,0,0,1-2.79,7.35,21.58,21.58,0,0,1-6.87,5.94,16.62,16.62,0,0,1-8.07,2.25A11.22,11.22,0,0,1,128,39.69a14.13,14.13,0,0,1-4.56-7.83,15,15,0,0,1-.3-3.06A21.41,21.41,0,0,1,125,20.58a28.27,28.27,0,0,1,5.37-8.25A37,37,0,0,1,138,6a46.75,46.75,0,0,1,8.64-4.23A24.12,24.12,0,0,1,155.22,0a20.37,20.37,0,0,1,7.32,1.26q5.82,2.52,5.82,10.68,0,6-4.32,14.88a94.31,94.31,0,0,0-4.8,11.88q-3.12,9.42-3.12,13.08,0,2.76,1.86,2.76,3.72,0,13-9.66A53.56,53.56,0,0,0,181.26,30a22.7,22.7,0,0,0,2.4-9.48,9.92,9.92,0,0,0-.36-3.21q-.36-.93-.48-1.2a1.1,1.1,0,0,0-.48-.48,1.32,1.32,0,0,0-.48-.21,15.76,15.76,0,0,0-1.74-.39q-.9-.15-1.05-.81t.63-.78l1.14.12a8.67,8.67,0,0,1,4.8,3.9,7.44,7.44,0,0,1,1.14,4.17,18,18,0,0,1-1.14,5.73,52.45,52.45,0,0,1-8.52,14.43,53.83,53.83,0,0,1-11.37,10.89Q160.14,56.46,156.6,56.46Z"/><path d="M187.92,49.38a3.69,3.69,0,0,0,2.4-1.14Q192.54,46,196,39.18q.42-.9.84-.54a.54.54,0,0,1,.12.39,4.83,4.83,0,0,1-.48,1.32l-.87,1.89q-.39.84-1.5,2.73a19.21,19.21,0,0,1-2,2.91q-2.46,2.82-4.65,2.82a3.63,3.63,0,0,1-3.15-1.32,4.88,4.88,0,0,1-1-2.94,9.47,9.47,0,0,1,.78-3.54l3.84-9.78a3.12,3.12,0,0,0,.12-1,2.9,2.9,0,0,0-.72-1.56l3.3-.06q1.38,0,1.62.51t-.36,1.59l-4.8,11.22a9.41,9.41,0,0,0-1,3.78Q186.06,49.38,187.92,49.38Zm5.88-22a2.79,2.79,0,0,1-1.86.72,2,2,0,0,1-1.62-.72,2.2,2.2,0,0,1-.48-1.74,2.91,2.91,0,0,1,1-1.74,2.79,2.79,0,0,1,1.86-.72,2.09,2.09,0,0,1,1.65.72,2,2,0,0,1,.45,1.74A2.91,2.91,0,0,1,193.8,27.36Z"/><path d="M211.14,34.38q0-3.42-2.82-3.42h-.48q-1.08.12-1.26-.42t.54-.72a4,4,0,0,1,1.56-.06,5.21,5.21,0,0,1,4.26,2.94,6.35,6.35,0,0,1,.78,2.94,16.65,16.65,0,0,1-3.78,10.14,11.7,11.7,0,0,1-9.78,5,5.13,5.13,0,0,1-3.6-1.26,4.33,4.33,0,0,1-1.38-3.36q0-2.52,2.88-8.52-4.92,9.3-6.36,10.68-.6.54-.6-.36a1,1,0,0,1,.12-.42q2.1-2.76,8.37-15t8.79-16c1.35-2,2.68-2.94,4-2.94h.36l1.05.18a3.79,3.79,0,0,0,1.47.06,77.14,77.14,0,0,0-6.24,8.4q-10.56,15.66-10.56,23.4,0,3.18,2,3.6a1.33,1.33,0,0,0,.42.06q1.86,0,4.65-3.33a29.77,29.77,0,0,0,4.59-7.59A9.76,9.76,0,0,0,211.14,34.38Z"/><path d="M219.35,41.46a11.87,11.87,0,0,0-.83,4.56,4.25,4.25,0,0,0,.75,2.67,2.49,2.49,0,0,0,2.13,1q5.44,0,9.89-10.26.42-1,1-.84a.28.28,0,0,1,.24.3A25.94,25.94,0,0,1,231.21,42a26.49,26.49,0,0,1-2.73,4.71q-3.06,4.2-7.56,4.2a5.79,5.79,0,0,1-4.09-1.56,5.53,5.53,0,0,1-1.68-4.26,14.65,14.65,0,0,1,1.29-5.73A21.71,21.71,0,0,1,220,33.75a13.37,13.37,0,0,1,5.09-3.81,6.62,6.62,0,0,1,2.64-.6,4.17,4.17,0,0,1,2.35.72,2.42,2.42,0,0,1,1,1.86q0,3.6-4.32,6.9A12.92,12.92,0,0,1,223,40.65,12.71,12.71,0,0,1,219.35,41.46Zm10.09-9.6c0-.8-.33-1.2-1-1.2q-1.69,0-5.1,4.14a30.37,30.37,0,0,0-3.61,5.64,9.59,9.59,0,0,0,3-.72,11.49,11.49,0,0,0,3.38-1.92C228.33,35.92,229.44,33.94,229.44,31.86Z"/><path d="M236.63,49.56a8.47,8.47,0,0,0,1.08.12q2.4,0,4.74-2.82A59.4,59.4,0,0,0,247,39a.43.43,0,0,1,.42-.3q.54-.06.54.42a2.77,2.77,0,0,1-.27.69q-.27.57-.51,1.14t-.78,1.65q-.54,1.08-.93,1.74t-1,1.62a7,7,0,0,1-1.2,1.5L242,48.78a5.69,5.69,0,0,1-2.4,1.44,7.26,7.26,0,0,1-4.32.12,6.28,6.28,0,0,1-2.46.6q-4.26,0-5.16-3.36a8.53,8.53,0,0,1-.18-1.89,3.55,3.55,0,0,1,.75-2.13,2.26,2.26,0,0,1,1.59-1.08Q232.85,36.66,235,32q2.4-5.1,5.58-5.1a3.77,3.77,0,0,1,1.65.39q.81.39.6.87t-.87.18a2.84,2.84,0,0,0-1.14-.3,1.86,1.86,0,0,0-.84.18q-2,1-2,4.14a6.83,6.83,0,0,0,.48,2.76q.48,1.08,1.08,2.34a13.37,13.37,0,0,1,1.38,5.1,7,7,0,0,1-1.26,3.9A11.19,11.19,0,0,1,236.63,49.56Zm-6.54-2a5.54,5.54,0,0,0,.06.78,2.1,2.1,0,0,0,2.22,1.62,2.67,2.67,0,0,0,1.2-.24,5.28,5.28,0,0,1-2.4-4.5A3.27,3.27,0,0,0,230.09,47.52Zm4.5,1.62q2.64-2,2.64-6.6a42.11,42.11,0,0,0-.42-5.1,41.9,41.9,0,0,1-.42-4.38,13.19,13.19,0,0,1,.06-1.56q-4.56,9.12-5.64,11.1,1.26,0,1.26,1.8Q232.07,47.94,234.59,49.14Z"/></svg>
