<svg xmlns="http://www.w3.org/2000/svg" viewBox="0 0 321.84 40.56"><title>Inconsolata-Regular</title><path d="M0,39.9V36.36H7.38V6.06h-7V2.52H19V6.06H11.58V36.42h7.74V39.9Z"/><path d="M29.46,12.48h4.2v4.86a12.63,12.63,0,0,1,4.08-4A9.86,9.86,0,0,1,43,11.82a7.06,7.06,0,0,1,5.85,2.79Q51,17.4,51,23.28V39.9H46.8V23.4q0-4.08-1.38-5.94a4.34,4.34,0,0,0-3.66-1.86A7.51,7.51,0,0,0,38,16.68a8.86,8.86,0,0,0-3.12,3,8.09,8.09,0,0,0-1.23,4.41V39.9h-4.2Z"/><path d="M79.62,33.3l2.52,2.94a13,13,0,0,1-9.9,4.32,13.56,13.56,0,0,1-7.08-1.86,13.12,13.12,0,0,1-4.89-5.13,15.19,15.19,0,0,1-1.77-7.35,15,15,0,0,1,1.77-7.32,13.18,13.18,0,0,1,4.89-5.1,13.45,13.45,0,0,1,7-1.86,13.23,13.23,0,0,1,6,1.35A11.56,11.56,0,0,1,82.56,17l-2.7,2.64-.06.06a10.88,10.88,0,0,0-3.57-3.21,9.93,9.93,0,0,0-4.53-.93,7.9,7.9,0,0,0-4.35,1.29,9.17,9.17,0,0,0-3.21,3.63,11.67,11.67,0,0,0-1.2,5.4,12.17,12.17,0,0,0,1.23,5.52,9.39,9.39,0,0,0,3.42,3.84,9,9,0,0,0,4.89,1.38A9.27,9.27,0,0,0,79.62,33.3Zm.06-13.44-.24.24-.3-.3Q79.14,19.44,79.68,19.86ZM80,20a1.57,1.57,0,0,0-.27-.18l.12-.12Q80.1,20.16,80,20Z"/><path d="M93.6,38.58a12.25,12.25,0,0,1-4.5-5,16.28,16.28,0,0,1-1.62-7.38,16.28,16.28,0,0,1,1.62-7.38,12.46,12.46,0,0,1,4.5-5.07,12.6,12.6,0,0,1,13.08,0,12.46,12.46,0,0,1,4.5,5.07,16.28,16.28,0,0,1,1.62,7.38,16.28,16.28,0,0,1-1.62,7.38,12.25,12.25,0,0,1-4.5,5,12.78,12.78,0,0,1-13.08,0Zm10.71-3.18a9.23,9.23,0,0,0,2.88-3.81,13.71,13.71,0,0,0,1-5.49A12.21,12.21,0,0,0,106,18.45a7.19,7.19,0,0,0-11.64,0A12.21,12.21,0,0,0,92,26.1a13.71,13.71,0,0,0,1,5.49A9.23,9.23,0,0,0,96,35.4a7,7,0,0,0,8.34,0Z"/><path d="M119.46,12.48h4.2v4.86a12.63,12.63,0,0,1,4.08-4,9.86,9.86,0,0,1,5.22-1.5,7.06,7.06,0,0,1,5.85,2.79Q141,17.4,141,23.28V39.9h-4.2V23.4q0-4.08-1.38-5.94a4.34,4.34,0,0,0-3.66-1.86A7.51,7.51,0,0,0,128,16.68a8.86,8.86,0,0,0-3.12,3,8.09,8.09,0,0,0-1.23,4.41V39.9h-4.2Z"/><path d="M169.41,27.15a6,6,0,0,1,2.13,4.77,7.67,7.67,0,0,1-2.91,6.15q-2.91,2.43-8.43,2.43a16.51,16.51,0,0,1-11.64-4.32L151,32.1,151,32l.06.06a14.52,14.52,0,0,0,3.84,3.6,10.39,10.39,0,0,0,5.4,1.2,9.53,9.53,0,0,0,5.1-1.17,3.62,3.62,0,0,0,1.86-3.21,3.48,3.48,0,0,0-1.5-2.88,19.57,19.57,0,0,0-5.4-2.4q-10.32-2.94-10.32-8.52a5.87,5.87,0,0,1,2.61-5q2.61-1.86,7.47-1.86a16.5,16.5,0,0,1,6.27,1,13.43,13.43,0,0,1,4.65,3.27l-2.46,3-.06.06a8.61,8.61,0,0,0-3.57-3,10.77,10.77,0,0,0-4.71-1.11A8.78,8.78,0,0,0,156,16a2.77,2.77,0,0,0-1.65,2.52,3.51,3.51,0,0,0,1.68,2.76,20.16,20.16,0,0,0,6.06,2.52Q167.28,25.32,169.41,27.15ZM150.9,31.74a.62.62,0,0,1,.24.12L151,32Q150.84,31.74,150.9,31.74Zm.78.12q0,.24-.54,0l.18-.3.36.24Zm16.68-12.48-.18.24-.3-.3Q167.88,19,168.36,19.38Zm.33.12s-.07,0-.15,0a.7.7,0,0,1-.18-.12l.18-.18Q168.72,19.44,168.69,19.5Z"/><path d="M183.6,38.58a12.25,12.25,0,0,1-4.5-5,16.28,16.28,0,0,1-1.62-7.38,16.28,16.28,0,0,1,1.62-7.38,12.46,12.46,0,0,1,4.5-5.07,12.6,12.6,0,0,1,13.08,0,12.46,12.46,0,0,1,4.5,5.07,16.28,16.28,0,0,1,1.62,7.38,16.28,16.28,0,0,1-1.62,7.38,12.25,12.25,0,0,1-4.5,5,12.78,12.78,0,0,1-13.08,0Zm10.71-3.18a9.23,9.23,0,0,0,2.88-3.81,13.71,13.71,0,0,0,1.05-5.49A12.21,12.21,0,0,0,196,18.45a7.19,7.19,0,0,0-11.64,0A12.21,12.21,0,0,0,182,26.1a13.71,13.71,0,0,0,1.05,5.49A9.23,9.23,0,0,0,186,35.4a7,7,0,0,0,8.34,0Z"/><path d="M209.88,39.9V36.42H218V3.48h-7.74V0h12.12V36.42h8V39.9Z"/><path d="M258.75,14.94q3.09,3.06,3.09,10.38V39.9h-4.68V35.7q-2.52,4.86-9.36,4.86a11.12,11.12,0,0,1-7.14-2.07A6.69,6.69,0,0,1,238.08,33a7.49,7.49,0,0,1,1.86-5,11.93,11.93,0,0,1,5-3.33,19.76,19.76,0,0,1,6.93-1.17,48.09,48.09,0,0,1,6.18.36q-.36-4.62-2.43-6.51t-6.15-1.89a10.2,10.2,0,0,0-3.93.78,11,11,0,0,0-3.45,2.28L240,15.72a13.25,13.25,0,0,1,9.78-3.84Q255.66,11.88,258.75,14.94Zm-3.51,19.71q2.58-2.61,2.82-7.53a37.92,37.92,0,0,0-5.82-.42,14.61,14.61,0,0,0-7.2,1.5,4.91,4.91,0,0,0-2.64,4.56q0,4.5,5.82,4.5A9.42,9.42,0,0,0,255.24,34.65Z"/><path d="M291.78,37.38a14.27,14.27,0,0,1-8.7,2.94q-4.56,0-6.45-2.76t-1.89-9q0-1,.12-3.54l.54-9h-6.06V12.48h6.3l.42-7.32,4.8-.78.6-.06.06.36a8.45,8.45,0,0,0-.63,1A3.67,3.67,0,0,0,280.62,7L280,12.48h9.12V16h-9.36l-.54,9.3q-.12,2.4-.12,3.18,0,4.8,1.11,6.51a3.94,3.94,0,0,0,3.57,1.71,8.1,8.1,0,0,0,3.3-.66,18,18,0,0,0,3.42-2.1Z"/><path d="M318.75,14.94q3.09,3.06,3.09,10.38V39.9h-4.68V35.7q-2.52,4.86-9.36,4.86a11.12,11.12,0,0,1-7.14-2.07A6.69,6.69,0,0,1,298.08,33a7.49,7.49,0,0,1,1.86-5,11.93,11.93,0,0,1,5-3.33,19.76,19.76,0,0,1,6.93-1.17,48.09,48.09,0,0,1,6.18.36q-.36-4.62-2.43-6.51t-6.15-1.89a10.2,10.2,0,0,0-3.93.78,11,11,0,0,0-3.45,2.28L300,15.72a13.25,13.25,0,0,1,9.78-3.84Q315.66,11.88,318.75,14.94Zm-3.51,19.71q2.58-2.61,2.82-7.53a37.92,37.92,0,0,0-5.82-.42,14.61,14.61,0,0,0-7.2,1.5,4.91,4.91,0,0,0-2.64,4.56q0,4.5,5.82,4.5A9.42,9.42,0,0,0,315.24,34.65Z"/></svg>
