<svg xmlns="http://www.w3.org/2000/svg" viewBox="0 0 290.1 43.95"><title>IndieFlower</title><path d="M4.75,41.48c-.2-1.44-.38-2.95-.56-4.54s-.34-3.17-.5-4.77S3.36,29,3.16,27.42s-.41-3.16-.64-4.57c-.12-.58-.32-1.37-.62-2.34s-.57-2-.85-3.14S.54,15.14.32,14A17.09,17.09,0,0,1,0,10.9c.47-.63.94-.74,1.41-.35a6.05,6.05,0,0,1,1.4,2.19,30.54,30.54,0,0,1,1.38,4.11c.45,1.66.86,3.42,1.23,5.3s.72,3.81,1,5.8.62,3.87.85,5.62.43,3.33.59,4.69a28.5,28.5,0,0,1,.23,3.11v.7a4.8,4.8,0,0,1-.05.67,1.1,1.1,0,0,1-.33.59,1.54,1.54,0,0,1-.79.38.68.68,0,0,1-.7-.2,8.39,8.39,0,0,1-.7-.74A4.13,4.13,0,0,1,5,42,5.13,5.13,0,0,1,4.75,41.48Z"/><path d="M10.9,20.86c0-.35.12-.58.38-.67a2.3,2.3,0,0,1,.85-.15.66.66,0,0,1,.5.17,1.17,1.17,0,0,1,.2.42,1.63,1.63,0,0,0,.18.43.43.43,0,0,0,.41.21,4.33,4.33,0,0,0,2-.64L18,19.22a28.41,28.41,0,0,1,2.93-1.41A7.94,7.94,0,0,1,24,17.17a6.93,6.93,0,0,1,3.67,1,11.47,11.47,0,0,1,3,2.73,18.31,18.31,0,0,1,2.25,3.81A33.6,33.6,0,0,1,34.45,29a30.87,30.87,0,0,1,.94,4.28,25.61,25.61,0,0,1,.29,3.6c0,.36,0,.88-.08,1.59a19.48,19.48,0,0,1-.3,2.11,5.66,5.66,0,0,1-.67,1.84,1.35,1.35,0,0,1-1.17.79l-.41,0a4.08,4.08,0,0,1-.59-.11,2.59,2.59,0,0,1-.5-.21.38.38,0,0,1-.2-.35,34.26,34.26,0,0,0,0-8.47,29.88,29.88,0,0,0-1.7-6.94,14.25,14.25,0,0,0-2.87-4.75,5,5,0,0,0-3.64-1.75,9.66,9.66,0,0,0-3.39.58,7.8,7.8,0,0,0-4.6,4.4,8.67,8.67,0,0,0-.68,3.45,20.2,20.2,0,0,0,.35,3.72c.24,1.23.5,2.46.8,3.69s.55,2.48.79,3.73A20.69,20.69,0,0,1,17.17,44a3.45,3.45,0,0,1-2.76-1.35,10.33,10.33,0,0,1-1.78-3.46,30.16,30.16,0,0,1-1.06-4.75c-.25-1.75-.43-3.48-.53-5.18s-.14-3.3-.14-4.81Z"/><path d="M37.91,30.41a20.36,20.36,0,0,1,.56-4.57,15.71,15.71,0,0,1,1.75-4.45A10.75,10.75,0,0,1,43.27,18a7.61,7.61,0,0,1,4.54-1.32,10.18,10.18,0,0,1,2.82.41,16.61,16.61,0,0,1,2.9,1.17c1,.51,2,1.11,3.1,1.79s2.22,1.43,3.43,2.25a18.35,18.35,0,0,0-.18-4.83,49.36,49.36,0,0,0-1.05-4.89C58.4,11,58,9.48,57.51,8.06a30.85,30.85,0,0,1-1-3.84,7.92,7.92,0,0,1-.06-2.81A1.76,1.76,0,0,1,57.89,0a9.82,9.82,0,0,1,2.73,3.31,26.46,26.46,0,0,1,2,4.95,54.9,54.9,0,0,1,1.35,6q.52,3.19.87,6.47c.24,2.19.42,4.32.56,6.39s.28,4,.44,5.71.3,3.22.44,4.45a7.58,7.58,0,0,0,.62,2.61,1.08,1.08,0,0,1-.68,1.17,4.09,4.09,0,0,1-1.38.24,1.31,1.31,0,0,1-1-.44,3.22,3.22,0,0,1-.65-1c-.15-.39-.3-.83-.44-1.31s-.28-.94-.43-1.35a5.19,5.19,0,0,0-.53-1,.91.91,0,0,0-.76-.41l-.33,0c-.13,0-.2,0-.2.09a22.15,22.15,0,0,1-2.61,3,18.58,18.58,0,0,1-7,4.25,12.61,12.61,0,0,1-3.95.64A5.74,5.74,0,0,1,43,42.25a13.18,13.18,0,0,1-2.81-3.52,16.89,16.89,0,0,1-1.7-4.34A17.2,17.2,0,0,1,37.91,30.41Zm3.63,1.05c.39,1.41.74,2.64,1.06,3.7a9.2,9.2,0,0,0,1.14,2.57,4.49,4.49,0,0,0,1.61,1.5,5.3,5.3,0,0,0,2.46.5,8.71,8.71,0,0,0,4-1.09,17.41,17.41,0,0,0,3.92-2.78,16.14,16.14,0,0,0,3-3.72,7.8,7.8,0,0,0,1.17-3.9v-1.4a24.07,24.07,0,0,0-5.71-4.37,10.9,10.9,0,0,0-4.66-1.35,6.5,6.5,0,0,0-3.57.91,8,8,0,0,0-2.52,2.46A11.16,11.16,0,0,0,42,27.89,12.93,12.93,0,0,0,41.54,31.46Z"/><path d="M69,8.73a.91.91,0,0,1,.42-.91,2.42,2.42,0,0,1,1.05-.2,1.54,1.54,0,0,1,1.08.5,5.34,5.34,0,0,1,1.12,1.26,3.05,3.05,0,0,1,.5,1.28c0,.47-.26.75-.88.82H72a7.55,7.55,0,0,1-1.46-.11,2.13,2.13,0,0,1-.91-.38,1.51,1.51,0,0,1-.47-.79A5.66,5.66,0,0,1,69,8.73Zm3,14.71v-.88q0-.64,0-1.35t0-1.35V19c-.16-1.21.2-1.81,1.06-1.81a1.68,1.68,0,0,1,1,.29,2.8,2.8,0,0,1,.76.88,28,28,0,0,0,.27,5.89c.29,1.89.62,3.77,1,5.62s.73,3.72,1.06,5.6a33.73,33.73,0,0,1,.5,5.86,3.16,3.16,0,0,1-.5,1.64,1.63,1.63,0,0,1-1.5.82c-.5,0-.94-.44-1.31-1.32a16.94,16.94,0,0,1-1-3.34c-.27-1.35-.51-2.84-.7-4.48s-.35-3.21-.44-4.72-.17-2.85-.21-4S72,23.87,72,23.44Z"/><path d="M79.86,28a18.82,18.82,0,0,1,.91-5.83,15,15,0,0,1,2.64-4.89,12.87,12.87,0,0,1,4.22-3.37,12.6,12.6,0,0,1,5.77-1.26,8.73,8.73,0,0,1,3.37,1.05,7.47,7.47,0,0,1,3.66,4.81,14.8,14.8,0,0,1,.35,3.28,6.37,6.37,0,0,1-1.23,3.81,10.69,10.69,0,0,1-3.1,2.84,16.84,16.84,0,0,1-4,1.76,14.8,14.8,0,0,1-4,.61H86.92a3.64,3.64,0,0,1-1.31-.23,2.05,2.05,0,0,1-.94-.71,2.28,2.28,0,0,1-.35-1.4,1.46,1.46,0,0,1,.08-.5c.06-.14.23-.24.5-.29a4.65,4.65,0,0,1,1.23,0c.55.07,1.29.19,2.23.35a7.74,7.74,0,0,0,2.37-.56A23.06,23.06,0,0,0,93.9,26a12.53,12.53,0,0,0,2.78-2,3.23,3.23,0,0,0,1.17-2.25,7.46,7.46,0,0,0-.38-2.32,5.84,5.84,0,0,0-1.14-2A6.07,6.07,0,0,0,94.54,16a4,4,0,0,0-2.31-.41,8.88,8.88,0,0,0-3.72,1.11,9.27,9.27,0,0,0-2.85,2.43,11.71,11.71,0,0,0-1.81,3.31,11.3,11.3,0,0,0-.65,3.81c0,1,0,2,.06,3.05a14.39,14.39,0,0,0,.44,3,9.82,9.82,0,0,0,1.23,2.81,7.78,7.78,0,0,0,2.46,2.37,15.15,15.15,0,0,0,4.07,1.7,29.05,29.05,0,0,0,6.1.85l10.49-.7a7.56,7.56,0,0,1-2.38,2.11,15.24,15.24,0,0,1-3,1.31,20.9,20.9,0,0,1-6.18,1,18.19,18.19,0,0,1-6.39-1.11,16.55,16.55,0,0,1-5.27-3.14,14.38,14.38,0,0,1-3.61-4.92A15.58,15.58,0,0,1,79.86,28Z"/><path d="M143.55,42.6c-.23-1.06-.41-1.94-.52-2.64s-.21-1.34-.27-1.9-.08-1.09-.08-1.56,0-1,0-1.52-.07-1.18-.15-1.9-.2-1.62-.35-2.67a2.25,2.25,0,0,0-.82-1.61,2.8,2.8,0,0,0-1.5-.47,8.79,8.79,0,0,0-1.75.12,10.51,10.51,0,0,1-1.7.14,2,2,0,0,1-1.26-.35,1.94,1.94,0,0,1-.53-1.52c0-.08.09-.19.26-.32a.85.85,0,0,1,.38-.21c.71-.08,1.39-.13,2.06-.15a5.22,5.22,0,0,0,1.78-.32,2.8,2.8,0,0,0,1.32-1,4.54,4.54,0,0,0,.47-2.23,26.76,26.76,0,0,1-.41-4.95,19.35,19.35,0,0,0-.15-3.43,2.36,2.36,0,0,0-1-1.82,4.92,4.92,0,0,0-3-.23h-.79l-1.17,0-1.18,0h-.79a2,2,0,0,1-.55.29l-.56.24h-.18a.35.35,0,0,1-.17.05l-.12-.05h-.12a2.44,2.44,0,0,1-.29-.53c-.12-.27-.19-.47-.23-.59v-.29A7.06,7.06,0,0,1,133,9.79a35.69,35.69,0,0,1,4.86-1.12Q140.69,8.2,144,8t6.71-.21a52.55,52.55,0,0,1,6.59.47,36.73,36.73,0,0,1,5.75,1.23,13.06,13.06,0,0,1,4.16,2.08A4.56,4.56,0,0,1,169,14.65a14.46,14.46,0,0,1-3.66-.47q-1.78-.46-3.6-1c-1.21-.4-2.43-.75-3.66-1.06a15.78,15.78,0,0,0-3.84-.47l-1.38,0-2.08-.06q-1.17,0-2.4.06a14.28,14.28,0,0,0-2.29.35,4.54,4.54,0,0,0-1.7.77,1.57,1.57,0,0,0-.64,1.31c0,.59,0,1.39-.12,2.41a27,27,0,0,0-.06,3.13,15,15,0,0,0,.41,3,3.39,3.39,0,0,0,1.29,2.05h2.23a53.53,53.53,0,0,1,7.12-.18,12.33,12.33,0,0,1,3.89.71c.79.35,1.07.75.85,1.2s-.87.87-2,1.26a23.47,23.47,0,0,1-4.66,1,45.86,45.86,0,0,1-7.14.27c.07,1.76.15,3.13.23,4.13s.17,1.78.26,2.34.19,1,.27,1.35.17.72.29,1.17a12.65,12.65,0,0,1,.29,1.82c.08.76.16,1.88.24,3.37a15.16,15.16,0,0,0-1.53-.15l-1.2,0a3.68,3.68,0,0,1-.76-.06C143.53,42.73,143.48,42.68,143.55,42.6Z"/><path d="M165.47,43.24a77.53,77.53,0,0,1-.73-8.29c-.1-2.75-.15-5.52-.15-8.29s0-5.53.12-8.26.09-5.47.06-8.2a.65.65,0,0,1,.35-.65,1.74,1.74,0,0,1,.82-.17,1.33,1.33,0,0,1,.94.38,3.55,3.55,0,0,1,.7.93,5.78,5.78,0,0,1,.44,1.12,4.05,4.05,0,0,1,.14.9q.36,8.38.47,14t0,9a44.13,44.13,0,0,1-.38,5.07,5.82,5.82,0,0,1-.67,2.23.92.92,0,0,1-1,.47Z"/><path d="M171.39,31.76a11,11,0,0,1,1.4-5.63,13.07,13.07,0,0,1,3.69-4,16.39,16.39,0,0,1,5.13-2.43,21.14,21.14,0,0,1,5.71-.79,7.28,7.28,0,0,1,2.85.55A11.1,11.1,0,0,1,192.69,21a11.81,11.81,0,0,1,2.13,2.22,17.07,17.07,0,0,1,1.62,2.61,13.93,13.93,0,0,1,1,2.73,10.41,10.41,0,0,1,.35,2.66,11.6,11.6,0,0,1-4.33,9.29A14.67,14.67,0,0,1,189,42.92a15.89,15.89,0,0,1-5.15.85,13.83,13.83,0,0,1-4.95-.85,12.14,12.14,0,0,1-3.93-2.37,10.65,10.65,0,0,1-2.61-3.78A13.07,13.07,0,0,1,171.39,31.76Zm2.87-.47a9.26,9.26,0,0,0,.67,3.49,8.9,8.9,0,0,0,1.88,2.9,9.06,9.06,0,0,0,2.84,2,8.46,8.46,0,0,0,3.51.73,6.13,6.13,0,0,0,2.44-.32,13.17,13.17,0,0,0,2.87-1.29,17.37,17.37,0,0,0,2.75-2,12.16,12.16,0,0,0,2.2-2.64,7.66,7.66,0,0,0,1.08-3A5.42,5.42,0,0,0,194,28a8.17,8.17,0,0,0-2.66-3A21.06,21.06,0,0,0,186,22.32a15.63,15.63,0,0,0-4,.56,13.15,13.15,0,0,0-3.78,1.67,9.65,9.65,0,0,0-2.81,2.81A7.06,7.06,0,0,0,174.26,31.29Z"/><path d="M219.79,38.09a15,15,0,0,1-4.72,4.42,8.36,8.36,0,0,1-4.51,1.11,7.52,7.52,0,0,1-4.05-1.55,13.49,13.49,0,0,1-3.28-3.52,20,20,0,0,1-3.13-10.19,17,17,0,0,1,.73-5.36,12,12,0,0,1,2.67-4.66c.62.23,1,.55,1.05.94a7.37,7.37,0,0,1,.12,1.35,8.45,8.45,0,0,1-.21,1.9c-.13.61-.28,1.22-.44,1.85s-.3,1.27-.44,1.93a10.64,10.64,0,0,0-.2,2.05,13.77,13.77,0,0,0,.17,1.9c.12.77.29,1.58.5,2.44a18.47,18.47,0,0,0,.85,2.54,11.43,11.43,0,0,0,1.26,2.29,8.21,8.21,0,0,0,1.61,1.7,3.2,3.2,0,0,0,2,.67,6,6,0,0,0,2.37-.61,13.66,13.66,0,0,0,2.64-1.56,9.72,9.72,0,0,0,2.1-2.1,4,4,0,0,0,.85-2.35l.36-7.62a.47.47,0,0,1,.23-.35c.16-.11.32-.22.5-.32a4.13,4.13,0,0,1,.56-.26,1.27,1.27,0,0,1,.41-.12q.81,0,1.11,1.05a18.52,18.52,0,0,1,.47,2.73c.11,1.11.25,2.29.41,3.54a15.61,15.61,0,0,0,.85,3.55,6.42,6.42,0,0,0,1.84,2.72,4.9,4.9,0,0,0,3.4,1.06,6.51,6.51,0,0,0,3.46-.91,4.91,4.91,0,0,0,1.87-2.26,7.69,7.69,0,0,0,.56-3.13,15.24,15.24,0,0,0-.47-3.46,18.84,18.84,0,0,0-1.17-3.31,15.82,15.82,0,0,0-1.61-2.75,1,1,0,0,1,0-.68.69.69,0,0,1,.32-.29,1.67,1.67,0,0,1,.5-.12l.47,0a4.27,4.27,0,0,1,2,1.56,13.79,13.79,0,0,1,1.9,3.13,18.21,18.21,0,0,1,1.26,4,15.23,15.23,0,0,1,.24,4.4,10.16,10.16,0,0,1-1.26,4,7.89,7.89,0,0,1-3.23,3c-1.71.12-3.12.19-4.21.2a18.24,18.24,0,0,1-2.73-.11,5.25,5.25,0,0,1-1.73-.5,6.1,6.1,0,0,1-1.23-.91q-.59-.55-1.26-1.32C221.12,39.4,220.53,38.79,219.79,38.09Z"/><path d="M240,28a18.52,18.52,0,0,1,.91-5.83,14.76,14.76,0,0,1,2.63-4.89,13,13,0,0,1,4.22-3.37,12.65,12.65,0,0,1,5.78-1.26,8.68,8.68,0,0,1,3.36,1.05,7.74,7.74,0,0,1,2.35,2,8,8,0,0,1,1.32,2.79,14.8,14.8,0,0,1,.35,3.28,6.37,6.37,0,0,1-1.23,3.81,10.6,10.6,0,0,1-3.11,2.84,16.77,16.77,0,0,1-4,1.76,14.85,14.85,0,0,1-4,.61h-1.44a3.65,3.65,0,0,1-1.32-.23,2.16,2.16,0,0,1-.94-.71,2.35,2.35,0,0,1-.35-1.4,1.24,1.24,0,0,1,.09-.5c.06-.14.23-.24.5-.29a4.61,4.61,0,0,1,1.23,0c.55.07,1.29.19,2.23.35a7.86,7.86,0,0,0,2.37-.56A23,23,0,0,0,254,26a12.6,12.6,0,0,0,2.79-2A3.23,3.23,0,0,0,258,21.74a7.46,7.46,0,0,0-.38-2.32,6,6,0,0,0-1.15-2,5.91,5.91,0,0,0-1.78-1.4,4.08,4.08,0,0,0-2.32-.41,9,9,0,0,0-3.72,1.11,9.35,9.35,0,0,0-2.84,2.43A11.74,11.74,0,0,0,244,22.44a11.29,11.29,0,0,0-.64,3.81c0,1,0,2,.06,3.05a13.75,13.75,0,0,0,.44,3,9.82,9.82,0,0,0,1.23,2.81,7.57,7.57,0,0,0,2.46,2.37,15,15,0,0,0,4.07,1.7,28.86,28.86,0,0,0,6.1.85l10.48-.7a7.42,7.42,0,0,1-2.37,2.11,15.33,15.33,0,0,1-3.05,1.31,20.68,20.68,0,0,1-3.19.74,21.25,21.25,0,0,1-3,.23,18.17,18.17,0,0,1-6.38-1.11,16.59,16.59,0,0,1-5.28-3.14,14.48,14.48,0,0,1-3.6-4.92A15.58,15.58,0,0,1,240,28Z"/><path d="M276.27,43.71a32,32,0,0,1-2.23-5.1,57.53,57.53,0,0,1-1.58-5.56c-.43-1.88-.77-3.7-1-5.48s-.42-3.39-.5-4.84a7.54,7.54,0,0,0-.06-.9,5.88,5.88,0,0,1,0-1,4.11,4.11,0,0,1,.18-1,2,2,0,0,1,.49-.82h.12s.06,0,.06,0,0,0,.06,0,.06,0,.06,0,0,0,.11,0h.12c.08,0,.27.12.59.24a2,2,0,0,1,.58.29,22,22,0,0,0,2.17-.85c.74-.33,1.49-.64,2.26-.94A21.32,21.32,0,0,1,280,17a9.65,9.65,0,0,1,2.29-.29c.54,0,1,0,1.43.06a10.5,10.5,0,0,1,1.23.2l1.32.35,1.64.5c.31.24.6.46.85.68a4.86,4.86,0,0,1,.7.73,2.88,2.88,0,0,1,.5,1,5.39,5.39,0,0,1,.18,1.53,6.62,6.62,0,0,1-2.2-.15c-.84-.17-1.72-.4-2.64-.67s-1.86-.51-2.84-.71a11.93,11.93,0,0,0-2.81-.23,5.26,5.26,0,0,0-2.52.76,5.37,5.37,0,0,0-2.17,2.11,12.41,12.41,0,0,0-.35,3.34,17.5,17.5,0,0,0,.41,3.19,25.54,25.54,0,0,0,.91,3.11c.37,1,.72,2.07,1.05,3.11s.64,2.06.91,3.07a17.14,17.14,0,0,1,.53,3.11,1.92,1.92,0,0,1-.65,1.26A2,2,0,0,1,276.27,43.71Z"/></svg>
