<svg xmlns="http://www.w3.org/2000/svg" viewBox="0 0 300.9 54.54"><title>JosefinSans-Light</title><path d="M11.25,47.43A12.52,12.52,0,0,1,6.6,52.62,13.24,13.24,0,0,1,0,54.54V51.72a9.76,9.76,0,0,0,7.26-3.51q2.76-3.27,2.76-9v-36H13V39.42A17.58,17.58,0,0,1,11.25,47.43Z"/><path d="M24.45,27.75A12.08,12.08,0,0,1,29,23.25a13.08,13.08,0,0,1,12.72,0,11.86,11.86,0,0,1,4.5,4.5A12.35,12.35,0,0,1,47.82,34a12.21,12.21,0,0,1-6.15,10.71,12.52,12.52,0,0,1-6.39,1.65,12.89,12.89,0,0,1-6.39-1.59,11.55,11.55,0,0,1-4.47-4.41A12.54,12.54,0,0,1,22.8,34,12.18,12.18,0,0,1,24.45,27.75ZM26.91,39a9.63,9.63,0,0,0,3.51,3.6,9.61,9.61,0,0,0,9.72,0A9.63,9.63,0,0,0,43.65,39a9.94,9.94,0,0,0,1.29-5,10.11,10.11,0,0,0-1.29-5,9.57,9.57,0,0,0-3.51-3.63,9.34,9.34,0,0,0-4.86-1.32,9,9,0,0,0-4.92,1.41,10.09,10.09,0,0,0-3.48,3.69,10.13,10.13,0,0,0,0,9.84Z"/><path d="M57.33,45.54a7.81,7.81,0,0,1-3.45-2.4l1.32-1.86a9,9,0,0,0,2.88,2,8.45,8.45,0,0,0,3.48.75,6.72,6.72,0,0,0,3.84-1A3.66,3.66,0,0,0,67,39.72a3.57,3.57,0,0,0-.84-2.49,5.34,5.34,0,0,0-1.92-1.38q-1.08-.45-3.48-1.23a11.6,11.6,0,0,1-4.35-2.43,5.2,5.2,0,0,1-1.53-3.93,5.9,5.9,0,0,1,2-4.65A7.48,7.48,0,0,1,62,21.84a9.61,9.61,0,0,1,7,2.64l-1.26,2a5.08,5.08,0,0,0-2.37-1.74,9.69,9.69,0,0,0-3-.6,5.73,5.73,0,0,0-3.27,1,3.17,3.17,0,0,0-1.47,2.79A3.19,3.19,0,0,0,59,30.69a17.34,17.34,0,0,0,4,1.89A16.89,16.89,0,0,1,68,35a4.88,4.88,0,0,1,1.74,4.11,6.89,6.89,0,0,1-2.07,5.22,8.3,8.3,0,0,1-6,2A12.73,12.73,0,0,1,57.33,45.54Z"/><path d="M95.4,41.28l1.44,2a14.2,14.2,0,0,1-3.93,2.19,12.63,12.63,0,0,1-4.41.81,12.82,12.82,0,0,1-6.45-1.62,11.61,11.61,0,0,1-4.44-4.41A12.44,12.44,0,0,1,76,34a12,12,0,0,1,1.68-6.21,12.54,12.54,0,0,1,4.56-4.53,12.28,12.28,0,0,1,6.3-1.68,10.52,10.52,0,0,1,7,2.4,13.67,13.67,0,0,1,4.2,6.48l-20,7.74a9.63,9.63,0,0,0,8.88,5.64A10.35,10.35,0,0,0,95.4,41.28Zm-11.88-16A9.47,9.47,0,0,0,80,28.89a10.08,10.08,0,0,0-1.26,5A9.2,9.2,0,0,0,79,36.12L96.3,29.34a9.92,9.92,0,0,0-3.18-3.87A7.9,7.9,0,0,0,88.38,24,9.34,9.34,0,0,0,83.52,25.32Z"/><path d="M109.08,25H105V22.44h4.08V10.62q0-5.52,1.92-8.07A6.82,6.82,0,0,1,116.82,0a7.17,7.17,0,0,1,3.54.9l-1.2,2a3.36,3.36,0,0,0-2.1-.6,4.36,4.36,0,0,0-3.9,1.89q-1.26,1.89-1.26,6.33V22.44h7.5V25h-7.5V45.84h-2.82Zm16.53-12.69a2.12,2.12,0,0,1,1.47-.57,2,2,0,0,1,1.44.57,1.87,1.87,0,0,1,.6,1.41,1.94,1.94,0,0,1-.6,1.47,2,2,0,0,1-1.44.57,2.06,2.06,0,0,1-1.47-.6,1.92,1.92,0,0,1-.63-1.44A1.83,1.83,0,0,1,125.61,12.33Zm2.79,10V45.84h-2.82V22.38Z"/><path d="M157,23.67a7.1,7.1,0,0,1,2.16,5.07v17.1h-2.88V29.52a5.8,5.8,0,0,0-1.5-3.81,5.35,5.35,0,0,0-4-1.53,8.74,8.74,0,0,0-7.65,4.35,9,9,0,0,0-1.23,4.71v12.6h-2.82V22.38h2.46l.24,5.22a8.91,8.91,0,0,1,3.87-4.29,11.76,11.76,0,0,1,6-1.59A7.33,7.33,0,0,1,157,23.67Z"/><path d="M206.16,6.3A19.56,19.56,0,0,0,201,5.58a10.26,10.26,0,0,0-6.72,2.07A6.56,6.56,0,0,0,191.76,13a5.78,5.78,0,0,0,1.35,3.87,10.77,10.77,0,0,0,3.45,2.64q2.1,1.05,5.4,2.31a38,38,0,0,1,6,2.7,12.29,12.29,0,0,1,4,3.75,10.57,10.57,0,0,1,1.62,6.09,11.72,11.72,0,0,1-1.68,6.27,11.25,11.25,0,0,1-4.71,4.23,15.42,15.42,0,0,1-6.93,1.5,24.26,24.26,0,0,1-13.44-4.38l1.38-2.4a22.57,22.57,0,0,0,5.46,2.94,17.33,17.33,0,0,0,6.3,1.26,12.8,12.8,0,0,0,5.13-1.05,9.35,9.35,0,0,0,4-3.18,8.56,8.56,0,0,0,1.53-5.13,7.79,7.79,0,0,0-1.41-4.74,10.76,10.76,0,0,0-3.54-3.09,40.68,40.68,0,0,0-5.37-2.37,50,50,0,0,1-5.94-2.55,12,12,0,0,1-3.93-3.27,8,8,0,0,1-1.59-5.1A9.39,9.39,0,0,1,190.29,8a10.2,10.2,0,0,1,4.26-3.6A14.71,14.71,0,0,1,200.64,3a24.37,24.37,0,0,1,6,.78,27.1,27.1,0,0,1,5.49,2L211,8A29.27,29.27,0,0,0,206.16,6.3Z"/><path d="M245.94,22.38V45.84h-2.82v-5a11.15,11.15,0,0,1-4.2,3.87,12.73,12.73,0,0,1-12.21.06,11.21,11.21,0,0,1-4.32-4.32,12.68,12.68,0,0,1-1.59-6.39,12.79,12.79,0,0,1,1.65-6.63A11.1,11.1,0,0,1,227,23.16a14.13,14.13,0,0,1,6.57-1.5,10.4,10.4,0,0,1,5.52,1.62,10.93,10.93,0,0,1,4,4.2l.3-5.1Zm-5.82,19.08a8.84,8.84,0,0,0,3-6.3V31.8a9.54,9.54,0,0,0-3.48-5.52,9.78,9.78,0,0,0-6.3-2.22,10,10,0,0,0-4.92,1.23,9,9,0,0,0-3.51,3.48A10.25,10.25,0,0,0,223.62,34a9.76,9.76,0,0,0,1.32,5,10,10,0,0,0,3.57,3.63,9.33,9.33,0,0,0,4.89,1.35A9.74,9.74,0,0,0,240.12,41.46Z"/><path d="M274.5,23.67a7.1,7.1,0,0,1,2.16,5.07v17.1h-2.88V29.52a5.8,5.8,0,0,0-1.5-3.81,5.35,5.35,0,0,0-4-1.53,8.74,8.74,0,0,0-7.65,4.35,9,9,0,0,0-1.23,4.71v12.6h-2.82V22.38h2.46l.24,5.22a8.91,8.91,0,0,1,3.87-4.29,11.76,11.76,0,0,1,6-1.59A7.33,7.33,0,0,1,274.5,23.67Z"/><path d="M288.45,45.54a7.81,7.81,0,0,1-3.45-2.4l1.32-1.86a9,9,0,0,0,2.88,2,8.41,8.41,0,0,0,3.48.75,6.72,6.72,0,0,0,3.84-1,3.66,3.66,0,0,0,1.56-3.27,3.57,3.57,0,0,0-.84-2.49,5.43,5.43,0,0,0-1.92-1.38q-1.08-.45-3.48-1.23a11.6,11.6,0,0,1-4.35-2.43A5.2,5.2,0,0,1,286,28.26a5.9,5.9,0,0,1,2-4.65,7.48,7.48,0,0,1,5.13-1.77,9.61,9.61,0,0,1,7,2.64l-1.26,2a5.08,5.08,0,0,0-2.37-1.74,9.75,9.75,0,0,0-3-.6,5.73,5.73,0,0,0-3.27,1,3.17,3.17,0,0,0-1.47,2.79,3.19,3.19,0,0,0,1.32,2.79,17.34,17.34,0,0,0,4,1.89,17,17,0,0,1,5,2.43,4.88,4.88,0,0,1,1.74,4.11,6.89,6.89,0,0,1-2.07,5.22,8.3,8.3,0,0,1-6,2A12.64,12.64,0,0,1,288.45,45.54Z"/></svg>
