<svg xmlns="http://www.w3.org/2000/svg" viewBox="0 0 113.1 37.98"><title>Jura-Light</title><path d="M2.82,35.7Q.24,33.42,0,28.32v-.18Q0,27,1.2,27a1.17,1.17,0,0,1,1.32,1.26q.18,4,2.07,5.61t6.33,1.59h1.62a13.27,13.27,0,0,0,5.07-.78,4.77,4.77,0,0,0,2.61-2.61A13.27,13.27,0,0,0,21,27V1.26A1.11,1.11,0,0,1,22.26,0a1.11,1.11,0,0,1,1.26,1.26V27q0,5.82-2.58,8.4T12.54,38H10.92Q5.4,38,2.82,35.7Z"/><path d="M58.5,11.58V36.72a1.26,1.26,0,1,1-2.52,0V33.24Q53.22,38,45.36,38H43.68q-5.46,0-8-2.52t-2.52-8V11.58a1.26,1.26,0,1,1,2.52,0v15.9q0,4.38,1.8,6.18t6.18,1.8h1.68q9.78,0,10.56-6.54l.06-.36v-17a1.26,1.26,0,0,1,2.52,0Z"/><path d="M84.9,11.58a1.11,1.11,0,0,1-1.26,1.26q-5.4,0-8.43,2.58a10.17,10.17,0,0,0-3.33,7.5.84.84,0,0,1-.06.36V36.72a1.26,1.26,0,1,1-2.52,0V11.58a1.26,1.26,0,1,1,2.52,0v5.64a11,11,0,0,1,4.5-5.13,14.17,14.17,0,0,1,7.32-1.77A1.11,1.11,0,0,1,84.9,11.58Z"/><path d="M110.61,12.81q2.49,2.49,2.49,8v15.9a1.26,1.26,0,1,1-2.52,0V33.18a8.85,8.85,0,0,1-4,3.57A15.66,15.66,0,0,1,100,38H96.6Q92,38,90,35.91T87.9,29.28q0-4.56,2.1-6.66t6.6-2.1h14q-.06-4.2-1.86-5.94t-6.12-1.74H99.12a14.07,14.07,0,0,0-5.94.93A4.05,4.05,0,0,0,91,17q-.18,1.2-1.26,1.2a1.28,1.28,0,0,1-1-.36,1.18,1.18,0,0,1-.27-1,5.9,5.9,0,0,1,2.88-4.95q2.64-1.59,7.8-1.59h3.48Q108.12,10.32,110.61,12.81Zm0,15.69V23h-14q-3.48,0-4.83,1.38t-1.35,4.86q0,3.48,1.35,4.83t4.83,1.35H100q9.72,0,10.56-6.6Z"/></svg>
