<svg xmlns="http://www.w3.org/2000/svg" viewBox="0 0 159.06 59.4"><title>Lobster-Regular</title><path d="M27.87,57.87a61.59,61.59,0,0,1-6.63-4.71q-3-2.4-5.13-3.87a24.36,24.36,0,0,0-4.62-2.49,13.27,13.27,0,0,0-5.07-1A11.93,11.93,0,0,0,5,45.84L14,4.26a13,13,0,0,0-6.21,5,14.47,14.47,0,0,0-2.19,8.13A7.87,7.87,0,0,0,6,20.43a5.21,5.21,0,0,1,.42,1,7.33,7.33,0,0,1-4.83-1.35Q0,18.72,0,15.6A11.34,11.34,0,0,1,3.15,8.13a23.35,23.35,0,0,1,8.07-5.88A23.49,23.49,0,0,1,21.06,0q.84,0,2.4.12L14.22,43.2a19.92,19.92,0,0,1,3.45,1.23q1.77.81,4.29,2.19a68.25,68.25,0,0,0,6.66,3.21,15.3,15.3,0,0,0,5.76,1.11,13.15,13.15,0,0,0,5-1,15.7,15.7,0,0,1-2.13,6.9,4.82,4.82,0,0,1-4.11,2.52A10.39,10.39,0,0,1,27.87,57.87Z"/><path d="M24.12,42.36q-2.58-2.28-2.58-7.2a28.6,28.6,0,0,1,1.68-9.06,21.42,21.42,0,0,1,5.4-8.61A12.86,12.86,0,0,1,38,13.86q7.68,0,7.68,9.6v.06a2.41,2.41,0,0,0,.66.06,12.34,12.34,0,0,0,4.56-1A22.8,22.8,0,0,0,55.56,20l.54,1.62a14.36,14.36,0,0,1-4.53,3.15,23.47,23.47,0,0,1-6.09,1.83A27.17,27.17,0,0,1,43,36.12a16.2,16.2,0,0,1-5.1,6.3,11.46,11.46,0,0,1-6.78,2.22A10.23,10.23,0,0,1,24.12,42.36Zm12.3-4.77a14.78,14.78,0,0,0,2.52-4.5,29,29,0,0,0,1.56-6.33q-1.62-.36-1.62-2.52A3.14,3.14,0,0,1,40.74,21a6.17,6.17,0,0,0-.6-2.73,1.84,1.84,0,0,0-1.68-.75q-2,0-3.84,2.88a25.46,25.46,0,0,0-3,6.9,26.39,26.39,0,0,0-1.14,7.08,7.7,7.7,0,0,0,.66,3.87,2.67,2.67,0,0,0,2.4,1A4,4,0,0,0,36.42,37.59Z"/><path d="M50.46,42.75a7.36,7.36,0,0,1-2.16-5.67,13.58,13.58,0,0,1,.42-3.42L55.14,3.6,64,2.4,61.14,15.9a13,13,0,0,1,2.76-1.35,7.36,7.36,0,0,1,2.16-.33q6.6,0,7.08,9,4.08-.78,9.24-9.48l8.88-1.2q.3,7.68,1,16.62.3,3.6.3,5.22a12.8,12.8,0,0,1-.18,2.22,36.28,36.28,0,0,0,4.26-2.94h2.52a36.7,36.7,0,0,1-8.34,7A8.59,8.59,0,0,1,87,43.8a12.92,12.92,0,0,1-5,1q-4.8,0-6.57-2.28a9,9,0,0,1-1.77-5.7A6.22,6.22,0,0,1,75,32.67a3.85,3.85,0,0,1,3-1.59q3.12,0,3.12,2.52a2.55,2.55,0,0,1-.84,1.89,2.83,2.83,0,0,1-2,.81,1.59,1.59,0,0,1-1.62-.78,5.5,5.5,0,0,0,.87,3.33A3,3,0,0,0,80.1,40,3.32,3.32,0,0,0,83,38.79a7.92,7.92,0,0,0,.87-4.35,36.53,36.53,0,0,0-.36-4.56q-.6-5.76-1-11.76-4.14,6.24-9.48,8.1a27.17,27.17,0,0,1-2,8.43,18.06,18.06,0,0,1-5.31,7.17,13.73,13.73,0,0,1-9,2.94A8.83,8.83,0,0,1,50.46,42.75Zm12.69-5.64a15.53,15.53,0,0,0,2.46-4.71A28.48,28.48,0,0,0,67,26.52a2.81,2.81,0,0,1-1-2.4,3.78,3.78,0,0,1,.78-2.46,5.77,5.77,0,0,0-1.08-2.31,2.24,2.24,0,0,0-1.8-.87,8.58,8.58,0,0,0-2,.27,2.69,2.69,0,0,0-1.53.81L57.06,34.8a5.69,5.69,0,0,0-.18,1.38q0,2.76,3.18,2.76A4.07,4.07,0,0,0,63.15,37.11Z"/><path d="M98,43a7.41,7.41,0,0,1-1.77-5.4,20.8,20.8,0,0,1,.48-3.9l3.6-16.86h-2l.48-2.4h2l1.8-8.28,8.88-1.2-2,9.48H113l-.48,2.4h-3.6l-3.84,18a7.43,7.43,0,0,0-.24,1.92,2.2,2.2,0,0,0,.57,1.71,2.81,2.81,0,0,0,1.89.51,4.57,4.57,0,0,0,3.24-1.47,8.4,8.4,0,0,0,2.16-3.81h2.52q-2.22,6.48-5.7,8.79a12.43,12.43,0,0,1-6.9,2.31A6.23,6.23,0,0,1,98,43Z"/><path d="M114.36,42.45q-2.46-2.31-2.46-7.23a29.7,29.7,0,0,1,1.62-9.12,21.17,21.17,0,0,1,5.28-8.61,12.66,12.66,0,0,1,9.3-3.63q6.6,0,6.6,5.76a10.75,10.75,0,0,1-1.92,6.18,14.16,14.16,0,0,1-5.1,4.53,16.47,16.47,0,0,1-6.78,2q-.12,1.8-.12,2.4,0,2.94,1,4a4.44,4.44,0,0,0,3.3,1,10,10,0,0,0,5.55-1.5,26.9,26.9,0,0,0,5.07-4.56h2q-6.66,11.1-16.5,11.1A9.69,9.69,0,0,1,114.36,42.45Zm11.25-14.61a11,11,0,0,0,3.24-3.66,9.52,9.52,0,0,0,1.23-4.68q0-2.46-1.5-2.46-2.16,0-4.23,3.78a28.79,28.79,0,0,0-3,8.58A7.91,7.91,0,0,0,125.61,27.84Z"/><path d="M139.8,14.4h8.64l-.78,3.72a24,24,0,0,1,3.69-2.76,7,7,0,0,1,3.57-1,3.75,3.75,0,0,1,3,1.32,4.78,4.78,0,0,1,1.11,3.18A4.54,4.54,0,0,1,157.92,22a4,4,0,0,1-3.18,1.32,2.06,2.06,0,0,1-1.77-.63,4.79,4.79,0,0,1-.69-1.83,5.51,5.51,0,0,0-.36-1.14.67.67,0,0,0-.66-.36,4.15,4.15,0,0,0-2.13.51,14.64,14.64,0,0,0-2.25,1.77l-4.8,22.8h-8.64Z"/></svg>
