<svg xmlns="http://www.w3.org/2000/svg" viewBox="0 0 121.5 42.96"><title>Lora-Regular</title><path d="M0,40a4.32,4.32,0,0,0,3-1,3.4,3.4,0,0,0,1-2.13q.12-1.23.12-4.29V6.72q0-2.52.18-4.32L0,2.64V0H13.5V2a4.32,4.32,0,0,0-3,1,3.4,3.4,0,0,0-1,2.13Q9.36,6.3,9.36,9.36V35.1a44.51,44.51,0,0,1-.18,4.68L20.4,39.6a7.13,7.13,0,0,0,5.76-2.43q1.92-2.37,1.92-7.59h2L29.76,42H0Z"/><path d="M41.31,41a14.38,14.38,0,0,1-5.46-5.43,15.43,15.43,0,0,1-2-7.86,18.13,18.13,0,0,1,2-8.49,15.31,15.31,0,0,1,5.43-6A14,14,0,0,1,48.9,11a15,15,0,0,1,7.62,2A14.76,14.76,0,0,1,62,18.54a15.19,15.19,0,0,1,2,7.74,17.84,17.84,0,0,1-2,8.4,15.71,15.71,0,0,1-5.46,6.06A13.84,13.84,0,0,1,48.9,43,15.16,15.16,0,0,1,41.31,41Zm14.52-4A17.7,17.7,0,0,0,57.9,28a22.22,22.22,0,0,0-2.25-10.38,7.22,7.22,0,0,0-6.75-4.32A7.35,7.35,0,0,0,42.21,17,16.88,16.88,0,0,0,40,26a23.72,23.72,0,0,0,1,7.17,12.45,12.45,0,0,0,3.18,5.37,7.22,7.22,0,0,0,5.19,2A6.92,6.92,0,0,0,55.83,37Z"/><path d="M69.12,40.2a3.13,3.13,0,0,0,2.49-.87,4,4,0,0,0,.9-2.22q.15-1.35.15-4.23V19.2a24.19,24.19,0,0,1,.24-3.9l-4.26.18V13H70.5a10,10,0,0,0,3.3-.39,5.91,5.91,0,0,0,1.92-1.23h1.74q.24,2.34.3,5.94A14.6,14.6,0,0,1,82.05,13,10.08,10.08,0,0,1,87.84,11a4.65,4.65,0,0,1,3,1A3.4,3.4,0,0,1,92,14.82a3.12,3.12,0,0,1-.75,1.92,2.55,2.55,0,0,1-2.13,1,2.7,2.7,0,0,1-2.16-1,2.92,2.92,0,0,1-.66-2.37,7.15,7.15,0,0,0-4.59,1.74,15,15,0,0,0-3.93,4.8l.06,14.76a25.71,25.71,0,0,1-.24,4.08l3.78-.18V42H69.12Z"/><path d="M96.39,41a6.47,6.47,0,0,1-2.31-5.16,7.47,7.47,0,0,1,2.79-5.88,17.91,17.91,0,0,1,7-3.57,30.11,30.11,0,0,1,8.49-1.11V21.54a13.37,13.37,0,0,0-1.14-6.09q-1.14-2.19-4.86-2.19a8.31,8.31,0,0,0-3.54.78,5,5,0,0,0-2.46,2.34,3.22,3.22,0,0,1,.78,2.28,2.67,2.67,0,0,1-.66,1.71,2.33,2.33,0,0,1-1.92.81,2.51,2.51,0,0,1-2-.81,3.09,3.09,0,0,1-.72-2.13,5.23,5.23,0,0,1,1.53-3.63A10.38,10.38,0,0,1,101.67,12a18.27,18.27,0,0,1,6.09-1q5,0,7.44,2.67t2.34,8.43l-.06,13.5a37,37,0,0,1-.24,4.08l4.26-.24V42h-8.58q-.18-.9-.42-3.42Q108.12,43,103.08,43,98.7,43,96.39,41Zm12.21-2.31A14.8,14.8,0,0,0,112.38,36q-.06-.9-.06-3.06l.06-5.64a22,22,0,0,0-8.76,2q-3.84,1.83-3.84,5.61a4.39,4.39,0,0,0,1.32,3.42,4.8,4.8,0,0,0,3.36,1.2A9.65,9.65,0,0,0,108.6,38.67Z"/></svg>
