<svg xmlns="http://www.w3.org/2000/svg" viewBox="0 0 147 54"><title>Magra-Regular</title><path d="M34.74,0,37,42H31.32L29.88,12.36l.42-7.2h-.36L21.84,39.6l-6.9.6-9.3-35H5.22l.72,7.08L4.92,42H0L1.62,0H10l7.2,28.2,1.26,6.6h.3l1.08-6.42L26.34,0Z"/><path d="M59,20q0-5.46-5-5.46a30.79,30.79,0,0,0-8.58,1.68L43.5,12.48a23.71,23.71,0,0,1,11.16-2.7q7.26,0,8.88,4.32A17,17,0,0,1,64.38,20V32.76a9.37,9.37,0,0,0,2.46,6.84l-3.18,3.12a9.54,9.54,0,0,1-2.19-1.95,7.71,7.71,0,0,1-1.53-2.55h-.18a10.68,10.68,0,0,1-9.12,4.5q-8.58,0-8.58-8.94,0-7.92,11.16-9.54L59,23.4ZM47.82,34.44q0,3.48,4.29,3.48a8.61,8.61,0,0,0,6.87-3V27.6q-7.56,1-9.3,2.4A5.37,5.37,0,0,0,47.82,34.44Z"/><path d="M83.82,9.78q1,0,1.65.06T89,10q8.34.36,9.12.36l-.66,3.48-4.14.42a11.52,11.52,0,0,1,1.5,6,10.79,10.79,0,0,1-3.12,8.16q-3.12,3-8.88,3-.9,0-2.34-.12A13.48,13.48,0,0,0,78.9,32.7a1.43,1.43,0,0,0-.36,1q0,1.74,3.78,2.1l4.5.42a16.61,16.61,0,0,1,7.53,2q2.73,1.65,2.73,5.46a8.36,8.36,0,0,1-2.22,6.09Q90.72,54,82.56,54q-12.3,0-12.3-7.44,0-2.94,3.72-6.12.42-.36.63-.51l.57-.42a1.63,1.63,0,0,1,.42-.27,4.36,4.36,0,0,1-2.34-4,3.92,3.92,0,0,1,.84-2.58,14.49,14.49,0,0,1,2.82-2.4q-5.1-2.46-5.1-9.18a11,11,0,0,1,3.12-8.31Q78.06,9.78,83.82,9.78ZM77.73,48.66a12.93,12.93,0,0,0,5.7,1.08,15,15,0,0,0,6-1.08,3.59,3.59,0,0,0,2.49-3.42,2.81,2.81,0,0,0-1.14-2.58A10.66,10.66,0,0,0,89.67,42,5.79,5.79,0,0,0,88,41.52q-2.16-.3-4.53-.48a33.11,33.11,0,0,1-4.35-.6,12.62,12.62,0,0,0-3,2.85,4,4,0,0,0-.57,2A3.54,3.54,0,0,0,77.73,48.66ZM83,14q-3.06,0-4.35,1.62a7.93,7.93,0,0,0-1.29,5q0,6.66,6.3,6.66,3.12,0,4.38-1.68a8.48,8.48,0,0,0,1.26-5.1Q89.28,14,83,14Z"/><path d="M116.16,9.78a7.92,7.92,0,0,1,2.37.27q.81.27,1.35.42a5.22,5.22,0,0,1,.66.21l-1,5.4a13.62,13.62,0,0,0-4.29-.6,6.07,6.07,0,0,0-4.5,2.13,7.21,7.21,0,0,0-2,5.13V42h-5.4V19.14l-.48-8.34,4.38-.6.66,6.06h.24a10.62,10.62,0,0,1,3.09-4.71A7.28,7.28,0,0,1,116.16,9.78Z"/><path d="M139.14,20q0-5.46-5-5.46a30.79,30.79,0,0,0-8.58,1.68l-1.92-3.78a23.71,23.71,0,0,1,11.16-2.7q7.26,0,8.88,4.32a17,17,0,0,1,.84,5.88V32.76A9.37,9.37,0,0,0,147,39.6l-3.18,3.12a9.54,9.54,0,0,1-2.19-1.95,7.71,7.71,0,0,1-1.53-2.55h-.18a10.68,10.68,0,0,1-9.12,4.5q-8.58,0-8.58-8.94,0-7.92,11.16-9.54l5.76-.84ZM128,34.44q0,3.48,4.29,3.48a8.61,8.61,0,0,0,6.87-3V27.6q-7.56,1-9.3,2.4A5.37,5.37,0,0,0,128,34.44Z"/></svg>
