<svg xmlns="http://www.w3.org/2000/svg" viewBox="0 0 401.34 49.8"><title>Merriweather-Light</title><path d="M9.54,7.8,2.88,7.14V4.56H17l9.3,27.72,2.22,8,2-8L39.78,4.56h14V7.14l-6.6.66L52,46l5.46.6v2.58H41.28V46.56L46.86,46,44.1,18.66l-1.32-12-2.64,8.28L29.28,47h-2.4L16.68,18.3,12.78,6.66l-1.2,12L9.12,46l5.88.54v2.58H0V46.56L5.1,46Z"/><path d="M64.47,45q-3.75-4.77-3.75-12.69a20,20,0,0,1,2-9.06,14.93,14.93,0,0,1,5.49-6.15,14.6,14.6,0,0,1,7.89-2.19q5.34,0,8.31,3.06t3.21,8.82a26.62,26.62,0,0,1-.36,5.28H65.88a17.29,17.29,0,0,0,2.85,10.29,9.27,9.27,0,0,0,8,4,15.94,15.94,0,0,0,5.16-.9A12.11,12.11,0,0,0,86,43.32l1,2.22a13.42,13.42,0,0,1-5.07,3,19.19,19.19,0,0,1-6.69,1.23Q68.22,49.8,64.47,45ZM82.2,29.28a18.66,18.66,0,0,0,.18-2.64,10.22,10.22,0,0,0-1.89-6.3A6.68,6.68,0,0,0,74.88,18q-8.22,0-8.94,11.28Z"/><path d="M93.24,46.62l4.8-.36V19.8l-4.62-1v-2.7l7.62-1h.12l1.14,1v1l-.12,4.56h.12q.12-.12,1.59-1.83a15.2,15.2,0,0,1,4.38-3.27,12.28,12.28,0,0,1,5.85-1.56,6.53,6.53,0,0,1,1.8.24v5.28a3.16,3.16,0,0,0-1-.36,7.87,7.87,0,0,0-1.71-.18,14.86,14.86,0,0,0-5.82,1,22,22,0,0,0-4.44,2.52V46.2l8,.48v2.46H93.24Z"/><path d="M120.24,46.62l4.8-.36V19.8l-4.62-1v-2.7l7.62-1h.12l1.14,1v1l-.12,4.56h.12q.12-.12,1.59-1.83a15.2,15.2,0,0,1,4.38-3.27,12.28,12.28,0,0,1,5.85-1.56,6.53,6.53,0,0,1,1.8.24v5.28a3.16,3.16,0,0,0-1-.36,7.87,7.87,0,0,0-1.71-.18,14.86,14.86,0,0,0-5.82,1,22,22,0,0,0-4.44,2.52V46.2l8,.48v2.46H120.24Z"/><path d="M152.1,19.8l-4.68-1v-2.7l8.22-1h.12l1.2,1V46.14l5.22.42v2.58H146.82V46.56l5.28-.48ZM150.78,6.12a4,4,0,0,1,1-2.85,3.56,3.56,0,0,1,2.76-1.11,3.09,3.09,0,0,1,2.58,1,3.81,3.81,0,0,1,.78,2.43,4.07,4.07,0,0,1-1,2.91,3.73,3.73,0,0,1-2.85,1H154Q150.78,9.54,150.78,6.12Z"/><path d="M163.56,15.84h13V18.3l-4.8.72,5.34,18.66,2,8.34,2-8.4,6-21.78h5l6,21.78L200,46.08l2.16-8.4,5.28-18.6-4.62-.78V15.84h11.76V18.3l-3.3.78L201.9,49.62H197L190.5,27.3l-1.68-7.56-1.44,7.56-6.3,22.32h-4.74L166.74,19l-3.18-.72Z"/><path d="M220.59,45q-3.75-4.77-3.75-12.69a20,20,0,0,1,2-9.06,14.93,14.93,0,0,1,5.49-6.15,14.6,14.6,0,0,1,7.89-2.19q5.34,0,8.31,3.06t3.21,8.82a26.62,26.62,0,0,1-.36,5.28H222a17.29,17.29,0,0,0,2.85,10.29,9.27,9.27,0,0,0,8,4,15.94,15.94,0,0,0,5.16-.9,12.11,12.11,0,0,0,4.08-2.16l1,2.22a13.42,13.42,0,0,1-5.07,3,19.19,19.19,0,0,1-6.69,1.23Q224.34,49.8,220.59,45Zm17.73-15.75a18.66,18.66,0,0,0,.18-2.64,10.22,10.22,0,0,0-1.89-6.3A6.68,6.68,0,0,0,231,18q-8.22,0-8.94,11.28Z"/><path d="M255.24,32a36.64,36.64,0,0,1,14.34-2.79V27.3a14.86,14.86,0,0,0-.63-4.83,4.47,4.47,0,0,0-2.19-2.58,9.66,9.66,0,0,0-4.38-.81,15.76,15.76,0,0,0-5.55.93A34.11,34.11,0,0,0,252,22.26l-1.32-2.64a14.65,14.65,0,0,1,2.76-1.68,30,30,0,0,1,4.8-1.92,17.54,17.54,0,0,1,5.22-.84,15.09,15.09,0,0,1,6.45,1.14A6.82,6.82,0,0,1,273.33,20a18,18,0,0,1,1.05,6.78v19.8h3.72v2.22a21.86,21.86,0,0,1-5.58.9,3.2,3.2,0,0,1-2-.45q-.54-.45-.54-2.07V44.94a28.47,28.47,0,0,1-4.71,3.39,11.38,11.38,0,0,1-5.79,1.47,10.75,10.75,0,0,1-7.17-2.4q-2.85-2.4-2.85-7Q249.48,34.56,255.24,32Zm10.08,13.23a21.57,21.57,0,0,0,4.26-2.58V32q-7.26.06-11,2.16t-3.75,5.64q0,3.42,1.74,4.95a6.93,6.93,0,0,0,4.74,1.53A9.93,9.93,0,0,0,265.32,45.18Z"/><path d="M288.12,48.33q-1.62-1.47-1.62-5.25V19.38h-4.56V17a17.75,17.75,0,0,0,3.48-1,2.94,2.94,0,0,0,1.32-1.86,30.46,30.46,0,0,0,1-3.24q.6-2.34.9-3.66h2.76v8.52H302v3.54H291.36V38.82a33.63,33.63,0,0,0,.24,4.89,2.47,2.47,0,0,0,1,1.83,5.38,5.38,0,0,0,2.52.42,18.15,18.15,0,0,0,3.9-.48,14.83,14.83,0,0,0,3.24-1l.78,2.28a14.9,14.9,0,0,1-4.56,2.07,19,19,0,0,1-5.52,1A6.93,6.93,0,0,1,288.12,48.33Z"/><path d="M310.38,3.78,305,3.24V1l8.88-1H314l1.14.78V15.06l-.12,5a21.74,21.74,0,0,1,5.4-3.36,16.13,16.13,0,0,1,6.84-1.62,10.3,10.3,0,0,1,5.88,1.44A7.65,7.65,0,0,1,336.12,21a31.83,31.83,0,0,1,.84,8.19V46.08l4.38.48v2.58H327.9V46.56l4.2-.48v-17a27.45,27.45,0,0,0-.51-6,5.32,5.32,0,0,0-2-3.24,7.45,7.45,0,0,0-4.38-1.08A13.28,13.28,0,0,0,320,20a21.91,21.91,0,0,0-4.86,2.79V46.08l4.44.48v2.58h-13V46.56l3.78-.42Z"/><path d="M349.89,45q-3.75-4.77-3.75-12.69a20,20,0,0,1,2-9.06,14.93,14.93,0,0,1,5.49-6.15,14.6,14.6,0,0,1,7.89-2.19q5.34,0,8.31,3.06T373,26.82a26.62,26.62,0,0,1-.36,5.28H351.3a17.29,17.29,0,0,0,2.85,10.29,9.27,9.27,0,0,0,8,4,15.94,15.94,0,0,0,5.16-.9,12.11,12.11,0,0,0,4.08-2.16l1,2.22a13.42,13.42,0,0,1-5.07,3,19.19,19.19,0,0,1-6.69,1.23Q353.64,49.8,349.89,45Zm17.73-15.75a18.66,18.66,0,0,0,.18-2.64,10.22,10.22,0,0,0-1.89-6.3A6.68,6.68,0,0,0,360.3,18q-8.22,0-8.94,11.28Z"/><path d="M378.66,46.62l4.8-.36V19.8l-4.62-1v-2.7l7.62-1h.12l1.14,1v1l-.12,4.56h.12q.12-.12,1.59-1.83a15.2,15.2,0,0,1,4.38-3.27,12.28,12.28,0,0,1,5.85-1.56,6.53,6.53,0,0,1,1.8.24v5.28a3.16,3.16,0,0,0-1-.36,7.87,7.87,0,0,0-1.71-.18,14.83,14.83,0,0,0-5.82,1,22,22,0,0,0-4.44,2.52V46.2l8,.48v2.46H378.66Z"/></svg>
