<svg xmlns="http://www.w3.org/2000/svg" viewBox="0 0 323.7 42.3">
  <title>Montserrat-Regular</title><path d="M43.62,0V42H39.36V8.4L22.86,36.66h-2.1L4.26,8.58V42H0V0H3.66L21.9,31.14,40,0Z"/><path
    d="M61.08,40.23a15.1,15.1,0,0,1-5.76-5.73,16.34,16.34,0,0,1-2.1-8.28,16.34,16.34,0,0,1,2.1-8.28,14.88,14.88,0,0,1,5.76-5.7,17.58,17.58,0,0,1,16.44,0,14.67,14.67,0,0,1,5.73,5.7,16.52,16.52,0,0,1,2.07,8.28,16.52,16.52,0,0,1-2.07,8.28,14.88,14.88,0,0,1-5.73,5.73,17.36,17.36,0,0,1-16.44,0ZM75.33,37a10.67,10.67,0,0,0,4.17-4.35A13.46,13.46,0,0,0,81,26.22a13.46,13.46,0,0,0-1.5-6.42,10.67,10.67,0,0,0-4.17-4.35,12.65,12.65,0,0,0-12.06,0,10.87,10.87,0,0,0-4.2,4.35,13.24,13.24,0,0,0-1.53,6.42,13.24,13.24,0,0,0,1.53,6.42A10.87,10.87,0,0,0,63.27,37a12.65,12.65,0,0,0,12.06,0Z"/><path d="M119.55,13.65q3.51,3.45,3.51,10V42H118.8V24.12q0-4.92-2.46-7.5t-7-2.58a10.78,10.78,0,0,0-8.07,3q-3,3-3,8.37V42H94V10.44H98.1v5.82a11.85,11.85,0,0,1,4.83-4.47,15.46,15.46,0,0,1,7.17-1.59Q116,10.2,119.55,13.65Z"/><path
    d="M151.26,40.08a8.07,8.07,0,0,1-3,1.65,12,12,0,0,1-3.69.57q-4.44,0-6.84-2.4a9.17,9.17,0,0,1-2.4-6.78V14h-5.64v-3.6h5.64V3.54h4.26v6.9h9.6V14h-9.6V32.88A6,6,0,0,0,141,37.17a5.35,5.35,0,0,0,4.05,1.47,7.84,7.84,0,0,0,2.55-.42,6.34,6.34,0,0,0,2.13-1.2Z"/><path
    d="M160.11,41.19a15.81,15.81,0,0,1-5.49-2.79L156.54,35a16.17,16.17,0,0,0,5,2.55,19.78,19.78,0,0,0,6.24,1q4.32,0,6.39-1.35a4.3,4.3,0,0,0,2.07-3.81,3.43,3.43,0,0,0-1.14-2.73,7.57,7.57,0,0,0-2.88-1.5,41.08,41.08,0,0,0-4.62-1,53,53,0,0,1-6.18-1.47,9.08,9.08,0,0,1-4-2.55,7.09,7.09,0,0,1-1.65-5,7.8,7.8,0,0,1,3.3-6.48q3.3-2.52,9.18-2.52a23.83,23.83,0,0,1,6.12.81,16.84,16.84,0,0,1,5,2.13l-1.86,3.42a15.93,15.93,0,0,0-9.3-2.7,10.78,10.78,0,0,0-6.15,1.44A4.41,4.41,0,0,0,160,19.08,3.73,3.73,0,0,0,161.19,22a7.2,7.2,0,0,0,2.91,1.59,47,47,0,0,0,4.8,1.05A55.22,55.22,0,0,1,175,26a8.9,8.9,0,0,1,3.9,2.46,6.77,6.77,0,0,1,1.62,4.8A7.63,7.63,0,0,1,177,39.87q-3.45,2.43-9.57,2.43A24.23,24.23,0,0,1,160.11,41.19Z"/><path
    d="M215.82,27.54h-26.4a11.28,11.28,0,0,0,3.78,8,12.55,12.55,0,0,0,8.64,3,13.61,13.61,0,0,0,5.4-1.05,11.8,11.8,0,0,0,4.26-3.09l2.4,2.76A13.51,13.51,0,0,1,208.65,41a17.76,17.76,0,0,1-6.93,1.32,17.52,17.52,0,0,1-8.61-2.07,14.92,14.92,0,0,1-5.85-5.73,16.34,16.34,0,0,1-2.1-8.28,16.91,16.91,0,0,1,2-8.28,14.55,14.55,0,0,1,5.52-5.7,15.41,15.41,0,0,1,7.89-2,15.25,15.25,0,0,1,7.86,2,14.46,14.46,0,0,1,5.46,5.67,17.07,17.07,0,0,1,2,8.31ZM192.93,16.77a11.43,11.43,0,0,0-3.51,7.59H211.8a11.43,11.43,0,0,0-3.51-7.59,11.59,11.59,0,0,0-15.36,0Z"/><path d="M233.13,11.82a15.19,15.19,0,0,1,7.35-1.62v4.14l-1-.06a10.08,10.08,0,0,0-7.8,3.06q-2.82,3.06-2.82,8.58V42h-4.26V10.44h4.08v6.18A10.32,10.32,0,0,1,233.13,11.82Z"/><path d="M256.71,11.82a15.19,15.19,0,0,1,7.35-1.62v4.14l-1-.06a10.08,10.08,0,0,0-7.8,3.06q-2.82,3.06-2.82,8.58V42h-4.26V10.44h4.08v6.18A10.32,10.32,0,0,1,256.71,11.82Z"/><path
    d="M292.2,13.29q3.3,3.09,3.3,9.15V42h-4.08V37.08a9.77,9.77,0,0,1-4.23,3.84,14.8,14.8,0,0,1-6.63,1.38,13,13,0,0,1-8.4-2.52A8.14,8.14,0,0,1,269,33.12,8.07,8.07,0,0,1,272,26.64q2.91-2.46,9.27-2.46h10V22.26A8.09,8.09,0,0,0,289,16.05q-2.28-2.13-6.66-2.13a16.93,16.93,0,0,0-5.76,1,14.52,14.52,0,0,0-4.74,2.73l-1.92-3.18a17,17,0,0,1,5.76-3.15,22.42,22.42,0,0,1,7.08-1.11Q288.9,10.2,292.2,13.29Zm-4.8,24a9.85,9.85,0,0,0,3.84-4.77V27.36h-9.9q-8.1,0-8.1,5.64a5.16,5.16,0,0,0,2.1,4.35,9.56,9.56,0,0,0,5.88,1.59A11.23,11.23,0,0,0,287.4,37.29Z"/><path
    d="M323.7,40.08a8.07,8.07,0,0,1-3,1.65,12,12,0,0,1-3.69.57q-4.44,0-6.84-2.4a9.17,9.17,0,0,1-2.4-6.78V14h-5.64v-3.6h5.64V3.54h4.26v6.9h9.6V14h-9.6V32.88a6,6,0,0,0,1.41,4.29,5.35,5.35,0,0,0,4,1.47,7.84,7.84,0,0,0,2.55-.42A6.34,6.34,0,0,0,322.2,37Z"/>
</svg>
