<svg xmlns="http://www.w3.org/2000/svg" viewBox="0 0 168.18 43.02"><title>Nunito-Light</title><path d="M32.73.51a2.06,2.06,0,0,1,.45,1.41V41a2,2,0,0,1-.48,1.38,1.68,1.68,0,0,1-1.32.54,2.06,2.06,0,0,1-1.62-.9L3.48,6.54V41A2,2,0,0,1,3,42.36a1.61,1.61,0,0,1-1.26.54,1.61,1.61,0,0,1-1.32-.51A2.16,2.16,0,0,1,0,41V1.92A1.93,1.93,0,0,1,.51.54,1.85,1.85,0,0,1,1.92,0,1.81,1.81,0,0,1,3.48.9L29.7,36.3V1.92A2,2,0,0,1,30.18.54,1.61,1.61,0,0,1,31.44,0,1.63,1.63,0,0,1,32.73.51Z"/><path d="M66.51,13.41A1.82,1.82,0,0,1,67,14.76V41a1.75,1.75,0,0,1-1.86,1.86,1.65,1.65,0,0,1-1.26-.51A1.89,1.89,0,0,1,63.42,41V37.38a9.64,9.64,0,0,1-3.93,4.2A11.57,11.57,0,0,1,53.7,43q-5.16,0-7.77-2.85t-2.61-8.43v-17a1.75,1.75,0,0,1,1.86-1.86,1.73,1.73,0,0,1,1.32.51A1.89,1.89,0,0,1,47,14.76V31.5q0,4.26,1.71,6.27t5.37,2a8.9,8.9,0,0,0,6.75-2.67A9.87,9.87,0,0,0,63.36,30V14.76a1.89,1.89,0,0,1,.48-1.35,1.73,1.73,0,0,1,1.32-.51A1.82,1.82,0,0,1,66.51,13.41Z"/><path d="M100.74,24.06V41a1.89,1.89,0,0,1-.48,1.35,1.73,1.73,0,0,1-1.32.51A1.75,1.75,0,0,1,97.08,41V24.3q0-4.32-1.74-6.3t-5.52-2a9.31,9.31,0,0,0-6.93,2.64,9.63,9.63,0,0,0-2.61,7.08V41a1.89,1.89,0,0,1-.48,1.35,1.73,1.73,0,0,1-1.32.51A1.75,1.75,0,0,1,76.62,41V14.76a1.75,1.75,0,0,1,1.86-1.86,1.7,1.7,0,0,1,1.26.48,1.78,1.78,0,0,1,.48,1.32v3.78a9.72,9.72,0,0,1,4-4.23,12.08,12.08,0,0,1,6-1.47Q100.74,12.78,100.74,24.06Z"/><path d="M110.19,5.4a2.46,2.46,0,0,1-.75-1.86,2.54,2.54,0,0,1,.75-1.92,3,3,0,0,1,3.9,0,2.54,2.54,0,0,1,.75,1.92,2.46,2.46,0,0,1-.75,1.86,3,3,0,0,1-3.9,0Zm.6,37a1.8,1.8,0,0,1-.51-1.38V14.76a1.8,1.8,0,0,1,.51-1.38,1.89,1.89,0,0,1,1.35-.48,1.78,1.78,0,0,1,1.32.48,1.87,1.87,0,0,1,.48,1.38V41a1.87,1.87,0,0,1-.48,1.38,1.78,1.78,0,0,1-1.32.48A1.89,1.89,0,0,1,110.79,42.42Z"/><path d="M137.94,41.4a1.37,1.37,0,0,1-.54,1.14,2.63,2.63,0,0,1-1.74.36L134,42.78q-4.56-.3-6.75-2.79T125,32.4v-16h-4.56a1.61,1.61,0,0,1-1.14-.39,1.36,1.36,0,0,1-.42-1.05,1.46,1.46,0,0,1,.42-1.08,1.54,1.54,0,0,1,1.14-.42H125V6.06a1.87,1.87,0,0,1,.48-1.38,1.78,1.78,0,0,1,1.32-.48,1.89,1.89,0,0,1,1.35.48,1.8,1.8,0,0,1,.51,1.38V13.5H136a1.62,1.62,0,0,1,1.2.42,1.46,1.46,0,0,1,.42,1.08,1.36,1.36,0,0,1-.42,1.05,1.7,1.7,0,0,1-1.2.39H128.7V32.58q0,3.72,1.44,5.31a6.51,6.51,0,0,0,4.5,1.83l1.62.12Q137.94,40,137.94,41.4Z"/><path d="M147.75,41.16A12.49,12.49,0,0,1,143,35.88a17.89,17.89,0,0,1-1.68-8,17.89,17.89,0,0,1,1.68-8,12.49,12.49,0,0,1,4.71-5.28,14.23,14.23,0,0,1,14.07,0,12.23,12.23,0,0,1,4.71,5.28,18.17,18.17,0,0,1,1.65,8,18.17,18.17,0,0,1-1.65,8,12.23,12.23,0,0,1-4.71,5.28,14.23,14.23,0,0,1-14.07,0Zm14.13-4.44q2.52-3.06,2.52-8.82t-2.55-8.79a9.5,9.5,0,0,0-14.13,0q-2.52,3.15-2.52,8.79t2.46,8.82a8.55,8.55,0,0,0,7.08,3.06A8.73,8.73,0,0,0,161.88,36.72Z"/></svg>
