<svg xmlns="http://www.w3.org/2000/svg" viewBox="0 0 286.64 57.92"><title>OpenSans-Light</title><path d="M38.29,22q0,10.2-5.1,16.13T19.13,44.09q-8.94,0-14-5.93T0,22Q0,11.76,5.14,5.87T19.19,0q9,0,14,5.9T38.29,22Zm-35,0q0,9.2,4.1,14.22t11.78,5q7.74,0,11.82-5T35,22Q35,12.77,31,7.84T19.19,2.9q-7.65,0-11.79,5T3.25,22Z"/><path d="M61,44.09q-7.37,0-10.73-5.51h-.2L50.19,41c.07,1.45.11,3,.11,4.75V57.92H47.4V11.66h2.46l.56,4.54h.18Q53.87,11,61.08,11q6.45,0,9.83,4.24T74.3,27.6q0,7.84-3.56,12.17A11.92,11.92,0,0,1,61,44.09ZM61,41.51a8.86,8.86,0,0,0,7.57-3.63q2.68-3.63,2.68-10.17,0-14-10.14-14-5.56,0-8.17,3.06t-2.61,10v.94q0,7.47,2.51,10.66T61,41.51Z"/><path d="M96,44.09q-6.95,0-10.83-4.28t-3.88-12q0-7.62,3.75-12.2A12.37,12.37,0,0,1,95.13,11,10.88,10.88,0,0,1,104,15q3.25,3.93,3.26,10.66V28H84.32q.06,6.56,3.06,10T96,41.46a26.13,26.13,0,0,0,4.79-.39A29,29,0,0,0,106,39.43v2.64a23.93,23.93,0,0,1-5,1.6A28.06,28.06,0,0,1,96,44.09Zm-.85-30.47a9.53,9.53,0,0,0-7.39,3c-1.85,2-2.94,4.93-3.25,8.74h19.69q0-5.53-2.4-8.66A7.92,7.92,0,0,0,95.13,13.62Z"/><path d="M138.25,43.51V22.85q0-4.8-2-7T130,13.68q-5.72,0-8.36,2.89T119,25.93V43.51H116V11.66h2.47l.55,4.37h.18q3.11-5,11-5,10.85,0,10.84,11.64V43.51Z"/><path d="M191.4,32.46a10.3,10.3,0,0,1-3.94,8.5Q183.52,44.1,177,44.09q-7.84,0-12-1.73v-3a30.65,30.65,0,0,0,11.81,2q5.26,0,8.36-2.42a7.66,7.66,0,0,0,3.09-6.34,7.35,7.35,0,0,0-1-4,9.5,9.5,0,0,0-3.34-2.92,42.67,42.67,0,0,0-6.8-2.84q-6.56-2.25-9.07-4.87a9.7,9.7,0,0,1-2.5-7,9.59,9.59,0,0,1,3.76-7.84,15,15,0,0,1,9.69-3,28.35,28.35,0,0,1,11.33,2.28l-1.08,2.58A26.52,26.52,0,0,0,179,2.7a12,12,0,0,0-7.55,2.19,7.18,7.18,0,0,0-2.82,6,7.82,7.82,0,0,0,.87,3.9,8,8,0,0,0,2.82,2.73A37.9,37.9,0,0,0,179,20.42a36.45,36.45,0,0,1,7.53,3.35,10.8,10.8,0,0,1,3.68,3.7A10.06,10.06,0,0,1,191.4,32.46Z"/><path d="M219.05,43.51l-.73-5h-.23a15.22,15.22,0,0,1-4.94,4.35,13.19,13.19,0,0,1-6,1.27q-4.69,0-7.3-2.4a8.58,8.58,0,0,1-2.6-6.65,8.2,8.2,0,0,1,3.88-7.24q3.88-2.58,11.23-2.72l6.07-.18V22.79c0-3-.62-5.31-1.85-6.85s-3.21-2.32-6-2.32a20,20,0,0,0-9.17,2.46l-1.08-2.52a24.28,24.28,0,0,1,10.37-2.46q5.25,0,7.84,2.73c1.73,1.81,2.59,4.65,2.59,8.49V43.51Zm-11.72-2a11,11,0,0,0,8-2.92q2.94-2.91,2.94-8.1V27.3l-5.57.24q-6.7.32-9.56,2.09a6,6,0,0,0-2.86,5.53,5.93,5.93,0,0,0,1.83,4.64A7.47,7.47,0,0,0,207.33,41.46Z"/><path d="M253.71,43.51V22.85q0-4.8-2-7t-6.27-2.18q-5.71,0-8.36,2.89t-2.66,9.36V43.51h-2.9V11.66H234l.56,4.37h.18q3.11-5,11-5,10.84,0,10.84,11.64V43.51Z"/><path d="M286.64,35.21a7.55,7.55,0,0,1-3.25,6.58c-2.17,1.54-5.25,2.3-9.23,2.3q-6.39,0-10.14-2V39a22.29,22.29,0,0,0,10.14,2.41c3.14,0,5.53-.53,7.16-1.57a4.78,4.78,0,0,0,2.45-4.18,5.09,5.09,0,0,0-1.95-4,21.4,21.4,0,0,0-6.4-3.22,36.72,36.72,0,0,1-6.71-3,9.26,9.26,0,0,1-2.91-2.82,7,7,0,0,1-1-3.82,6.51,6.51,0,0,1,3-5.65q3-2.09,8.39-2.09A25.15,25.15,0,0,1,286,13l-1.09,2.64a22.9,22.9,0,0,0-8.7-1.94A12.57,12.57,0,0,0,270,15a4,4,0,0,0-2.29,3.57,4.93,4.93,0,0,0,1.78,4q1.77,1.5,6.93,3.34a33.34,33.34,0,0,1,6.26,2.8,9.21,9.21,0,0,1,3,2.82A7,7,0,0,1,286.64,35.21Z"/></svg>
