<svg xmlns="http://www.w3.org/2000/svg" viewBox="0 0 141.72 49.68"><title>Oswald-Light</title><path d="M2.85,45.78Q0,41.88,0,34.74V14.58Q0,7.5,2.88,3.75T12.54,0q6.66,0,9.54,3.78T25,14.58V34.8q0,7.14-2.82,11t-9.6,3.87Q5.7,49.68,2.85,45.78Zm15.81-2.37q1.68-2.61,1.68-7.65v-22q0-5-1.65-7.56T12.54,3.66Q8,3.66,6.3,6.15T4.62,13.74v22q0,5.1,1.68,7.68T12.54,46Q17,46,18.66,43.41Z"/><path d="M33,47a11.45,11.45,0,0,1-2.85-7.2l3.66-1.14a10.85,10.85,0,0,0,1.86,5.82,5.09,5.09,0,0,0,4.2,1.86A4.62,4.62,0,0,0,43.35,45a5.05,5.05,0,0,0,1.23-3.63q0-3.42-4.2-7l-4.74-4.08a15.44,15.44,0,0,1-3.6-4,9.22,9.22,0,0,1-1.14-4.68,7.4,7.4,0,0,1,2.25-5.73,8.56,8.56,0,0,1,6-2.07,7.29,7.29,0,0,1,5.91,2.46A11,11,0,0,1,47.4,23l-3.12,1q-.36-6.84-4.92-6.84a4.58,4.58,0,0,0-3.24,1.11,4,4,0,0,0-1.2,3.09,6.23,6.23,0,0,0,.6,2.82,9.44,9.44,0,0,0,2.22,2.64l4.92,4.38A26,26,0,0,1,47,35.91a9.42,9.42,0,0,1,1.47,5.37A7.9,7.9,0,0,1,46,47.43a9.25,9.25,0,0,1-6.48,2.19A8.61,8.61,0,0,1,33,47Z"/><path d="M51.9,14.4h3.78l4.32,29,5.46-29h3.78l5.52,28.86L78.9,14.4h3.78L77,49.08H73l-5.58-28.2L62,49.08H57.54Z"/><path d="M88.74,47.4a8.14,8.14,0,0,1-1.92-5.52,10.71,10.71,0,0,1,1.35-5.64,12.28,12.28,0,0,1,4.17-4A76.75,76.75,0,0,1,100.8,28V25.56a25.13,25.13,0,0,0-.39-5,4.51,4.51,0,0,0-1.32-2.58,4,4,0,0,0-2.61-.78q-4.86,0-4.86,5.94v1.2l-4.32-.06q.06-5.34,2.28-7.86t7.14-2.52q4.56,0,6.51,2.76t2,8.7V42.18q0,1.68.09,3.84t.21,3.06h-3.9l-.66-4.8a8.25,8.25,0,0,1-2.67,3.81,6.89,6.89,0,0,1-4.47,1.53A6.34,6.34,0,0,1,88.74,47.4Zm9.69-2.73a9.79,9.79,0,0,0,2.37-2.91V31q-4.08,2.16-5.91,3.36A9.06,9.06,0,0,0,92.13,37a7,7,0,0,0-.93,3.81,5.68,5.68,0,0,0,1.11,3.84,3.63,3.63,0,0,0,2.85,1.26A5,5,0,0,0,98.43,44.67Z"/><path d="M112.2.48h4.38v48.6H112.2Z"/><path d="M125,46.26q-2-3.36-2-11.16V28.68q0-7.38,1.74-11.1t6.42-3.72a8.2,8.2,0,0,1,6.12,3V.48h4.38v48.6h-4.38V46.62a8,8,0,0,1-5.94,3Q127,49.62,125,46.26Zm12.33-2.4V19.74q-2.76-2.46-5.16-2.46a3.71,3.71,0,0,0-3.75,2.34q-1,2.34-1,7.62v8.22q0,5.64,1,8.16a3.78,3.78,0,0,0,3.87,2.52A7.58,7.58,0,0,0,137.34,43.86Z"/></svg>
