<svg xmlns="http://www.w3.org/2000/svg" viewBox="0 0 191.58 75.36"><title>Pacifico-Regular</title><path d="M44,30a19.73,19.73,0,0,1-7.68,7,29.47,29.47,0,0,1-12,3.18L21.72,54.6q-1.5,8.34-8.16,8.34a11.54,11.54,0,0,1-6.75-2.16,14.7,14.7,0,0,1-4.95-6.6A28.3,28.3,0,0,1,0,43.26Q0,31.08,3.93,22.59A29,29,0,0,1,14.49,9.87,26.62,26.62,0,0,1,29.1,5.64a21.09,21.09,0,0,1,9.57,2A14,14,0,0,1,44.61,13a14.71,14.71,0,0,1,2,7.65A17.42,17.42,0,0,1,44,30Zm-6.3-8.82a8.51,8.51,0,0,0-2.61-6.45Q32.46,12.24,27,12.24a16.11,16.11,0,0,0-10.77,3.9A24.87,24.87,0,0,0,9.15,27,46.59,46.59,0,0,0,6.66,42.78a26.28,26.28,0,0,0,.75,6.6,13.19,13.19,0,0,0,1.92,4.47q1.17,1.59,2.25,1.59,1.5,0,2.28-4.14l2-11.34q-2.34-.36-2-.3a3.38,3.38,0,0,1-2.34-1.11,3.66,3.66,0,0,1-.54-2.07,2.9,2.9,0,0,1,.75-2.1,2.74,2.74,0,0,1,2.07-.78,5,5,0,0,1,.9.06q1.44.24,2.22.3.78-4.68,2.22-12.54a4.18,4.18,0,0,1,1.65-2.91,5.29,5.29,0,0,1,3-.87,4.34,4.34,0,0,1,2.85.75,3,3,0,0,1,.87,2.37,8.23,8.23,0,0,1-.12,1.56L25.38,34Q37.68,32.4,37.68,21.18Z"/><path d="M44.76,54a10.79,10.79,0,0,1-2.22-7.08,19.51,19.51,0,0,1,2.22-9.09,19,19,0,0,1,5.91-6.9,13.33,13.33,0,0,1,7.83-2.61,2.34,2.34,0,0,1,1.77.51A4.31,4.31,0,0,1,61,30.66a14.09,14.09,0,0,1,2.64-.24q2.94,0,2.94,2.1a45,45,0,0,1-.9,6,58.23,58.23,0,0,0-1.38,9.6,2.18,2.18,0,0,0,.45,1.44,1.45,1.45,0,0,0,1.17.54,4.56,4.56,0,0,0,2.76-1.47,51.32,51.32,0,0,0,4.38-4.77A2.11,2.11,0,0,1,74.7,43a1.39,1.39,0,0,1,1.23.72,3.72,3.72,0,0,1,.45,2,5.52,5.52,0,0,1-1.14,3.72A30.23,30.23,0,0,1,70,54.6a8.9,8.9,0,0,1-5.34,2.1,5.6,5.6,0,0,1-3.63-1.35,8.23,8.23,0,0,1-2.49-3.69q-3.12,5-7.86,5A7.3,7.3,0,0,1,44.76,54Zm10.62-4.92a10.12,10.12,0,0,0,1.74-4.14l2.22-11a7.27,7.27,0,0,0-4.65,1.89,12.73,12.73,0,0,0-3.39,4.83A16.26,16.26,0,0,0,50,47a4.25,4.25,0,0,0,.75,2.76,2.55,2.55,0,0,0,2.07.9A3.29,3.29,0,0,0,55.38,49.08Z"/><path d="M73.83,53.37a12,12,0,0,1-3.27-8.79,18.08,18.08,0,0,1,1.92-8.52,14.62,14.62,0,0,1,5-5.64,11.64,11.64,0,0,1,6.42-2A6.69,6.69,0,0,1,89,30.39a7,7,0,0,1,1.83,5,7.76,7.76,0,0,1-1.11,4.26,3.34,3.34,0,0,1-2.91,1.74A2.89,2.89,0,0,1,85,40.86a1.8,1.8,0,0,1-.69-1.5,4.48,4.48,0,0,1,.12-1q.12-.54.18-.78a5.33,5.33,0,0,0,.3-1.68,1.7,1.7,0,0,0-.39-1.2,1.44,1.44,0,0,0-1.11-.42,3.57,3.57,0,0,0-2.58,1.23,8.76,8.76,0,0,0-1.92,3.33,14.17,14.17,0,0,0-.72,4.62q0,7,6.06,7a10.71,10.71,0,0,0,5.31-1.65,21.64,21.64,0,0,0,5.61-5A2.11,2.11,0,0,1,96.78,43a1.39,1.39,0,0,1,1.23.72,3.72,3.72,0,0,1,.45,2,5.81,5.81,0,0,1-1.14,3.72,19.46,19.46,0,0,1-6.75,5.37A17.48,17.48,0,0,1,83,56.7Q77.1,56.7,73.83,53.37Z"/><path d="M95.31,53.94a13.4,13.4,0,0,1-1.77-7.32,44.8,44.8,0,0,1,.69-6.93A64.71,64.71,0,0,1,96,31.8a5.08,5.08,0,0,1,1.44-2.64,4.61,4.61,0,0,1,2.88-.72q3.06,0,3.06,2a47,47,0,0,1-1.14,7,51.89,51.89,0,0,0-1.44,8.94,6.33,6.33,0,0,0,.48,2.76,1.67,1.67,0,0,0,1.62,1,4.52,4.52,0,0,0,2.7-1.5,53.7,53.7,0,0,0,4.32-4.74,2.11,2.11,0,0,1,1.62-.84,1.39,1.39,0,0,1,1.23.72,3.72,3.72,0,0,1,.45,2,5.52,5.52,0,0,1-1.14,3.72Q106.14,56.7,101,56.7A6.24,6.24,0,0,1,95.31,53.94Zm2.37-30.63A4.24,4.24,0,0,1,96.42,20a4.43,4.43,0,0,1,1.65-3.51,6.11,6.11,0,0,1,4.11-1.41,5.67,5.67,0,0,1,3.6,1.08,3.66,3.66,0,0,1,1.38,3.06,4.88,4.88,0,0,1-1.56,3.81,5.94,5.94,0,0,1-4.14,1.41A5.38,5.38,0,0,1,97.68,23.31Z"/><path d="M150.75,43.74a3.72,3.72,0,0,1,.45,2,5.52,5.52,0,0,1-1.14,3.72,28.51,28.51,0,0,1-5.43,5.13,10.19,10.19,0,0,1-6,2.13A6.24,6.24,0,0,1,133,53.94a13.4,13.4,0,0,1-1.77-7.32,40.18,40.18,0,0,1,.51-5.76,67.7,67.7,0,0,1,1.35-6.72q-6,0-14.22.54a101.25,101.25,0,0,0-1.32,15.66A113.53,113.53,0,0,0,118.17,62q.63,6.09,1.89,6.09.6,0,1.26-2.1a32.35,32.35,0,0,0,1.08-5.76,71.44,71.44,0,0,0,.42-8.1q0-4.86-.54-10.5a3.39,3.39,0,0,1,.57-2.49,2.57,2.57,0,0,1,2.07-.81,2.39,2.39,0,0,1,1.86.66,3.72,3.72,0,0,1,.72,2.22q.3,4.38.3,10.44a52.2,52.2,0,0,1-2.37,16.74q-2.37,7-7.35,7-4.26,0-6.12-6.15T110.1,50.76a114.26,114.26,0,0,1,1.14-15.54,7.9,7.9,0,0,1-1.08.06,3.47,3.47,0,0,1-2.49-.66,2.86,2.86,0,0,1-.63-2,3.45,3.45,0,0,1,.81-2.4,4.61,4.61,0,0,1,3.09-1.08,10.34,10.34,0,0,1,1.32-.06,91.63,91.63,0,0,1,4.14-14.7,36.65,36.65,0,0,1,5.76-10.47Q125.4,0,129,0a5,5,0,0,1,4.35,2.19,9.58,9.58,0,0,1,1.53,5.61q0,12.06-9.72,20.52Q132.48,28,137,28a5.42,5.42,0,0,1,2.76.63,2.57,2.57,0,0,1,1.08,2.43,25.85,25.85,0,0,1-.39,3.66q-.39,2.46-.87,4.92a42,42,0,0,0-1.08,6.72,6.33,6.33,0,0,0,.48,2.76,1.67,1.67,0,0,0,1.62,1,4.49,4.49,0,0,0,2.61-1.41q1.59-1.41,4.71-4.83a2.11,2.11,0,0,1,1.62-.84A1.39,1.39,0,0,1,150.75,43.74ZM124.2,12a112.33,112.33,0,0,0-4,15.12,18.6,18.6,0,0,0,5-5.22,25.09,25.09,0,0,0,3-6.45,21.7,21.7,0,0,0,1-6.15q0-3.54-1.32-3.54T124.2,12Zm11.52,11.31A4.24,4.24,0,0,1,134.46,20a4.43,4.43,0,0,1,1.65-3.51,6.11,6.11,0,0,1,4.11-1.41,5.67,5.67,0,0,1,3.6,1.08,3.66,3.66,0,0,1,1.38,3.06,4.88,4.88,0,0,1-1.56,3.81,5.94,5.94,0,0,1-4.14,1.41A5.38,5.38,0,0,1,135.72,23.31Z"/><path d="M148.65,53.37a12,12,0,0,1-3.27-8.79,18.08,18.08,0,0,1,1.92-8.52,14.62,14.62,0,0,1,5-5.64,11.64,11.64,0,0,1,6.42-2,6.69,6.69,0,0,1,5.13,1.95,7,7,0,0,1,1.83,5,7.76,7.76,0,0,1-1.11,4.26,3.34,3.34,0,0,1-2.91,1.74,2.89,2.89,0,0,1-1.83-.54,1.8,1.8,0,0,1-.69-1.5,4.48,4.48,0,0,1,.12-1q.12-.54.18-.78a5.33,5.33,0,0,0,.3-1.68,1.7,1.7,0,0,0-.39-1.2,1.44,1.44,0,0,0-1.11-.42,3.57,3.57,0,0,0-2.58,1.23,8.76,8.76,0,0,0-1.92,3.33A14.17,14.17,0,0,0,153,43.5q0,7,6.06,7a10.71,10.71,0,0,0,5.31-1.65,21.64,21.64,0,0,0,5.61-5A2.11,2.11,0,0,1,171.6,43a1.39,1.39,0,0,1,1.23.72,3.72,3.72,0,0,1,.45,2,5.81,5.81,0,0,1-1.14,3.72,19.46,19.46,0,0,1-6.75,5.37,17.48,17.48,0,0,1-7.59,1.89Q151.92,56.7,148.65,53.37Z"/><path d="M172.53,54.93a11,11,0,0,1-3.75-4.65,15.25,15.25,0,0,1-1.26-6.18A18.59,18.59,0,0,1,169.23,36a13.8,13.8,0,0,1,4.65-5.58,11.43,11.43,0,0,1,6.6-2,10.27,10.27,0,0,1,6.06,1.77,10.91,10.91,0,0,1,3.78,4.65A15.25,15.25,0,0,1,191.58,41a18.32,18.32,0,0,1-1.74,8.13,13.93,13.93,0,0,1-4.71,5.58,11.47,11.47,0,0,1-6.57,2A10.14,10.14,0,0,1,172.53,54.93ZM182.67,48a12.17,12.17,0,0,0,1.41-6.48,8.55,8.55,0,0,0-1.2-5A3.48,3.48,0,0,0,180,34.86a4.15,4.15,0,0,0-3.57,2.19Q175,39.24,175,43.56a8.51,8.51,0,0,0,1.2,5,3.61,3.61,0,0,0,3,1.62A4.07,4.07,0,0,0,182.67,48Z"/></svg>
