<svg xmlns="http://www.w3.org/2000/svg" viewBox="0 0 357.96 56.1"><title>PathwayGothicOne-Regular</title><path d="M0,44.4V2.4H7.44a8.52,8.52,0,0,1,6.93,2.91Q16.8,8.22,16.8,15.84v.3q0,7.62-2.43,10.5a8.56,8.56,0,0,1-6.93,2.88H4.8V44.4ZM12.06,16.92V15.06q0-8.82-4.62-8.82H4.8v19.5H7.44Q12.06,25.74,12.06,16.92Z"/><path d="M22.38,26.61a5.83,5.83,0,0,1,4.8-2.07,5.82,5.82,0,0,1,4.92,2.4v-6.3q0-5.76-3.6-5.76-3.06,0-5.82,3.54l-1.62-3.36a11.48,11.48,0,0,1,3.51-2.82,9.12,9.12,0,0,1,4.35-1.14q7.8,0,7.8,10.56V44.4H33.9l-1-3.9a6.64,6.64,0,0,1-2.19,3.6,5.45,5.45,0,0,1-3.45,1.2,6,6,0,0,1-4.92-2.07q-1.68-2.07-1.68-7.77V34.38Q20.7,28.68,22.38,26.61Zm5.88,14.91A3.28,3.28,0,0,0,31,40.26Q32,39,32.1,35.7V34.08Q32,30.54,31,29.16a3.18,3.18,0,0,0-2.73-1.38q-3,0-3,5.7v2.34Q25.26,41.52,28.26,41.52Z"/><path d="M41.28,15.72V12h3.18l1.62-8h2.76v8H53.1v3.72H48.84V38.28q0,3.18,1.74,3.18a4,4,0,0,0,2.4-1l.9,3.54a7.89,7.89,0,0,1-4.2,1.26q-5.4,0-5.4-8V15.72Z"/><path d="M62.82,44.4H58.2V0h4.38V15.84Q64,11.1,68.52,11.1a5.25,5.25,0,0,1,4.77,2.76q1.65,2.76,1.65,10.08V44.4H70.32V22.32q0-7.5-2.94-7.5-4.44,0-4.56,12.84Z"/><path d="M98.94,44.4,94.62,19.2,90.3,44.4H85.68L79.74,12H84.3l3.9,24.24L92.28,12H96.9l4.2,24.18L105,12h4.5l-5.88,32.4Z"/><path d="M115.32,26.61a6.41,6.41,0,0,1,9.72.33v-6.3q0-5.76-3.6-5.76-3.06,0-5.82,3.54L114,15.06a11.48,11.48,0,0,1,3.51-2.82,9.12,9.12,0,0,1,4.35-1.14q7.8,0,7.8,10.56V44.4h-2.82l-1-3.9a6.64,6.64,0,0,1-2.19,3.6,5.45,5.45,0,0,1-3.45,1.2,6,6,0,0,1-4.92-2.07q-1.68-2.07-1.68-7.77V34.38Q113.64,28.68,115.32,26.61Zm5.88,14.91a3.28,3.28,0,0,0,2.73-1.26q1-1.26,1.11-4.56V34.08q-.12-3.54-1.11-4.92a3.18,3.18,0,0,0-2.73-1.38q-3,0-3,5.7v2.34Q118.2,41.52,121.2,41.52Z"/><path d="M142.23,54.36A5.73,5.73,0,0,1,138,56.1q-2.55,0-5.37-2.7l1.62-3.12q2.22,2,3.84,2,2.52,0,3.36-4.92l.48-2.76L134,12h4.62l5.16,23.52L148.26,12h4.68l-8.28,37.32A10.1,10.1,0,0,1,142.23,54.36Z"/><path d="M174.3,26V22.14h9.42v22.2h-2.94l-.84-3.9q-1.8,4.86-6.48,4.86a6.76,6.76,0,0,1-5.85-2.91q-2.07-2.91-2.07-10.53V15.24q0-7.86,2.4-10.8a7.9,7.9,0,0,1,6.45-2.94,8.44,8.44,0,0,1,6.18,2.1q2.13,2.1,2.61,7.5l-4.38,1.08a12.25,12.25,0,0,0-1.35-5.31,3.31,3.31,0,0,0-2.94-1.47,3.47,3.47,0,0,0-3.09,1.89q-1.14,1.89-1.14,6.93V32.76q0,4.92,1.11,6.78a3.48,3.48,0,0,0,3.15,1.86q4.56,0,4.68-8.1V26Z"/><path d="M206.88,23.7v9q0,7.14-2.19,9.87a8.5,8.5,0,0,1-12.48,0Q190,39.84,190,32.7v-9q0-7.14,2.19-9.87a8.5,8.5,0,0,1,12.48,0Q206.88,16.56,206.88,23.7Zm-4.62,9.84V22.86q0-8-3.78-8t-3.9,8V33.54q0,8,3.9,8T202.26,33.54Z"/><path d="M211,15.72V12h3.18l1.62-8h2.76v8h4.26v3.72h-4.26V38.28q0,3.18,1.74,3.18a4,4,0,0,0,2.4-1l.9,3.54a7.89,7.89,0,0,1-4.2,1.26q-5.4,0-5.4-8V15.72Z"/><path d="M232.56,44.4h-4.62V0h4.38V15.84q1.44-4.74,5.94-4.74A5.25,5.25,0,0,1,243,13.86q1.65,2.76,1.65,10.08V44.4h-4.62V22.32q0-7.5-2.94-7.5-4.44,0-4.56,12.84Z"/><path d="M251.64,5.64V0h5V5.64Zm.18,38.76V12h4.62V44.4Z"/><path d="M276.72,43.05A7.46,7.46,0,0,1,271,45.3a7,7,0,0,1-5.73-2.55q-2.1-2.55-2.1-8.85V23.7q0-7.14,2.1-9.87A6.84,6.84,0,0,1,271,11.1a7.8,7.8,0,0,1,5.67,2q2,2,2.46,7.14l-4.2,1.14q-.24-6.54-3.66-6.54a2.88,2.88,0,0,0-2.64,1.56q-.9,1.56-.9,6.48V34.32q0,4.2.93,5.7a3,3,0,0,0,2.67,1.5,3,3,0,0,0,2.7-1.47q1-1.47,1.38-5.67l3.9.6Q278.82,40.8,276.72,43.05Z"/><path d="M311.34,14.94V31.86q0,7.62-2.43,10.53a9.78,9.78,0,0,1-13.92,0q-2.43-2.91-2.43-10.53V14.94q0-7.62,2.43-10.53a9.78,9.78,0,0,1,13.92,0Q311.34,7.32,311.34,14.94ZM306.6,32.76V14q0-8.64-4.62-8.64a3.91,3.91,0,0,0-3.45,1.86Q297.3,9.12,297.3,14V32.76q0,4.92,1.23,6.78A3.91,3.91,0,0,0,302,41.4Q306.6,41.4,306.6,32.76Z"/><path d="M322.68,44.4h-4.62V12h2.82l1.2,5.16q1.26-6.06,6.3-6.06a5.27,5.27,0,0,1,4.77,2.76q1.65,2.76,1.65,10.08V44.4h-4.62V22.32c0-5-1-7.5-2.94-7.5q-4.46,0-4.56,12.84Z"/><path d="M355.38,43.26a8,8,0,0,1-5.91,2,7.51,7.51,0,0,1-6.12-2.73q-2.25-2.73-2.25-9.87v-9q0-7.14,2.25-9.87a7.73,7.73,0,0,1,6.33-2.73,7.36,7.36,0,0,1,6.18,2.7c1.39,1.8,2.1,5.1,2.1,9.9v6.42h-12.3v3.42q0,8,3.84,8a3.45,3.45,0,0,0,2.88-1.32q1-1.32,1.44-4.92l4,.66C357.56,39.48,356.73,41.9,355.38,43.26Zm-9.72-20.4v3.42h7.68V22.86q0-8-3.78-8C347,14.82,345.66,17.5,345.66,22.86Z"/></svg>
