<svg xmlns="http://www.w3.org/2000/svg" viewBox="0 0 415.26 58.32"><title>PlayfairDisplay-Regular</title><path d="M10.44,29.88v10.8a8.29,8.29,0,0,0,.48,3.3,2.56,2.56,0,0,0,1.68,1.38,17.74,17.74,0,0,0,3.9.48V47q-3.12-.18-8.82-.18Q2.52,46.86,0,47v-1.2a12,12,0,0,0,3.15-.48A2.16,2.16,0,0,0,4.5,44a10.84,10.84,0,0,0,.36-3.3V10.92a10.84,10.84,0,0,0-.36-3.3A2.16,2.16,0,0,0,3.15,6.24,12,12,0,0,0,0,5.76V4.56q2.52.18,7.32.18l6.48-.06q1.14-.06,2.58-.06,7,0,10.74,3.21a10.8,10.8,0,0,1,3.72,8.61,14.33,14.33,0,0,1-1.47,6.33,12,12,0,0,1-5,5.07,18.49,18.49,0,0,1-9.33,2Zm1.65-23.7a2.37,2.37,0,0,0-1.29,1.5,10.92,10.92,0,0,0-.36,3.24V28.68h4q5.88,0,8.13-3.15a14.22,14.22,0,0,0,2.25-8.43q0-5.82-2.31-8.58T14.88,5.76A7.09,7.09,0,0,0,12.09,6.18Z"/><path d="M43.32,41.46q0,2.46,1,3.39a5.26,5.26,0,0,0,3.54.93V47q-5.52-.24-7.26-.24T33.36,47V45.78a5.26,5.26,0,0,0,3.54-.93q1-.93,1-3.39V7.2a6.38,6.38,0,0,0-1-4,4.32,4.32,0,0,0-3.54-1.26V.66q1.86.18,3.72.18A19.6,19.6,0,0,0,43.32,0Z"/><path d="M53.37,45.57a7.23,7.23,0,0,1-1.83-5.25A6.64,6.64,0,0,1,53,35.88a11.08,11.08,0,0,1,3.48-2.76A43.36,43.36,0,0,1,61.8,31a28,28,0,0,0,5-2.1,2.9,2.9,0,0,0,1.62-2.58V22.56q0-3.48-1.47-4.77a6,6,0,0,0-4.11-1.29q-4.2,0-5.94,2.16a3.77,3.77,0,0,1,2,1.26,3.59,3.59,0,0,1,.81,2.4,3,3,0,0,1-1,2.37,3.52,3.52,0,0,1-2.46.87,3,3,0,0,1-2.52-1A4,4,0,0,1,52.92,22a4,4,0,0,1,.69-2.4,8.49,8.49,0,0,1,2.07-1.92A12.45,12.45,0,0,1,59.34,16a17,17,0,0,1,4.86-.66q4.68,0,7.08,2.22a6.77,6.77,0,0,1,2,3.33A20.93,20.93,0,0,1,73.8,26V42.66a4.18,4.18,0,0,0,.42,2.16,1.57,1.57,0,0,0,1.44.66A2.87,2.87,0,0,0,77,45.15a7.83,7.83,0,0,0,1.35-.93l.66,1A14.69,14.69,0,0,1,76.35,47a6.69,6.69,0,0,1-2.79.51q-2.88,0-4-1.44a6.12,6.12,0,0,1-1.14-3.9,10.47,10.47,0,0,1-4.14,4.17A11.64,11.64,0,0,1,59,47.46Q55.2,47.46,53.37,45.57Zm15-5.07V28.74a4.17,4.17,0,0,1-1.5,1.38q-1,.54-2.94,1.44a27.49,27.49,0,0,0-3.69,1.83,8.05,8.05,0,0,0-2.43,2.37,6.69,6.69,0,0,0-1,3.84,5.69,5.69,0,0,0,1.32,4.08,4.59,4.59,0,0,0,3.48,1.38Q65.58,45.06,68.4,40.5Z"/><path d="M108.36,16.14v1.2a3.38,3.38,0,0,0-2.13,1.08,9.5,9.5,0,0,0-1.77,3.12l-9.84,25.8-2,5.22A10.67,10.67,0,0,1,90,56.76,5.21,5.21,0,0,1,87.84,58a9.14,9.14,0,0,1-2.52.36,4.41,4.41,0,0,1-2.94-1,3.27,3.27,0,0,1-1.14-2.64,3.19,3.19,0,0,1,.84-2.31,3.1,3.1,0,0,1,2.34-.87,3.23,3.23,0,0,1,2.19.75,2.59,2.59,0,0,1,.87,2.07,2.91,2.91,0,0,1-1.62,2.7.84.84,0,0,0,.36.06q3.3,0,5.1-4.68L93.42,47,82.56,20.76a6.81,6.81,0,0,0-2-2.7,3.73,3.73,0,0,0-2-.66V16.14a42.92,42.92,0,0,0,5.88.36q3,0,7.8-.36V17.4a10,10,0,0,0-3.15.36,1.63,1.63,0,0,0-1,1.74,7.65,7.65,0,0,0,.72,2.94l7.2,17.88L102.6,23a8.81,8.81,0,0,0,.66-2.76,2.22,2.22,0,0,0-1.08-2,8,8,0,0,0-3.42-.84v-1.2q3.18.18,5,.18Q106.44,16.32,108.36,16.14Z"/><path d="M130.32,1.74a4.6,4.6,0,0,1,1.86,3.72A3.08,3.08,0,0,1,129,8.64a3.36,3.36,0,0,1-2.34-.87,3,3,0,0,1-1-2.37,3,3,0,0,1,.69-2,3.26,3.26,0,0,1,1.83-1,1.61,1.61,0,0,0-1-1,4.74,4.74,0,0,0-2-.36,4.53,4.53,0,0,0-2.34.6,4,4,0,0,0-1.56,1.62,9.29,9.29,0,0,0-.87,3.54q-.21,2.34-.21,7.86V16.2h6.42v1.2H120.3V40.86q0,2.76,1.59,3.84a8.54,8.54,0,0,0,4.77,1.08V47L125.22,47q-6.12-.18-7.8-.18t-7.08.24V45.78a5.26,5.26,0,0,0,3.54-.93q1-.93,1-3.39V17.4h-4.8V16.2h4.8A38.67,38.67,0,0,1,115.56,8,11.35,11.35,0,0,1,118,3.12,8.45,8.45,0,0,1,121,.93,10.11,10.11,0,0,1,125.1.12,8.29,8.29,0,0,1,130.32,1.74Z"/><path d="M132.63,45.57a7.23,7.23,0,0,1-1.83-5.25,6.64,6.64,0,0,1,1.47-4.44,11.08,11.08,0,0,1,3.48-2.76A43.36,43.36,0,0,1,141.06,31a28,28,0,0,0,5-2.1,2.9,2.9,0,0,0,1.62-2.58V22.56q0-3.48-1.47-4.77a6,6,0,0,0-4.11-1.29q-4.2,0-5.94,2.16a3.77,3.77,0,0,1,2,1.26,3.59,3.59,0,0,1,.81,2.4,3,3,0,0,1-1,2.37,3.52,3.52,0,0,1-2.46.87,3,3,0,0,1-2.52-1,4,4,0,0,1-.84-2.55,4,4,0,0,1,.69-2.4,8.49,8.49,0,0,1,2.07-1.92A12.45,12.45,0,0,1,138.6,16a17,17,0,0,1,4.86-.66q4.68,0,7.08,2.22a6.77,6.77,0,0,1,2,3.33,20.93,20.93,0,0,1,.51,5.13V42.66a4.18,4.18,0,0,0,.42,2.16,1.57,1.57,0,0,0,1.44.66,2.87,2.87,0,0,0,1.35-.33,7.83,7.83,0,0,0,1.35-.93l.66,1A14.69,14.69,0,0,1,155.61,47a6.69,6.69,0,0,1-2.79.51q-2.88,0-4-1.44a6.12,6.12,0,0,1-1.14-3.9,10.47,10.47,0,0,1-4.14,4.17,11.64,11.64,0,0,1-5.28,1.17Q134.46,47.46,132.63,45.57Zm15-5.07V28.74a4.17,4.17,0,0,1-1.5,1.38q-1,.54-2.94,1.44a27.49,27.49,0,0,0-3.69,1.83,8.05,8.05,0,0,0-2.43,2.37,6.69,6.69,0,0,0-1,3.84,5.69,5.69,0,0,0,1.32,4.08,4.59,4.59,0,0,0,3.48,1.38Q144.84,45.06,147.66,40.5Z"/><path d="M170,41.46q0,2.46,1,3.39a5.26,5.26,0,0,0,3.54.93V47q-5.52-.24-7.26-.24t-7.26.24V45.78a5.26,5.26,0,0,0,3.54-.93q1-.93,1-3.39V22.68a6.38,6.38,0,0,0-1-4,4.32,4.32,0,0,0-3.54-1.26V16.14q1.92.18,3.72.18a19.6,19.6,0,0,0,6.24-.84Zm-.42-39.18A3.69,3.69,0,0,1,170.76,5a3.69,3.69,0,0,1-1.14,2.7,3.77,3.77,0,0,1-5.4,0A3.69,3.69,0,0,1,163.08,5a3.69,3.69,0,0,1,1.14-2.7,3.77,3.77,0,0,1,5.4,0Z"/><path d="M200.25,16.68A4.36,4.36,0,0,1,201.78,20a4,4,0,0,1-.93,2.67,3.08,3.08,0,0,1-2.49,1.11,3.24,3.24,0,0,1-2.25-.84,2.92,2.92,0,0,1-.93-2.28,3.73,3.73,0,0,1,2-3.24,1.44,1.44,0,0,0-1.26-.6,6,6,0,0,0-4.26,1.83,12.75,12.75,0,0,0-3,4.47,13.18,13.18,0,0,0-1.08,5V40.86q0,2.76,1.59,3.84A8.54,8.54,0,0,0,194,45.78V47L192.54,47q-6.12-.18-7.8-.18t-7.08.24V45.78a5.26,5.26,0,0,0,3.54-.93q1-.93,1-3.39V22.68a6.38,6.38,0,0,0-1-4,4.32,4.32,0,0,0-3.54-1.26V16.14q1.92.18,3.72.18a19.6,19.6,0,0,0,6.24-.84V23a14.2,14.2,0,0,1,3.45-5.34,7.33,7.33,0,0,1,5.25-2.34A5.64,5.64,0,0,1,200.25,16.68Z"/><path d="M251.1,9.87q5.28,5.31,5.28,15.45a24.33,24.33,0,0,1-2.58,11.46,18,18,0,0,1-7.47,7.59A24,24,0,0,1,234.66,47L231.18,47q-3.36-.12-4.92-.12-4.92,0-7.44.18v-1.2a12,12,0,0,0,3.15-.48A2.16,2.16,0,0,0,223.32,44a10.84,10.84,0,0,0,.36-3.3V10.92a10.84,10.84,0,0,0-.36-3.3A2.16,2.16,0,0,0,222,6.24a12,12,0,0,0-3.15-.48V4.56q2.1.18,5.82.18l5.1-.06q4.08-.12,5.46-.12Q245.82,4.56,251.1,9.87ZM230.91,6.06a2.37,2.37,0,0,0-1.29,1.5,10.92,10.92,0,0,0-.36,3.24v30a10.92,10.92,0,0,0,.36,3.24,2.37,2.37,0,0,0,1.29,1.5,7.3,7.3,0,0,0,2.85.42q6.36,0,10-2.31a12.23,12.23,0,0,0,5.13-6.75,36.72,36.72,0,0,0,1.47-11.34,32.76,32.76,0,0,0-1.62-11.25,12.26,12.26,0,0,0-5.25-6.51q-3.63-2.16-9.81-2.16A7.09,7.09,0,0,0,230.91,6.06Z"/><path d="M271.38,41.46q0,2.46,1,3.39a5.26,5.26,0,0,0,3.54.93V47q-5.52-.24-7.26-.24t-7.26.24V45.78a5.26,5.26,0,0,0,3.54-.93q1-.93,1-3.39V22.68a6.38,6.38,0,0,0-1-4,4.32,4.32,0,0,0-3.54-1.26V16.14q1.92.18,3.72.18a19.6,19.6,0,0,0,6.24-.84ZM271,2.28A3.69,3.69,0,0,1,272.1,5,3.69,3.69,0,0,1,271,7.68a3.77,3.77,0,0,1-5.4,0A3.69,3.69,0,0,1,264.42,5a3.69,3.69,0,0,1,1.14-2.7,3.77,3.77,0,0,1,5.4,0Z"/><path d="M293.58,16a9.06,9.06,0,0,1,2.7,1.56,2,2,0,0,0,1.08.48q1.08,0,1.32-2.64h1.38q-.24,2.94-.24,10.2h-1.38A15.11,15.11,0,0,0,295.89,19a6.51,6.51,0,0,0-5.61-2.58,5.12,5.12,0,0,0-3.54,1.23,4.31,4.31,0,0,0-1.38,3.39,4.71,4.71,0,0,0,1.44,3.51A28.22,28.22,0,0,0,291.42,28q.54.3,1.62,1a51.38,51.38,0,0,1,4.44,3.18,11.78,11.78,0,0,1,2.73,3.18,8.06,8.06,0,0,1,1.05,4.14,7.28,7.28,0,0,1-3,6.18A11.83,11.83,0,0,1,291,47.88a12.38,12.38,0,0,1-4.74-.84,12.45,12.45,0,0,1-2.46-1.62.75.75,0,0,0-.54-.24q-.42,0-.75.6a5.41,5.41,0,0,0-.51,1.68h-1.38q.24-3.42.24-12h1.38q.66,5.64,2.4,8.43t5.94,2.79a5.57,5.57,0,0,0,3.72-1.38A5.37,5.37,0,0,0,295.92,41a5.44,5.44,0,0,0-1.59-4,30.35,30.35,0,0,0-5.19-3.9q-2.94-1.86-4.53-3.06a10.74,10.74,0,0,1-2.67-2.94A7.58,7.58,0,0,1,280.86,23a6.89,6.89,0,0,1,2.52-5.76,10,10,0,0,1,6.36-2A10.44,10.44,0,0,1,293.58,16Z"/><path d="M330.69,17a11.41,11.41,0,0,1,4,5.1,20.34,20.34,0,0,1,1.44,8,25,25,0,0,1-1.47,8.64,14.8,14.8,0,0,1-4.56,6.54,11.8,11.8,0,0,1-7.71,2.52,9.38,9.38,0,0,1-4.14-.9,7.36,7.36,0,0,1-2.88-2.34v7.68a3.73,3.73,0,0,0,1.44,3.39,8.06,8.06,0,0,0,4.32.93V57.9l-1.38-.06q-5.58-.18-7.26-.18-1.44,0-6.48.24V56.64a4.55,4.55,0,0,0,3.09-.81,3.89,3.89,0,0,0,.87-2.91V22.68a6.38,6.38,0,0,0-1-4,4.32,4.32,0,0,0-3.54-1.26V16.14q1.86.18,3.72.18a19.6,19.6,0,0,0,6.24-.84v6.36A10.7,10.7,0,0,1,319.2,17a10.43,10.43,0,0,1,11.49,0Zm-.39,14q0-13.92-7-13.92a7.07,7.07,0,0,0-4.86,1.95,11.14,11.14,0,0,0-3.12,5.61v18a6.77,6.77,0,0,0,2.46,2.79,7,7,0,0,0,3.9,1Q330.3,46.5,330.3,31Z"/><path d="M350.22,41.46q0,2.46,1,3.39a5.26,5.26,0,0,0,3.54.93V47q-5.52-.24-7.26-.24t-7.26.24V45.78a5.26,5.26,0,0,0,3.54-.93q1-.93,1-3.39V7.2a6.38,6.38,0,0,0-1-4,4.32,4.32,0,0,0-3.54-1.26V.66q1.86.18,3.72.18A19.6,19.6,0,0,0,350.22,0Z"/><path d="M360.27,45.57a7.19,7.19,0,0,1-1.83-5.25,6.64,6.64,0,0,1,1.47-4.44,11,11,0,0,1,3.48-2.76A43.36,43.36,0,0,1,368.7,31a28,28,0,0,0,5-2.1,2.9,2.9,0,0,0,1.62-2.58V22.56q0-3.48-1.47-4.77a6,6,0,0,0-4.11-1.29q-4.2,0-5.94,2.16a3.77,3.77,0,0,1,2,1.26,3.59,3.59,0,0,1,.81,2.4,3.07,3.07,0,0,1-1,2.37,3.52,3.52,0,0,1-2.46.87,3,3,0,0,1-2.52-1,4,4,0,0,1-.84-2.55,4,4,0,0,1,.69-2.4,8.3,8.3,0,0,1,2.07-1.92A12.45,12.45,0,0,1,366.24,16a16.9,16.9,0,0,1,4.86-.66q4.68,0,7.08,2.22a6.77,6.77,0,0,1,2,3.33A21.43,21.43,0,0,1,380.7,26V42.66a4.18,4.18,0,0,0,.42,2.16,1.57,1.57,0,0,0,1.44.66,2.87,2.87,0,0,0,1.35-.33,7.83,7.83,0,0,0,1.35-.93l.66,1A14.69,14.69,0,0,1,383.25,47a6.72,6.72,0,0,1-2.79.51q-2.88,0-4-1.44a6.12,6.12,0,0,1-1.14-3.9,10.47,10.47,0,0,1-4.14,4.17,11.67,11.67,0,0,1-5.28,1.17Q362.1,47.46,360.27,45.57Zm15-5.07V28.74a4.17,4.17,0,0,1-1.5,1.38q-1,.54-2.94,1.44a26.33,26.33,0,0,0-3.69,1.83,8.05,8.05,0,0,0-2.43,2.37,6.69,6.69,0,0,0-1,3.84A5.69,5.69,0,0,0,365,43.68a4.59,4.59,0,0,0,3.48,1.38Q372.48,45.06,375.3,40.5Z"/><path d="M415.26,16.14v1.2a3.36,3.36,0,0,0-2.13,1.08,9.32,9.32,0,0,0-1.77,3.12l-9.84,25.8-2,5.22a10.79,10.79,0,0,1-2.58,4.2,5.21,5.21,0,0,1-2.16,1.2,9.14,9.14,0,0,1-2.52.36,4.39,4.39,0,0,1-2.94-1,3.27,3.27,0,0,1-1.14-2.64,3.14,3.14,0,0,1,.84-2.31,3.09,3.09,0,0,1,2.34-.87,3.27,3.27,0,0,1,2.19.75,2.62,2.62,0,0,1,.87,2.07,2.91,2.91,0,0,1-1.62,2.7.81.81,0,0,0,.36.06c2.19,0,3.9-1.56,5.1-4.68l2.1-5.46L389.46,20.76a7,7,0,0,0-2-2.7,3.78,3.78,0,0,0-2-.66V16.14a42.72,42.72,0,0,0,5.88.36q3,0,7.8-.36V17.4a10,10,0,0,0-3.15.36,1.63,1.63,0,0,0-1,1.74,7.65,7.65,0,0,0,.72,2.94l7.2,17.88L409.5,23a8.81,8.81,0,0,0,.66-2.76,2.22,2.22,0,0,0-1.08-2,8,8,0,0,0-3.42-.84v-1.2c2.11.12,3.8.18,5,.18C412.46,16.32,414,16.26,415.26,16.14Z"/></svg>
