<svg xmlns="http://www.w3.org/2000/svg" viewBox="0 0 256.8 46.56"><title>PoiretOne-Regular</title><path d="M0,.78H2A14.62,14.62,0,0,1,12.6,5.07,13.69,13.69,0,0,1,17,15.18a13.2,13.2,0,0,1-4.53,10,14.39,14.39,0,0,1-10,4.2H2V45.78H0ZM2,27.72h.48A12.08,12.08,0,0,0,11.25,24,12,12,0,0,0,15,15.18,12.11,12.11,0,0,0,11.19,6.3,12.06,12.06,0,0,0,2.46,2.52H2Z"/><path d="M22.32,42.15a13.94,13.94,0,0,1-4.14-10,13.44,13.44,0,0,1,4.2-9.87,13.83,13.83,0,0,1,10.11-4.17,13.73,13.73,0,0,1,10.08,4.17,13.53,13.53,0,0,1,4.17,9.9,14,14,0,0,1-4.08,10,13.2,13.2,0,0,1-9.9,4.26h-.54A13.28,13.28,0,0,1,22.32,42.15Zm22.5-9.84a12.17,12.17,0,0,0-3.63-8.79,11.69,11.69,0,0,0-8.67-3.72,11.84,11.84,0,0,0-8.73,3.75,12.13,12.13,0,0,0-3.69,8.79,11.93,11.93,0,0,0,3.69,8.73,12,12,0,0,0,8.76,3.69,11.68,11.68,0,0,0,8.67-3.69A12.12,12.12,0,0,0,44.82,32.31Z"/><path d="M54.18,12.24q-1.74,0-1.74-1.62T54.18,9q1.74,0,1.74,1.62T54.18,12.24Zm1,6.6V45.78H53.22V18.84Z"/><path d="M73.08,19.8a7.75,7.75,0,0,0-5.61,2.4A7.61,7.61,0,0,0,65,27.78v18H63.12v-27H65v4a8.48,8.48,0,0,1,3.36-3.36,10,10,0,0,1,5.1-1.32A8.92,8.92,0,0,1,78.9,20v2.4A8.09,8.09,0,0,0,73.08,19.8Z"/><path d="M97.5,46.5H97A13.5,13.5,0,0,1,87,42.21a13.79,13.79,0,0,1-4.23-10A13.44,13.44,0,0,1,87,22.35a14.15,14.15,0,0,1,10.38-4.17A13.83,13.83,0,0,1,108,23.1L89.16,41.7q3.9,3.12,7.5,3.12a12.64,12.64,0,0,0,6.45-1.65,14.19,14.19,0,0,0,4.71-4.41v3.06A13.45,13.45,0,0,1,97.5,46.5Zm-.63-26.64a11.64,11.64,0,0,0-8.46,3.69A11.67,11.67,0,0,0,84.72,32a12.29,12.29,0,0,0,3.18,8.4L105.36,23.1A12.56,12.56,0,0,0,96.87,19.86Z"/><path d="M123.36,44.46v1.68a10.16,10.16,0,0,1-7.26-2.85,9.61,9.61,0,0,1-3-7.29V7.92H115V18.84h8.28v1.68H115V36a8.25,8.25,0,0,0,8.34,8.46Z"/><path d="M155.07,39.54a22.82,22.82,0,0,1-6.81-16.41,22.18,22.18,0,0,1,6.9-16.26,23.36,23.36,0,0,1,33.06,0,22.24,22.24,0,0,1,6.84,16.29,22.84,22.84,0,0,1-6.78,16.44,21.78,21.78,0,0,1-16.2,7h-.9A21.71,21.71,0,0,1,155.07,39.54Zm38-16.29a20.8,20.8,0,0,0-6.27-15.18,21.26,21.26,0,0,0-30.27,0,20.75,20.75,0,0,0-6.3,15.18,20.85,20.85,0,0,0,6.3,15.21,21.15,21.15,0,0,0,30.24,0A20.85,20.85,0,0,0,193.08,23.25Z"/><path d="M203.28,45.78h-1.92v-27h1.92v5.46q3.06-6.12,10.44-6.12a11.39,11.39,0,0,1,8.46,3.48,11.62,11.62,0,0,1,3.42,8.46V45.78h-1.92V30.06a10.11,10.11,0,0,0-2.91-7.2,9.37,9.37,0,0,0-7.05-3.06,10.15,10.15,0,0,0-7.29,3.06,9.72,9.72,0,0,0-3.15,7.2Z"/><path d="M246.3,46.5h-.54a13.5,13.5,0,0,1-9.93-4.29,13.79,13.79,0,0,1-4.23-10,13.44,13.44,0,0,1,4.2-9.87,14.15,14.15,0,0,1,10.38-4.17A13.83,13.83,0,0,1,256.8,23.1L238,41.7q3.9,3.12,7.5,3.12a12.64,12.64,0,0,0,6.45-1.65,14.19,14.19,0,0,0,4.71-4.41v3.06A13.45,13.45,0,0,1,246.3,46.5Zm-.63-26.64a11.64,11.64,0,0,0-8.46,3.69A11.67,11.67,0,0,0,233.52,32a12.29,12.29,0,0,0,3.18,8.4L254.16,23.1A12.56,12.56,0,0,0,245.67,19.86Z"/></svg>
