<svg xmlns="http://www.w3.org/2000/svg" viewBox="0 0 213.06 45.84"><title>PT_Serif-Web-Regular</title><path d="M10.68,41.94a20.25,20.25,0,0,1,3.06.57q1.44.39,2.7.87v1.74H0V43.38a11.38,11.38,0,0,1,2.46-.9q1.26-.3,2.46-.54V6.36a18.73,18.73,0,0,1-2.58-.63Q1.14,5.34,0,4.86V3.12H5.4q2.4,0,5.22-.24T16,2.64a26.34,26.34,0,0,1,5.76.63,14.28,14.28,0,0,1,5,2.13,11.22,11.22,0,0,1,3.54,4,12.91,12.91,0,0,1,1.35,6.21,12.45,12.45,0,0,1-1.38,6.06,12.05,12.05,0,0,1-3.69,4.14,15.89,15.89,0,0,1-5.25,2.37,24.42,24.42,0,0,1-6.06.75h-.93l-1.35,0q-.72,0-1.38-.09t-1-.12ZM14.76,5.76q-1.44,0-2.34.06a12.15,12.15,0,0,0-1.74.24V25.5a2.86,2.86,0,0,0,.87.15l1.2.09q.63.06,1.23.06h1a13.44,13.44,0,0,0,4-.57,8.64,8.64,0,0,0,3.27-1.83,9.06,9.06,0,0,0,2.25-3.18,11.49,11.49,0,0,0,.84-4.62q0-4.92-2.79-7.38T14.76,5.76Z"/><path d="M61,45.12H44.16V43.38q1.32-.48,2.67-.84a27.59,27.59,0,0,1,2.91-.6V6.24H40.56l-3.18,8.58h-1.5q-.18-1.2-.3-2.73T35.37,9q-.09-1.59-.15-3.12t-.06-2.73H70q0,1.2-.06,2.7t-.15,3.09q-.09,1.59-.18,3.12c-.07,1-.16,2-.28,2.79H67.77L64.62,6.24H55.5v35.7q1.56.3,2.91.6a14.71,14.71,0,0,1,2.61.84Z"/><path d="M94.74,41a6.15,6.15,0,0,0,1.86,1.23,8.77,8.77,0,0,0,3.42.51,12.33,12.33,0,0,0,3.6-.51,8.54,8.54,0,0,0,2.91-1.5,7.32,7.32,0,0,0,2-2.4,7,7,0,0,0,.72-3.21,5.76,5.76,0,0,0-1.47-4,15,15,0,0,0-3.66-2.88q-2.19-1.26-4.77-2.46a26.4,26.4,0,0,1-4.77-2.85,15,15,0,0,1-3.66-4,10.59,10.59,0,0,1-1.47-5.79,10.76,10.76,0,0,1,.9-4.5,9.39,9.39,0,0,1,2.55-3.36,11.8,11.8,0,0,1,3.93-2.13,16.27,16.27,0,0,1,5.1-.75,36.28,36.28,0,0,1,6.69.57,19.62,19.62,0,0,1,4.77,1.41,21.79,21.79,0,0,1-.15,2.37q-.15,1.35-.36,2.79t-.45,2.79q-.24,1.35-.48,2.37h-1.56l-2.4-8.22a10.78,10.78,0,0,0-2.76-.72,24.83,24.83,0,0,0-3.54-.24,7.07,7.07,0,0,0-5,1.71A6.1,6.1,0,0,0,94.8,12a6,6,0,0,0,1.48,4.14,15,15,0,0,0,3.71,3q2.24,1.32,4.8,2.55a31,31,0,0,1,4.8,2.85,15,15,0,0,1,3.71,3.84,9.71,9.71,0,0,1,1.48,5.52,12,12,0,0,1-1,4.92,10.4,10.4,0,0,1-2.85,3.78,13,13,0,0,1-4.56,2.4,20.58,20.58,0,0,1-6.12.84,23.58,23.58,0,0,1-6.78-.9A13,13,0,0,1,89.22,43q.06-1,.21-2.46t.36-3q.21-1.53.45-3t.48-2.46h1.56Z"/><path d="M144.66,40.92a6,6,0,0,1-1.5,1.92,10.84,10.84,0,0,1-2.34,1.56,14,14,0,0,1-2.88,1.05,13.06,13.06,0,0,1-3.18.39,16.31,16.31,0,0,1-6.24-1.11,11.81,11.81,0,0,1-4.5-3.18,14,14,0,0,1-2.73-4.95,21,21,0,0,1-.93-6.48q0-7.68,3.54-11.7t10-4a15.31,15.31,0,0,1,4.14.57,9.33,9.33,0,0,1,6.21,5.4,13.17,13.17,0,0,1,1,5.43q0,1-.09,2.07a20.4,20.4,0,0,1-.33,2.25H126.12a17,17,0,0,0,.63,4.71,11.15,11.15,0,0,0,1.89,3.81,8.85,8.85,0,0,0,3.18,2.55,10.22,10.22,0,0,0,4.5.93,15.87,15.87,0,0,0,4.26-.6A8.15,8.15,0,0,0,143.82,40ZM133.68,17a6.22,6.22,0,0,0-5.22,2.31q-1.8,2.31-2.16,8.13h13.2q.06-.54.09-1.05t0-1a11.36,11.36,0,0,0-1.44-6.12A4.94,4.94,0,0,0,133.68,17Z"/><path d="M162.72,19.62a7,7,0,0,0-1.65,1.47,10.06,10.06,0,0,0-1.77,3.27V42.18a14.47,14.47,0,0,1,2.4.45,11.08,11.08,0,0,1,2.4,1v1.5H149.94v-1.5a11,11,0,0,1,2-.9q1-.3,1.92-.54V18.6l-4-.48V16.56a25,25,0,0,1,4-1.35q2-.51,3.9-.81h1.5v6.36h.24a10.7,10.7,0,0,1,1.53-2.4,13,13,0,0,1,2.28-2.16,10,10,0,0,1,2.82-1.47,7.3,7.3,0,0,1,3.15-.33,12.23,12.23,0,0,1,.75,1.71q.33.93.63,1.95v1.56Z"/><path d="M186.9,45.12H173.58v-1.5a12.76,12.76,0,0,1,1.86-.81q1-.33,2.1-.63V18.6l-4-.48V16.56a29.89,29.89,0,0,1,3.78-1.26q2-.54,4.08-.9h1.5V42.18q1.2.3,2.16.63a10.49,10.49,0,0,1,1.8.81ZM176.4,4.92a3.32,3.32,0,0,1,1-2.58,4,4,0,0,1,2.79-1,3.86,3.86,0,0,1,2.76,1,3.37,3.37,0,0,1,1,2.58,3.28,3.28,0,0,1-1,2.55,3.94,3.94,0,0,1-2.76.93,4.05,4.05,0,0,1-2.79-.93A3.23,3.23,0,0,1,176.4,4.92Z"/><path d="M207.54,0q.54,0,1.26.06l1.5.15q.78.09,1.5.24a11.33,11.33,0,0,1,1.26.33q-.18,2-.51,3.69a22.29,22.29,0,0,1-.81,3.09h-1.5L207.6,2.4a10.68,10.68,0,0,0-3,.36,4,4,0,0,0-2,1.38,6.93,6.93,0,0,0-1.2,2.94,26.25,26.25,0,0,0-.39,5v3h6.9v3.12H201v24a21.72,21.72,0,0,1,5.76,1.44v1.49H191.64V43.63a11.8,11.8,0,0,1,4-1.44V18.24H191V16.63a16.47,16.47,0,0,1,4.56-2v-2.1a17.91,17.91,0,0,1,.9-6.15A9.2,9.2,0,0,1,199,2.49,9,9,0,0,1,202.83.54,19.63,19.63,0,0,1,207.54,0Z"/></svg>
