<svg xmlns="http://www.w3.org/2000/svg" viewBox="0 0 191.46 43.44"><title>PT_Sans-Web-Regular</title><path d="M0,1.14A30.3,30.3,0,0,1,4.92.42Q7.56.24,10.14.24a30.09,30.09,0,0,1,5.61.54,15.21,15.21,0,0,1,5.19,2,11.14,11.14,0,0,1,3.81,4,12.6,12.6,0,0,1,1.47,6.42,13.86,13.86,0,0,1-1.38,6.48,12.14,12.14,0,0,1-3.66,4.29A14.81,14.81,0,0,1,16,26.28,25.38,25.38,0,0,1,9.9,27h-1L7.47,27q-.75,0-1.47-.09t-1-.12v16H0ZM10.26,4.56q-1.56,0-3,.06A10.17,10.17,0,0,0,5,4.92v17.4a3.19,3.19,0,0,0,1,.15l1.38.06,1.38,0h1a21.21,21.21,0,0,0,4.05-.39,10.5,10.5,0,0,0,3.63-1.41A7.45,7.45,0,0,0,20,17.88a10,10,0,0,0,1-4.74A8.27,8.27,0,0,0,20,9a7.43,7.43,0,0,0-2.46-2.64A10.37,10.37,0,0,0,14.1,5,17.92,17.92,0,0,0,10.26,4.56Z"/><path d="M59.7,5.16H46.62V42.72h-5V5.16H28.56V.72H59.7Z"/><path d="M98.46,32A5.75,5.75,0,0,0,97,27.93a15,15,0,0,0-3.75-2.82,48.39,48.39,0,0,0-4.89-2.31,26.53,26.53,0,0,1-4.89-2.61,13.77,13.77,0,0,1-3.75-3.78,10.13,10.13,0,0,1-1.5-5.73,9.67,9.67,0,0,1,3.42-7.8Q85,0,91.32,0A37.73,37.73,0,0,1,98,.54a17.83,17.83,0,0,1,4.68,1.38l-1.5,4.44a19.69,19.69,0,0,0-4-1.3,26.94,26.94,0,0,0-6-.62q-4,0-5.94,1.77a5.43,5.43,0,0,0-2,4.17,5.4,5.4,0,0,0,1.5,3.9,15.39,15.39,0,0,0,3.75,2.79q2.25,1.23,4.89,2.43a29.85,29.85,0,0,1,4.89,2.79,14.76,14.76,0,0,1,3.75,3.81,9.64,9.64,0,0,1,1.5,5.52,11.84,11.84,0,0,1-1,4.86,10.23,10.23,0,0,1-2.82,3.72,13.08,13.08,0,0,1-4.5,2.4,19.77,19.77,0,0,1-6,.84,33.36,33.36,0,0,1-7.44-.69,20.33,20.33,0,0,1-4.56-1.53l1.68-4.44a19.28,19.28,0,0,0,4.08,1.49A23.09,23.09,0,0,0,89,39a17,17,0,0,0,3.72-.39,8.49,8.49,0,0,0,3-1.26,6.58,6.58,0,0,0,2-2.19A6.21,6.21,0,0,0,98.46,32Z"/><path d="M110.4,14.94a17.28,17.28,0,0,1,5.31-2,29.67,29.67,0,0,1,6.33-.66,12.5,12.5,0,0,1,5,.84,7,7,0,0,1,2.88,2.19,7.5,7.5,0,0,1,1.32,3,16.19,16.19,0,0,1,.33,3.24q0,3.6-.18,7T131.22,35q0,2.22.18,4.2a19.87,19.87,0,0,0,.66,3.66h-3.54l-1.26-4.2H127a10,10,0,0,1-1.35,1.65,8.65,8.65,0,0,1-2,1.44A12.31,12.31,0,0,1,121,42.78a12.71,12.71,0,0,1-3.42.42,10.37,10.37,0,0,1-3.57-.6,8.34,8.34,0,0,1-2.85-1.71,8,8,0,0,1-1.89-2.67,8.67,8.67,0,0,1-.69-3.54,8.33,8.33,0,0,1,1.08-4.41,7.79,7.79,0,0,1,3-2.82,15,15,0,0,1,4.68-1.5,37.21,37.21,0,0,1,6-.45h1.65a11.66,11.66,0,0,1,1.65.12q.18-1.8.18-3.24,0-3.3-1.32-4.62t-4.8-1.32a17.28,17.28,0,0,0-2.19.15c-.78.11-1.58.25-2.4.44a18.22,18.22,0,0,0-2.34.68,11.07,11.07,0,0,0-1.95.89ZM118.92,39a9.27,9.27,0,0,0,3-.45,8.68,8.68,0,0,0,2.28-1.14,7.26,7.26,0,0,0,1.59-1.53,6.82,6.82,0,0,0,.93-1.62v-5q-.84-.06-1.71-.09l-1.71,0a30.79,30.79,0,0,0-3.63.21,11.49,11.49,0,0,0-3.12.78,5.48,5.48,0,0,0-2.16,1.56,3.8,3.8,0,0,0-.81,2.49,4.43,4.43,0,0,0,1.5,3.45A5.52,5.52,0,0,0,118.92,39Z"/><path d="M159.9,42.72V25.62q0-4.68-1.35-7t-5-2.37a8,8,0,0,0-5.25,1.71,9.11,9.11,0,0,0-2.91,4.29V42.72h-4.8v-30H144l.9,3.66h.24A10.87,10.87,0,0,1,149,13.23,12.68,12.68,0,0,1,154.8,12a14.78,14.78,0,0,1,4.32.57,6.47,6.47,0,0,1,3.09,2,9.58,9.58,0,0,1,1.86,3.87,25.06,25.06,0,0,1,.63,6.15V42.72Z"/><path d="M186.66,34.56a3.69,3.69,0,0,0-1.08-2.82A9.15,9.15,0,0,0,182.91,30q-1.59-.69-3.48-1.32A16.32,16.32,0,0,1,176,27.09a9,9,0,0,1-2.67-2.55,7.26,7.26,0,0,1-1.08-4.2q0-4.32,2.46-6.33a10.52,10.52,0,0,1,6.84-2,21.94,21.94,0,0,1,5.43.57,21,21,0,0,1,3.81,1.35l-1.14,4a18.8,18.8,0,0,0-3.33-1.17,16.43,16.43,0,0,0-4.17-.51,6.61,6.61,0,0,0-3.87.9A3.62,3.62,0,0,0,177,20.22a3,3,0,0,0,1.08,2.43,11.6,11.6,0,0,0,2.67,1.56q1.59.69,3.48,1.35a14.91,14.91,0,0,1,3.48,1.74A9.65,9.65,0,0,1,190.38,30a7.83,7.83,0,0,1,1.08,4.35,10.17,10.17,0,0,1-.63,3.6,7.3,7.3,0,0,1-2,2.88,9.51,9.51,0,0,1-3.27,1.89,13.77,13.77,0,0,1-4.59.69,22.21,22.21,0,0,1-5.82-.66,18.34,18.34,0,0,1-4-1.56l1.44-4.08a17.65,17.65,0,0,0,3.6,1.44,15.71,15.71,0,0,0,4.5.66,8.09,8.09,0,0,0,4.26-1A3.93,3.93,0,0,0,186.66,34.56Z"/></svg>
