<svg xmlns="http://www.w3.org/2000/svg" viewBox="0 0 340.91 65.81"><title>Quicksand-Regular</title><path d="M495,534.68a1.84,1.84,0,0,1,.58,1.36c0,1.06-.71,2.09-2.12,3.1a18.5,18.5,0,0,1-5.26,2.49,19.93,19.93,0,0,1-5.8,1,22.49,22.49,0,0,1-6.87-.9,45.16,45.16,0,0,1-6.09-2.56,31.7,31.7,0,0,0-4.53-2.09,13.53,13.53,0,0,0-4.39-.65,6.37,6.37,0,0,0-1.7.22,12.09,12.09,0,0,0-1.83.72,6.57,6.57,0,0,1-2.31.72,2,2,0,0,1-1.47-.65,2.12,2.12,0,0,1-.62-1.51,1.78,1.78,0,0,1,1.23-1.87l9.43-3.38a22.58,22.58,0,0,1-11.09-4.15,23.7,23.7,0,0,1-7.52-9.1,30.49,30.49,0,0,1,.39-25.92,23.05,23.05,0,0,1,8.57-9.22,25.11,25.11,0,0,1,24.92,0,23,23,0,0,1,8.56,9.22,28.31,28.31,0,0,1,3.1,13.39,28.84,28.84,0,0,1-2.34,11.73,23.93,23.93,0,0,1-6.52,8.86,22.16,22.16,0,0,1-9.72,4.75L464,532.73a14.34,14.34,0,0,1,3.78.9c1.13.46,2.56,1.09,4.29,1.91a37.65,37.65,0,0,0,5.25,2.27,16.76,16.76,0,0,0,5.19.75,12.31,12.31,0,0,0,4.21-.64,20.71,20.71,0,0,0,3.42-1.66,6.43,6.43,0,0,0,1.37-1.08,7.47,7.47,0,0,1,1-.76,2.08,2.08,0,0,1,1-.32A1.84,1.84,0,0,1,495,534.68Zm-46-18.62a19,19,0,0,0,34.06,0,26.51,26.51,0,0,0,0-22.39,18.4,18.4,0,0,0-17-10.4,18.37,18.37,0,0,0-17,10.4,26.51,26.51,0,0,0,0,22.39Z" transform="translate(-441.94 -476.79)"/><path d="M529,494.1a2.1,2.1,0,0,1,.61,1.55V516q0,7-4,10.83t-10.94,3.78q-6.92,0-10.84-3.78T500,516V495.65a2.1,2.1,0,0,1,.61-1.55,2.27,2.27,0,0,1,3.1,0,2.1,2.1,0,0,1,.61,1.55V516q0,5.17,2.74,7.88t7.7,2.7q5,0,7.81-2.7t2.77-7.88V495.65A2.19,2.19,0,0,1,529,494.1Z" transform="translate(-441.94 -476.79)"/><path d="M540.72,487.12a2.46,2.46,0,0,1-.79-2v-.72a2.44,2.44,0,0,1,.83-2,3.47,3.47,0,0,1,2.27-.68c1.91,0,2.88.89,2.88,2.66v.72a2.55,2.55,0,0,1-.76,2,3.15,3.15,0,0,1-2.2.68A3.29,3.29,0,0,1,540.72,487.12Zm3.78,42.34a2.09,2.09,0,0,1-1.55.61,2.06,2.06,0,0,1-1.54-.61,2.11,2.11,0,0,1-.62-1.55V494.79a2.11,2.11,0,0,1,.62-1.55,2.06,2.06,0,0,1,1.54-.61,2.09,2.09,0,0,1,2.16,2.16v33.12A2.1,2.1,0,0,1,544.5,529.46Z" transform="translate(-441.94 -476.79)"/><path d="M578.56,493.17a13.74,13.74,0,0,1,4.68,2.05A3.58,3.58,0,0,1,585,498a2.19,2.19,0,0,1-.54,1.44,1.67,1.67,0,0,1-1.33.65,2.25,2.25,0,0,1-1.19-.29,5.61,5.61,0,0,1-1-.87,7.21,7.21,0,0,0-1.8-1.36,11.52,11.52,0,0,0-2.85-.83,20.46,20.46,0,0,0-3.78-.33,13.55,13.55,0,0,0-7.23,2,14.34,14.34,0,0,0-5.15,5.47,15.76,15.76,0,0,0-1.87,7.63,16.58,16.58,0,0,0,1.8,7.78,13.47,13.47,0,0,0,12.31,7.42,15.79,15.79,0,0,0,4.14-.44,10.33,10.33,0,0,0,4.79-2.52,7.59,7.59,0,0,1,1-.75,1.81,1.81,0,0,1,.94-.25,1.79,1.79,0,0,1,1.37.54,2,2,0,0,1,.5,1.4c0,.82-.57,1.69-1.73,2.63a15.11,15.11,0,0,1-4.75,2.41,21.11,21.11,0,0,1-6.69,1,17.65,17.65,0,0,1-9.36-2.49,16.93,16.93,0,0,1-6.38-6.87,21.22,21.22,0,0,1-2.26-9.87,20.21,20.21,0,0,1,2.3-9.61,17.69,17.69,0,0,1,16.06-9.54A25.29,25.29,0,0,1,578.56,493.17Z" transform="translate(-441.94 -476.79)"/><path d="M623.16,527.91a1.91,1.91,0,0,1-.76,1.55,2.27,2.27,0,0,1-1.4.61,2,2,0,0,1-1.58-.79L603.5,512.43,598.1,517v10.87a2.09,2.09,0,0,1-2.16,2.16,2.06,2.06,0,0,1-1.54-.61,2.11,2.11,0,0,1-.62-1.55V479a2.11,2.11,0,0,1,.62-1.55,2.06,2.06,0,0,1,1.54-.61A2.09,2.09,0,0,1,598.1,479v32.83l20.81-17.93a2,2,0,0,1,1.51-.72,1.94,1.94,0,0,1,1.44.69,2.07,2.07,0,0,1,.65,1.47,2.34,2.34,0,0,1-.79,1.66l-14.83,12.6,15.62,16.7A2.43,2.43,0,0,1,623.16,527.91Z" transform="translate(-441.94 -476.79)"/><path d="M628.85,522.65a2.34,2.34,0,0,1,2.09-1.87,2.2,2.2,0,0,1,1.58.72,13.48,13.48,0,0,0,11.3,5.62,11,11,0,0,0,6-1.62,5.25,5.25,0,0,0,2.55-4.72,5,5,0,0,0-2.37-4.54,23.56,23.56,0,0,0-6.63-2.59,27.93,27.93,0,0,1-9.36-3.92,8.16,8.16,0,0,1-3.38-7.09,9,9,0,0,1,1.65-5.3,11,11,0,0,1,4.5-3.63,15.32,15.32,0,0,1,6.45-1.3,17.54,17.54,0,0,1,6.23,1.19,13.15,13.15,0,0,1,5.36,3.78,1.73,1.73,0,0,1,.65,1.44,2,2,0,0,1-.72,1.51,1.92,1.92,0,0,1-1.3.43,1.78,1.78,0,0,1-1.29-.57,11.33,11.33,0,0,0-4.11-2.95,13,13,0,0,0-5.11-1,10.38,10.38,0,0,0-5.8,1.58,5.32,5.32,0,0,0-2.41,4.75,5.18,5.18,0,0,0,2.63,4.4,27.68,27.68,0,0,0,7.31,2.73,34.7,34.7,0,0,1,6.19,2.09,10.51,10.51,0,0,1,4,3.24,9.1,9.1,0,0,1,1.54,5.54,8.79,8.79,0,0,1-3.74,7.46,15.17,15.17,0,0,1-9.29,2.77,16.92,16.92,0,0,1-14-6.55A3.27,3.27,0,0,1,628.85,522.65Z" transform="translate(-441.94 -476.79)"/><path d="M697.28,493.92a2.25,2.25,0,0,1,.62,1.59v32.4a2.11,2.11,0,0,1-.62,1.55,2.09,2.09,0,0,1-1.55.61,2.06,2.06,0,0,1-1.54-.61,2.1,2.1,0,0,1-.61-1.55v-4.83a15.23,15.23,0,0,1-5.41,5.48,14.57,14.57,0,0,1-7.84,2.23,15.51,15.51,0,0,1-8.68-2.52,17.33,17.33,0,0,1-6-6.91,21.83,21.83,0,0,1-2.19-9.87,21.19,21.19,0,0,1,2.23-9.82,17.06,17.06,0,0,1,6.08-6.81,16.06,16.06,0,0,1,16.45-.36,13.86,13.86,0,0,1,5.41,5.47v-4.46a2.25,2.25,0,0,1,.61-1.59,2,2,0,0,1,1.54-.64A2,2,0,0,1,697.28,493.92Zm-9.79,30.86a13.46,13.46,0,0,0,4.68-5.48,17.62,17.62,0,0,0,1.69-7.81,17.11,17.11,0,0,0-1.69-7.63,13.6,13.6,0,0,0-4.68-5.44,12.51,12.51,0,0,0-13.46,0,13.15,13.15,0,0,0-4.68,5.36,17.2,17.2,0,0,0-1.7,7.74,18,18,0,0,0,1.66,7.81,13.1,13.1,0,0,0,4.65,5.48,12.55,12.55,0,0,0,13.53,0Z" transform="translate(-441.94 -476.79)"/><path d="M736.38,496.34q3.14,3.92,3.13,10.4v21.17a2.06,2.06,0,0,1-.65,1.55,2.14,2.14,0,0,1-3.67-1.55V507a11.77,11.77,0,0,0-2.34-7.6c-1.56-1.94-4-2.92-7.24-2.92a12.9,12.9,0,0,0-10.36,5.3,8.72,8.72,0,0,0-1.73,5.22v20.95a2.14,2.14,0,0,1-.61,1.55,2.16,2.16,0,0,1-3.71-1.55V495.65a2.1,2.1,0,0,1,.61-1.55,2.16,2.16,0,0,1,3.71,1.55v4a15.23,15.23,0,0,1,5.58-5.15,15.06,15.06,0,0,1,7.45-2Q733.24,492.41,736.38,496.34Z" transform="translate(-441.94 -476.79)"/><path d="M782.24,477.4a2.1,2.1,0,0,1,.61,1.55v49a2.09,2.09,0,0,1-2.16,2.16,2.06,2.06,0,0,1-1.54-.61,2.11,2.11,0,0,1-.62-1.55v-5a15.4,15.4,0,0,1-5.36,5.61,14.19,14.19,0,0,1-7.88,2.31,15.53,15.53,0,0,1-8.61-2.49,17.16,17.16,0,0,1-6.08-6.87,22.78,22.78,0,0,1,0-19.66,17.23,17.23,0,0,1,6.08-6.87,15.39,15.39,0,0,1,8.53-2.49,15.15,15.15,0,0,1,7.85,2.13,14.51,14.51,0,0,1,5.47,5.5V479a2.11,2.11,0,0,1,.62-1.55,2.06,2.06,0,0,1,1.54-.61A2.09,2.09,0,0,1,782.24,477.4Zm-9.79,47.41a13.12,13.12,0,0,0,4.68-5.43,17.69,17.69,0,0,0,1.69-7.82,17.26,17.26,0,0,0-1.69-7.7,13.6,13.6,0,0,0-4.68-5.44,12.43,12.43,0,0,0-13.46,0,13.45,13.45,0,0,0-4.68,5.44,18.47,18.47,0,0,0,0,15.48,13.32,13.32,0,0,0,4.68,5.44,11.89,11.89,0,0,0,6.73,2A12.05,12.05,0,0,0,772.45,524.81Z" transform="translate(-441.94 -476.79)"/></svg>