<svg xmlns="http://www.w3.org/2000/svg" viewBox="0 0 182.87 45.59"><title>Roboto-Light</title><path d="M16,27.22H3.63V45H0V2.34H13.86q6.83,0,10.66,3.31t3.84,9.25A11.57,11.57,0,0,1,26,22.13a12.31,12.31,0,0,1-6.45,4.33L30.18,44.62V45H26.34Zm-12.4-3H14.68A10.21,10.21,0,0,0,22,21.59a8.74,8.74,0,0,0,2.76-6.69,8.83,8.83,0,0,0-2.87-7c-1.92-1.66-4.6-2.49-8.06-2.49H3.63Z"/><path d="M35.42,28.68a18.65,18.65,0,0,1,1.77-8.23,13.33,13.33,0,0,1,12.35-7.74,13,13,0,0,1,10.25,4.44q3.93,4.44,3.93,11.77v.73A18.83,18.83,0,0,1,62,37.92a13.13,13.13,0,0,1-5,5.67,13.69,13.69,0,0,1-7.35,2,13.05,13.05,0,0,1-10.24-4.44q-3.95-4.44-3.94-11.77Zm3.52,1A14.39,14.39,0,0,0,41.88,39a9.45,9.45,0,0,0,7.72,3.65A9.42,9.42,0,0,0,57.29,39q2.94-3.65,2.94-9.62v-.68A16.26,16.26,0,0,0,58.89,22a10.83,10.83,0,0,0-3.78-4.67,9.69,9.69,0,0,0-5.57-1.66,9.4,9.4,0,0,0-7.65,3.68,14.89,14.89,0,0,0-3,9.62Z"/><path d="M96.47,29.47q0,7.41-3.28,11.77a10.46,10.46,0,0,1-8.81,4.35q-6.63,0-10-4.93L74.21,45H70.93V0h3.48V17.9a11,11,0,0,1,9.91-5.19A10.59,10.59,0,0,1,93.21,17Q96.48,21.3,96.47,29ZM93,28.86q0-6.27-2.43-9.69a7.94,7.94,0,0,0-6.86-3.41A9.61,9.61,0,0,0,78,17.42a10.06,10.06,0,0,0-3.55,4.85V36.56a9.4,9.4,0,0,0,9.32,6,7.86,7.86,0,0,0,6.78-3.43Q93,35.69,93,28.86Z"/><path d="M102.28,28.68a18.65,18.65,0,0,1,1.77-8.23,13.33,13.33,0,0,1,12.35-7.74,13,13,0,0,1,10.25,4.44q3.93,4.44,3.93,11.77v.73a18.69,18.69,0,0,1-1.78,8.27,13.11,13.11,0,0,1-5,5.67,13.69,13.69,0,0,1-7.35,2,13,13,0,0,1-10.24-4.44q-3.94-4.44-3.94-11.77Zm3.51,1A14.34,14.34,0,0,0,108.74,39a10,10,0,0,0,15.41,0q2.94-3.65,2.94-9.62v-.68A16.1,16.1,0,0,0,125.74,22,10.83,10.83,0,0,0,122,17.36a9.66,9.66,0,0,0-5.56-1.66,9.37,9.37,0,0,0-7.65,3.68,14.89,14.89,0,0,0-3,9.62Z"/><path d="M143.26,5.19V13.3h6.56v2.87h-6.56V37.32a6.65,6.65,0,0,0,1,3.93,3.71,3.71,0,0,0,3.18,1.29,22.42,22.42,0,0,0,2.84-.29l.15,2.84a11.43,11.43,0,0,1-3.75.5q-3.6,0-5.24-2.1c-1.1-1.39-1.64-3.45-1.64-6.17V16.17h-5.83V13.3h5.83V5.19Z"/><path d="M154.57,28.68a18.65,18.65,0,0,1,1.77-8.23,13.33,13.33,0,0,1,12.35-7.74A13.05,13.05,0,0,1,179,17.15q3.92,4.44,3.92,11.77v.73a18.83,18.83,0,0,1-1.77,8.27,13.13,13.13,0,0,1-5,5.67,13.69,13.69,0,0,1-7.35,2,13.05,13.05,0,0,1-10.24-4.44q-3.94-4.44-3.94-11.77Zm3.52,1A14.39,14.39,0,0,0,161,39a10,10,0,0,0,15.41,0q2.94-3.65,2.94-9.62v-.68A16.1,16.1,0,0,0,178,22a10.83,10.83,0,0,0-3.78-4.67,9.69,9.69,0,0,0-5.57-1.66A9.4,9.4,0,0,0,161,19.38,14.89,14.89,0,0,0,158.09,29Z"/></svg>
