<svg xmlns="http://www.w3.org/2000/svg" viewBox="0 0 131.04 45.96"><title>Ruda-Regular</title><path d="M5.1,45.18H0L.3,25.44l-.18-22A100.72,100.72,0,0,1,13.38,2.7q13.32,0,13.32,13,0,10.26-8.88,12.36v.24l9.42,16.92h-6L12.66,28.62l-7.56-.3ZM5,23.82a91.83,91.83,0,0,0,9.42.6q3.78,0,5.34-2t1.56-6.81q0-6.84-2.34-8.22-1.38-.84-5.13-.84a67.49,67.49,0,0,0-8.73.66Z"/><path d="M56.76,10.26h5V45.18H58.38l-.6-3.36h-.3s-.65.33-1.83,1S53.5,44,52.74,44.34A17.09,17.09,0,0,1,45.84,46q-8.76,0-8.76-12.48V10.26h5V31.74q0,6.9.81,8.25t3.9,1.35q3.09,0,10-3.18Z"/><path d="M97.26,0V45.18H94l-.66-3.6h-.36a17.41,17.41,0,0,1-1.38,1.2,20,20,0,0,1-3.51,1.95A11.74,11.74,0,0,1,83,46,9.26,9.26,0,0,1,75,41.55q-3-4.41-3-13.17,0-18.9,12.42-18.9a31.25,31.25,0,0,1,7.86,1.26V0Zm-5,15.54a19.83,19.83,0,0,0-7.77-1.62q-3.93,0-5.13,1.44-2.16,2.82-2.16,13.05t2.7,12.33a4.61,4.61,0,0,0,3,.72,13.66,13.66,0,0,0,4.5-.78,25.79,25.79,0,0,0,4.83-2.34Z"/><path d="M119.7,23.7h6.36q0-7-1-8.46t-3.87-1.44a25.81,25.81,0,0,0-6,.75,44.44,44.44,0,0,0-6.75,2.25l-1.74-3.9,2.07-.93a39.68,39.68,0,0,1,4.83-1.53,24.93,24.93,0,0,1,6.48-1q11,0,11,12.72v23H127.8l-.72-3.66h-.36q-.6.48-1.68,1.23a24.2,24.2,0,0,1-4.08,2A14.91,14.91,0,0,1,115.32,46a8.69,8.69,0,0,1-6.84-2.91q-2.58-2.91-2.58-8.58t3.54-8.22Q113,23.7,119.7,23.7Zm6.36,4.62a48.26,48.26,0,0,0-7.29-.42q-4.71,0-6,1.14-1.62,1.26-1.62,5.31T112.29,40a4.14,4.14,0,0,0,3.54,1.56,15.39,15.39,0,0,0,4.83-.81,32.3,32.3,0,0,0,5.4-2.43Z"/></svg>
