<svg xmlns="http://www.w3.org/2000/svg" viewBox="0 0 164.28 45.42"><title>Ruluko-Regular</title><path d="M.18,3.78a82.33,82.33,0,0,1,11-.72q5.67,0,9,2.82a9.77,9.77,0,0,1,3.36,7.92q0,8.7-8.82,11.1l6,11.82a14.94,14.94,0,0,0,2.67,4.11,4.15,4.15,0,0,0,3,1.17l.18,2.88a5.68,5.68,0,0,1-2.37.24,5.51,5.51,0,0,1-3.81-1.53,16.36,16.36,0,0,1-3.3-4.77l-6.72-13.2a10.81,10.81,0,0,1-2.1.18H4.56V44.7H0ZM4.56,22H8.4q10.38,0,10.38-8,0-7-8.28-7a43.43,43.43,0,0,0-5.94.36Z"/><path d="M33.06,20.64a9.61,9.61,0,0,0-.72-4.26l3.42-.6A1.62,1.62,0,0,1,37.05,17a7.28,7.28,0,0,1,.27,2q0,.72-.24,8.25t-.24,8.37q0,.84.09,1.89a7.25,7.25,0,0,0,.57,2.19Q38.34,42,41.58,42a5.6,5.6,0,0,0,4.11-1.71,10,10,0,0,0,2.49-4.53,39.43,39.43,0,0,0,1.5-11.16V16.5h4V32.88q0,5.34.78,7.35t3.48,2l.12,2.7a10.1,10.1,0,0,1-2.4.24q-3,0-4.17-1.77a7.28,7.28,0,0,1-1.17-4.11q0-.66.06-1.38H50a9.83,9.83,0,0,1-3.51,5.58,10.79,10.79,0,0,1-6.66,1.92q-4.11,0-5.73-2.52A12.67,12.67,0,0,1,32.52,36q0-.54.27-7.74T33.06,20.64Z"/><path d="M65.16,39.54V.72L69.48,0V37.08A10.91,10.91,0,0,0,70,41.19q.48.93,2.76.93l.12,2.64a8.85,8.85,0,0,1-3.24.42,4.09,4.09,0,0,1-3.36-1.32A6.84,6.84,0,0,1,65.16,39.54Z"/><path d="M80.88,20.64a9.61,9.61,0,0,0-.72-4.26l3.42-.6A1.62,1.62,0,0,1,84.87,17a7.28,7.28,0,0,1,.27,2q0,.72-.24,8.25t-.24,8.37q0,.84.09,1.89a7.25,7.25,0,0,0,.57,2.19Q86.16,42,89.4,42a5.6,5.6,0,0,0,4.11-1.71A10,10,0,0,0,96,35.76,39.43,39.43,0,0,0,97.5,24.6V16.5h4V32.88q0,5.34.78,7.35t3.48,2l.12,2.7a10.1,10.1,0,0,1-2.4.24q-3,0-4.17-1.77a7.28,7.28,0,0,1-1.17-4.11q0-.66.06-1.38h-.36a9.83,9.83,0,0,1-3.51,5.58,10.79,10.79,0,0,1-6.66,1.92q-4.11,0-5.73-2.52A12.67,12.67,0,0,1,80.34,36q0-.54.27-7.74T80.88,20.64Z"/><path d="M112.86,44.7V.72L116.94,0,117,16.5a34.69,34.69,0,0,1-.48,5.94h.36a9.62,9.62,0,0,1,3.48-4.86,9.49,9.49,0,0,1,5.76-1.8,8.12,8.12,0,0,1,5.43,1.8,6.27,6.27,0,0,1,2.13,5.07,6.87,6.87,0,0,1-2.58,5.46,14.53,14.53,0,0,1-6.42,3l3.48,6.06a15.29,15.29,0,0,0,2.94,3.87,4.69,4.69,0,0,0,3.12,1.11l.12,2.7a3.31,3.31,0,0,1-1.8.3,6.92,6.92,0,0,1-4.62-1.47,15.05,15.05,0,0,1-3.36-4.59l-4.68-8.94V29.1a12.33,12.33,0,0,0,6.54-1.68,5.32,5.32,0,0,0,2.76-4.8A3.13,3.13,0,0,0,128.07,20a4.38,4.38,0,0,0-2.85-.9,6.35,6.35,0,0,0-4.8,2.1q-3.48,3.78-3.48,11.1V44.7Z"/><path d="M164.28,29.88A18,18,0,0,1,161,41q-3.33,4.47-9.6,4.47t-8.91-3.63q-2.64-3.63-2.64-10.65T142.86,20q3.06-4.17,9.24-4.17t9.18,3.75Q164.28,23.28,164.28,29.88ZM151.56,42.24a6.78,6.78,0,0,0,4.92-1.86,9.48,9.48,0,0,0,2.61-4.5,24.06,24.06,0,0,0,.69-6.06q0-10.74-7.62-10.74a6.46,6.46,0,0,0-4.68,1.8q-3.36,3.18-3.36,10.14Q144.12,42.24,151.56,42.24Z"/></svg>
