<svg xmlns="http://www.w3.org/2000/svg" viewBox="0 0 407.99 78.08"><title>ShadowsIntoLight</title><path d="M6.39,49.78c.07-.4.56-.77,1.46-1.12s2-.72,3.34-1.11l4.4-1.29q2.4-.7,4.62-1.58a27.63,27.63,0,0,0,4.08-2A7.8,7.8,0,0,0,27,40.11q0-.88-1.14-1.35A14.59,14.59,0,0,0,22.82,38c-1.27-.22-2.71-.39-4.33-.53s-3.28-.33-5-.58-3.36-.57-5-.94a17.21,17.21,0,0,1-4.34-1.58,9,9,0,0,1-3.05-2.61A6.47,6.47,0,0,1,0,27.86a11.06,11.06,0,0,1,1-4.54A20.3,20.3,0,0,1,3.66,19,28.14,28.14,0,0,1,7.47,15,30.65,30.65,0,0,1,12,11.86a25.42,25.42,0,0,1,4.66-2.1A13.79,13.79,0,0,1,20.92,9L22,9a4.72,4.72,0,0,1,1,.06,1.3,1.3,0,0,1,.73.44,1.67,1.67,0,0,1,.29,1.06A2.7,2.7,0,0,1,23,13a4.78,4.78,0,0,1-2.7.73L18,12a7.09,7.09,0,0,0-3,.76,18.67,18.67,0,0,0-3.28,2,27.16,27.16,0,0,0-3.25,2.9,26.31,26.31,0,0,0-2.79,3.4,19.8,19.8,0,0,0-1.93,3.52,8.27,8.27,0,0,0-.73,3.16,4.74,4.74,0,0,0,1.14,3.31,7.84,7.84,0,0,0,3.05,2,20.9,20.9,0,0,0,4.36,1.08c1.64.23,3.3.43,5,.59s3.34.3,5,.43a24.33,24.33,0,0,1,4.37.74,8.86,8.86,0,0,1,3,1.4,2.87,2.87,0,0,1,1.15,2.41,1.7,1.7,0,0,1-.27,2.13A10.27,10.27,0,0,1,27,44.3a39.3,39.3,0,0,1-4.51,2.4q-2.61,1.2-5.36,2.17t-5.33,1.64a29.24,29.24,0,0,1-4.4.85A1.33,1.33,0,0,1,6.53,51C6.28,50.77,6.23,50.36,6.39,49.78Z"/><path d="M54.32,26.92a4.17,4.17,0,0,0-4.16.65,16.73,16.73,0,0,0-3.81,4.13,47.43,47.43,0,0,0-3.46,6.06q-1.64,3.41-3,6.45t-2.55,5.21c-.76,1.45-1.45,2.25-2.08,2.41a1.85,1.85,0,0,1-1.08-.27c-.25-.17-.38-.61-.38-1.32V9.05a.59.59,0,0,1,.44-.64,2.55,2.55,0,0,1,1-.06,3.61,3.61,0,0,1,1,.26,1.23,1.23,0,0,1,.59.44l.76,33a12.48,12.48,0,0,0,1.2-3c.37-1.27.81-2.64,1.32-4.1a45,45,0,0,1,1.79-4.39,16.58,16.58,0,0,1,2.55-4,9.92,9.92,0,0,1,8.9-3.4,4.29,4.29,0,0,1,3.22,1.26,4.76,4.76,0,0,1,1.29,3.31l.59,23.38a3.72,3.72,0,0,1-.09.68,1.32,1.32,0,0,1-.47.76,2,2,0,0,1-1,.41A3.59,3.59,0,0,1,55,52.7Z"/><path d="M77.93,51c-.2-1-.36-2.24-.5-3.67S77.15,44.47,77,43s-.34-2.84-.55-4.13a10.81,10.81,0,0,0-1-3.17,91.05,91.05,0,0,1-5.27,9.58,24.55,24.55,0,0,1-4,5,4.56,4.56,0,0,1-2.9,1.44,2.48,2.48,0,0,1-1.93-1.06,6.23,6.23,0,0,1-1.09-2.54,26.81,26.81,0,0,1-.44-2.91,16.28,16.28,0,0,1,.59-3.63Q61,39.23,62,36.44t2.38-5.65a40.62,40.62,0,0,1,2.95-5.21,20.32,20.32,0,0,1,3.29-3.87A5.09,5.09,0,0,1,74,20.19a3.64,3.64,0,0,1,3.72,1.08q1.2,1.5.44,5a56.74,56.74,0,0,0,.33,6.62c.21,1.84.45,3.59.7,5.27s.49,3.44.7,5.28a56.86,56.86,0,0,1,.32,6.62,4.21,4.21,0,0,1-.14,1.2c-.1.33-.58.5-1.44.5-.11,0-.26-.1-.44-.3A.84.84,0,0,1,77.93,51Zm-3.16-26.2c-.43-.62-1-.68-1.76-.17a10,10,0,0,0-2.35,2.52,38.85,38.85,0,0,0-2.52,4.22q-1.29,2.46-2.4,5C65,38,64.35,39.63,63.81,41.13a26,26,0,0,0-1.11,3.72c0,1.41.21,2.2.64,2.38s1,0,1.58-.68a18.59,18.59,0,0,0,2.14-2.69q1.2-1.76,2.34-3.75t2.17-3.87c.69-1.25,1.22-2.27,1.61-3.05A16.37,16.37,0,0,0,74,30.91c.2-.71.36-1.38.5-2a10.82,10.82,0,0,0,.24-2C74.76,26.26,74.77,25.56,74.77,24.81Z"/><path d="M96.09,41.81c-.39.9-.89,1.93-1.49,3.1a23.19,23.19,0,0,1-2.11,3.34A12.47,12.47,0,0,1,89.71,51a6,6,0,0,1-3.52,1.11,4,4,0,0,1-1.38-.2,2.53,2.53,0,0,1-.87-.62,4.92,4.92,0,0,1-.71-1c-.21-.39-.48-.82-.79-1.29-.12-1.91-.18-4-.2-6.18a56.54,56.54,0,0,1,.32-6.62,35.55,35.55,0,0,1,1.2-6.24,15.39,15.39,0,0,1,2.4-5A8.65,8.65,0,0,1,90.06,22a10,10,0,0,1,5.68-.12,30.11,30.11,0,0,0,.06-4.39q-.12-2.76-.35-5.8c-.16-2-.31-4-.47-5.89s-.25-3.45-.29-4.66a.84.84,0,0,1,.5-.79A3,3,0,0,1,96.27,0a5.43,5.43,0,0,1,1.14,0,2,2,0,0,1,.73.17q-.11,7.22,0,14.16t.14,13.82q.09,6.89.21,13.68t.11,13.6a11.29,11.29,0,0,1-.08,1.38c-.06.48-.4.73-1,.73a1.35,1.35,0,0,1-.7-.21,1,1,0,0,1-.47-.61Zm-2.52-17a4.28,4.28,0,0,0-3.36,1.44,13.8,13.8,0,0,0-2.7,4,28.74,28.74,0,0,0-1.85,5.42,33.23,33.23,0,0,0-.85,5.69,17.08,17.08,0,0,0,.36,4.83A4.24,4.24,0,0,0,87,49.07a3.53,3.53,0,0,0,2.41-1,11.92,11.92,0,0,0,2-2.61,21.17,21.17,0,0,0,1.64-3.55q.7-1.95,1.2-3.78c.33-1.21.58-2.31.76-3.31a13.47,13.47,0,0,0,.26-2.25c0-.39,0-1,.06-1.88a18.38,18.38,0,0,0-.06-2.57,8.8,8.8,0,0,0-.49-2.29C94.52,25.15,94.12,24.81,93.57,24.81Z"/><path d="M102.19,44.5a33.88,33.88,0,0,1-.41-5.24,41.78,41.78,0,0,1,.32-5.19c.21-1.76.53-3.58.94-5.48s.89-3.93,1.43-6.12a2.24,2.24,0,0,1,.35-1.2,3.24,3.24,0,0,1,.94-.94,5.87,5.87,0,0,1,1.23-.61,3.53,3.53,0,0,1,1.23-.24,3.8,3.8,0,0,1,2.35.82,10,10,0,0,1,1.9,2,15.65,15.65,0,0,1,1.47,2.49c.41.88.75,1.64,1,2.26a32,32,0,0,1,.67,4.66,36,36,0,0,1,0,5.3,29.39,29.39,0,0,1-.82,5.3A20.32,20.32,0,0,1,113,47.08a11.5,11.5,0,0,1-3,3.63,8.88,8.88,0,0,1-4.37,1.82,2.44,2.44,0,0,1-2-.91,5.88,5.88,0,0,1-1-2.23,11.9,11.9,0,0,1-.35-2.66C102.2,45.83,102.19,45.09,102.19,44.5Zm3-.17q0,.59,0,1.11a6.77,6.77,0,0,0,.11,1c.06.34.14.69.24,1.06s.22.79.38,1.26h.35a3.34,3.34,0,0,0,2.4-.94,7.9,7.9,0,0,0,1.7-2.43,18.41,18.41,0,0,0,1.17-3.34,35.34,35.34,0,0,0,.73-3.63c.18-1.19.3-2.31.36-3.34s.08-1.87.08-2.49V31.44c0-.51,0-1.09,0-1.73s-.11-1.31-.21-2a10.05,10.05,0,0,0-.44-1.87,3.94,3.94,0,0,0-.76-1.38,1.56,1.56,0,0,0-1.23-.52,2.48,2.48,0,0,0-2.2.17,4.09,4.09,0,0,0-1.46,2,14.75,14.75,0,0,0-.85,3.37,34,34,0,0,0-.35,4.4q-.06,2.4,0,5.1C105.17,40.73,105.18,42.53,105.18,44.33Z"/><path d="M128.2,51q-.28-.88-1-2.76c-.47-1.25-1-2.65-1.58-4.22s-1.22-3.22-1.88-5-1.29-3.42-1.87-5l-1.59-4.22c-.47-1.25-.82-2.18-1.05-2.81a6.14,6.14,0,0,1-.62-1.2,3.8,3.8,0,0,1-.26-1.35,2.48,2.48,0,0,1,.29-1.2,1.72,1.72,0,0,1,.94-.76,1.68,1.68,0,0,1,1.14.44,2.6,2.6,0,0,1,.73,1l6.74,17.29c0-.55.14-1.53.3-3s.31-2.94.46-4.54.31-3.12.44-4.54.25-2.41.33-3c0-.39.07-.84.11-1.35a7,7,0,0,1,.27-1.46,3.28,3.28,0,0,1,.64-1.23,1.52,1.52,0,0,1,1.26-.53,2.18,2.18,0,0,1,.85.12,1.69,1.69,0,0,1,.62.7l11.25,19.22V21.94a2.89,2.89,0,0,1,2.37.85,4.07,4.07,0,0,1,.82,2.08,10.66,10.66,0,0,1,0,2.64,14.09,14.09,0,0,0-.12,2.52c0,.27,0,.86.06,1.76s.09,1.93.15,3.1.11,2.43.15,3.78.08,2.61.14,3.78.11,2.21.15,3.11.06,1.48.06,1.75c.27.79.26,1.3,0,1.56a1.44,1.44,0,0,1-1.2.26,3.72,3.72,0,0,1-1.53-.64,2.51,2.51,0,0,1-1-1.18L132.77,27q-.41,8.85-.82,14.77t-.76,10c-.12.43-.31.66-.58.7a1.45,1.45,0,0,1-.85-.15,2.8,2.8,0,0,1-.85-.61Z"/><path d="M156.86,51.65a7.39,7.39,0,0,0,1.26-.7c.83-.51,1.83-1.18,3-2s2.34-1.76,3.55-2.76a25.24,25.24,0,0,0,3-2.84A4.53,4.53,0,0,0,168.9,41c.06-.65-.48-1.07-1.61-1.26a9.63,9.63,0,0,0-3.55.05,20.65,20.65,0,0,0-2.61.82l-2.19.88a4.82,4.82,0,0,1-2.26.3,3.79,3.79,0,0,1-3.55-1.62,8.47,8.47,0,0,1-1-4.36,11.66,11.66,0,0,1,1.23-5.24,14.88,14.88,0,0,1,3.16-4.31,15.25,15.25,0,0,1,4.46-2.9,12.91,12.91,0,0,1,5.15-1.09,8,8,0,0,1,1.82.18c.51.12.76.57.76,1.35a2.21,2.21,0,0,1-.7,1.55,2.15,2.15,0,0,1-1.59.73l-.29-.08a2.08,2.08,0,0,1-.47-.27,1.69,1.69,0,0,0-.47-.26,1.14,1.14,0,0,0-.29-.09,4.43,4.43,0,0,0-3.63.53,11.34,11.34,0,0,0-3.14,2.84A15.75,15.75,0,0,0,156,32.64a10.17,10.17,0,0,0-.82,3.72,1.71,1.71,0,0,0,.26,1,1.54,1.54,0,0,0,.7.56,2.87,2.87,0,0,0,1,.2q.56,0,1.14,0a8.2,8.2,0,0,0,2.37-.35A22.46,22.46,0,0,0,163,37c.76-.31,1.54-.58,2.34-.82a9,9,0,0,1,2.49-.35,3.21,3.21,0,0,1,1.29.32,4.27,4.27,0,0,1,1.29.94,6.29,6.29,0,0,1,1,1.41,4.31,4.31,0,0,1,.47,1.72,2.87,2.87,0,0,1-.21,2.17A13.89,13.89,0,0,1,170,45.26a25.3,25.3,0,0,1-2.69,3.08,40,40,0,0,1-3.17,2.81A18.82,18.82,0,0,1,161,53.2a5.33,5.33,0,0,1-2.58.74c-.78,0-1.24-.24-1.38-.71A5.51,5.51,0,0,1,156.86,51.65Z"/><path d="M202.73,8.76a.72.72,0,0,1,.33-.67,1.55,1.55,0,0,1,.76-.24,5.05,5.05,0,0,1,.94,0,7.17,7.17,0,0,0,.85.06,11.61,11.61,0,0,1,.49,2.78c.14,1.39.28,3.07.41,5s.24,4.15.3,6.53.11,4.8.17,7.24.1,4.83.12,7.18,0,4.48.06,6.41,0,3.59,0,5v2.63c0,.78-.21,1.24-.5,1.38a3.68,3.68,0,0,1-2-.26c-.12,0-.22-.63-.29-1.76s-.14-2.63-.18-4.48-.08-4-.12-6.39-.08-4.87-.12-7.41-.08-5.08-.14-7.62-.13-4.85-.21-6.94-.18-3.89-.32-5.39A11.55,11.55,0,0,0,202.73,8.76Z"/><path d="M212.87,51.77q-.65-7.92-1.14-15.85t-1.09-16.5c0-.93.51-1.4,1.53-1.4h.47c.11,0,.25.15.41.47a8.29,8.29,0,0,1,.49,1.72c.18.84.38,2.11.59,3.81s.48,3.92.79,6.65.67,6.16,1.06,10.26a70.51,70.51,0,0,0,1.93-7.74,43,43,0,0,1,1.82-6.82A17,17,0,0,1,222.86,21a11.8,11.8,0,0,1,5.83-3.46,4.79,4.79,0,0,1,3.4,2.55,19.61,19.61,0,0,1,2,5.42,46.18,46.18,0,0,1,1.06,7q.28,3.78.35,7.24t.06,6.18c0,1.81,0,3.11.11,3.9a2.29,2.29,0,0,1-.52.82,2,2,0,0,1-.8.49,1.55,1.55,0,0,1-.85.06,1.32,1.32,0,0,1-.76-.61c0-.43,0-1.31-.11-2.64s-.18-2.88-.3-4.66-.24-3.67-.38-5.68-.25-3.91-.35-5.69-.19-3.32-.26-4.65-.14-2.21-.18-2.64q-1.23-2.17-2.43-2.46a2.61,2.61,0,0,0-2.4.76,10.88,10.88,0,0,0-2.32,3.22A45,45,0,0,0,222,31c-.66,1.81-1.29,3.72-1.87,5.71s-1.1,3.92-1.53,5.77-.79,3.54-1.08,5-.48,2.67-.56,3.49a2,2,0,0,1-.73.79,3.9,3.9,0,0,1-1.17.55,2.86,2.86,0,0,1-1.23.09A1.16,1.16,0,0,1,212.87,51.77Z"/><path d="M241,27.51a12.11,12.11,0,0,0-1.09.61c-.33.22-.65.41-1,.59a3.86,3.86,0,0,1-.94.38,2.11,2.11,0,0,1-1,0,.68.68,0,0,1-.58-.44,4.44,4.44,0,0,1-.39-1,8.77,8.77,0,0,1-.2-1.12,3,3,0,0,1,0-.85l5.62-3.22.36-15c.07-.51.39-.71.93-.61a16.38,16.38,0,0,1,1.7.38,1.6,1.6,0,0,1,.38.08,2.45,2.45,0,0,1,.38.15c-.07,1.06-.16,2.2-.26,3.43s-.18,2.46-.26,3.69-.13,2.43-.15,3.6a22.24,22.24,0,0,0,.15,3.17l8.79-2.46c.15,0,.28.06.38.32s.19.56.29.91a9.65,9.65,0,0,1,.26,1.58l-10,4.22q0,.53.09,2.52t.21,4.71q.1,2.73.23,5.86c.08,2.09.16,4,.23,5.83s.14,3.37.18,4.72.06,2.2.06,2.55c-.08,1.17-.42,1.76-1,1.76a3.2,3.2,0,0,1-2-.88Z"/><path d="M255.47,44.5a33.88,33.88,0,0,1-.41-5.24,43.8,43.8,0,0,1,.32-5.19c.22-1.76.53-3.58.94-5.48s.89-3.93,1.43-6.12a2.16,2.16,0,0,1,.36-1.2,3.08,3.08,0,0,1,.93-.94,5.87,5.87,0,0,1,1.23-.61,3.53,3.53,0,0,1,1.23-.24,3.8,3.8,0,0,1,2.35.82,9.75,9.75,0,0,1,1.9,2,15.65,15.65,0,0,1,1.47,2.49c.41.88.75,1.64,1,2.26a33.3,33.3,0,0,1,.68,4.66,39,39,0,0,1,0,5.3,31.27,31.27,0,0,1-.82,5.3,20.79,20.79,0,0,1-1.82,4.78,11.5,11.5,0,0,1-3,3.63,8.89,8.89,0,0,1-4.36,1.82,2.41,2.41,0,0,1-2.05-.91,5.75,5.75,0,0,1-1-2.23,11.9,11.9,0,0,1-.35-2.66C255.48,45.83,255.47,45.09,255.47,44.5Zm3-.17q0,.59,0,1.11a8.38,8.38,0,0,0,.11,1c.06.34.14.69.24,1.06s.22.79.38,1.26h.35a3.34,3.34,0,0,0,2.4-.94,7.73,7.73,0,0,0,1.7-2.43,18.41,18.41,0,0,0,1.17-3.34,35.43,35.43,0,0,0,.74-3.63c.17-1.19.29-2.31.35-3.34s.09-1.87.09-2.49V31.44c0-.51,0-1.09-.06-1.73s-.11-1.31-.21-2a10.05,10.05,0,0,0-.44-1.87,3.94,3.94,0,0,0-.76-1.38,1.56,1.56,0,0,0-1.23-.52,2.48,2.48,0,0,0-2.2.17,4.09,4.09,0,0,0-1.46,2,14.75,14.75,0,0,0-.85,3.37,35.86,35.86,0,0,0-.35,4.4q-.06,2.4,0,5.1C258.45,40.73,258.46,42.53,258.46,44.33Z"/><path d="M299.88,50.24q-.12-7.44-.26-12.74c-.1-3.54-.19-6.51-.26-8.94s-.17-4.34-.27-5.77-.16-2.57-.2-3.43-.08-1.47-.12-1.84a10,10,0,0,1-.06-1.08c0-.67.2-1.09.59-1.26a3.49,3.49,0,0,1,1.46-.27,2.73,2.73,0,0,1,1.55.38c.38.26.56.91.56,2L304,48.78l.59-.12a12.29,12.29,0,0,0,1.23-.35l1.47-.5a10,10,0,0,0,1.23-.5c.46-.19,1.17-.5,2.11-.93l3.16-1.47,3.72-1.73,3.75-1.7c1.19-.52,2.25-1,3.16-1.46s1.62-.77,2.08-1h.71a4.14,4.14,0,0,1,.7.06,1.1,1.1,0,0,1,.59.29,1.26,1.26,0,0,1,.29.71,2.13,2.13,0,0,1-.21,1A7.72,7.72,0,0,1,328,42a24.76,24.76,0,0,0-6.77,2.34c-2.21,1.14-4.39,2.31-6.56,3.52a67.32,67.32,0,0,1-6.56,3.22,17.16,17.16,0,0,1-6.77,1.41C300.37,52.53,299.88,51.77,299.88,50.24Z"/><path d="M330.41,9.4a.94.94,0,0,1,.47-.93,2.26,2.26,0,0,1,1.05-.24c.78,0,1.27.26,1.47.76a5,5,0,0,1,.29,1.76,2.1,2.1,0,0,1-.88.91,1.46,1.46,0,0,1-1.08.12,1.59,1.59,0,0,1-.94-.74A3,3,0,0,1,330.41,9.4Zm1.29,42q0-3.81-.15-8c-.1-2.81-.19-5.65-.29-8.53s-.13-5.69-.09-8.46a69.49,69.49,0,0,1,.53-7.8,2.4,2.4,0,0,1,.56-.08l.61,0a2.89,2.89,0,0,1,1.32.26,1.18,1.18,0,0,1,.5,1.14q0,3.47,0,7.53t-.06,8.26c0,2.8,0,5.56,0,8.3s0,5.21.12,7.44a1.47,1.47,0,0,1-.38,1.32,1.85,1.85,0,0,1-1.09.32,2,2,0,0,1-1.17-.32C331.74,52.46,331.62,52,331.7,51.36Z"/><path d="M342.77,75.44a13.86,13.86,0,0,0,8.12-2.7,14.49,14.49,0,0,0,4.42-6.21,29.05,29.05,0,0,0,1.76-8.7,97,97,0,0,0,.06-10.11c-.16-3.47-.38-7-.67-10.45s-.43-6.75-.39-9.76a105.13,105.13,0,0,1-4.74,11.92,36.33,36.33,0,0,1-4.13,6.86,8.35,8.35,0,0,1-3.46,2.81,3.25,3.25,0,0,1-2.72-.17,4.88,4.88,0,0,1-1.91-2.17,11.61,11.61,0,0,1-1-3.08,24.65,24.65,0,0,1,1.08-6,39.51,39.51,0,0,1,2.52-6.38,36.94,36.94,0,0,1,3.6-5.86,18.81,18.81,0,0,1,4.34-4.28,9,9,0,0,1,4.75-1.64,6.78,6.78,0,0,1,4.74,1.9,9.54,9.54,0,0,1,.21,1.56c.09,1,.21,2.3.35,3.92s.29,3.44.47,5.45.34,4,.49,6.1.3,4,.41,5.88.24,3.5.36,4.87a35.83,35.83,0,0,1-.27,7.09,47.42,47.42,0,0,1-1.55,7.29,36.94,36.94,0,0,1-2.67,6.65,19.14,19.14,0,0,1-3.69,5.1,9.54,9.54,0,0,1-4.63,2.55,8,8,0,0,1-5.42-.91l-.52,0a1,1,0,0,1-.56-.2.38.38,0,0,1-.09-.47A3,3,0,0,1,342.77,75.44Zm-1.64-32.17c.39,1.21.91,1.83,1.56,1.85a2.9,2.9,0,0,0,2.08-1.23,22.74,22.74,0,0,0,2.43-3.55c.88-1.52,1.74-3.18,2.6-5s1.71-3.64,2.55-5.54,1.63-3.66,2.38-5.3a2.48,2.48,0,0,0-.3-1.2c-.19-.37-.62-.48-1.29-.32A7.76,7.76,0,0,0,350,24.58a16,16,0,0,0-2.87,3,27.49,27.49,0,0,0-2.4,3.92,40.7,40.7,0,0,0-1.88,4.28,35.42,35.42,0,0,0-1.23,4.07A15.84,15.84,0,0,0,341.13,43.27Z"/><path d="M386,26.92a4.17,4.17,0,0,0-4.16.65,16.73,16.73,0,0,0-3.81,4.13,47.43,47.43,0,0,0-3.46,6.06q-1.63,3.41-3,6.45T369,49.42c-.76,1.45-1.45,2.25-2.08,2.41a1.85,1.85,0,0,1-1.08-.27c-.25-.17-.38-.61-.38-1.32V9.05a.59.59,0,0,1,.44-.64,2.55,2.55,0,0,1,1-.06,3.61,3.61,0,0,1,1,.26,1.23,1.23,0,0,1,.59.44l.76,33a12.48,12.48,0,0,0,1.2-3c.37-1.27.81-2.64,1.32-4.1a45,45,0,0,1,1.79-4.39,16.86,16.86,0,0,1,2.54-4,10.37,10.37,0,0,1,3.73-2.72,10.22,10.22,0,0,1,5.18-.68,4.29,4.29,0,0,1,3.22,1.26,4.76,4.76,0,0,1,1.29,3.31l.59,23.38a3.72,3.72,0,0,1-.09.68,1.32,1.32,0,0,1-.47.76,2,2,0,0,1-1.05.41,3.59,3.59,0,0,1-1.73-.33Z"/><path d="M394.57,27.51c-.39.2-.75.4-1.08.61s-.66.41-1,.59a3.71,3.71,0,0,1-.94.38,2.07,2.07,0,0,1-1,0,.69.69,0,0,1-.59-.44,4.44,4.44,0,0,1-.38-1,7.35,7.35,0,0,1-.21-1.12,3.94,3.94,0,0,1,0-.85L395,22.47l.35-15c.08-.51.39-.71.94-.61s1.11.22,1.7.38a1.82,1.82,0,0,1,.38.08l.38.15c-.08,1.06-.17,2.2-.26,3.43s-.19,2.46-.27,3.69-.13,2.43-.14,3.6a22.34,22.34,0,0,0,.14,3.17l8.79-2.46c.16,0,.28.06.38.32a7.59,7.59,0,0,1,.29.91,10.62,10.62,0,0,1,.27,1.58l-10,4.22q0,.53.09,2.52c.05,1.33.12,2.9.2,4.71s.16,3.77.23,5.86.16,4,.24,5.83.14,3.37.17,4.72.06,2.2.06,2.55c-.08,1.17-.42,1.76-1,1.76a3.18,3.18,0,0,1-2-.88Z"/></svg>
