<svg xmlns="http://www.w3.org/2000/svg" viewBox="0 0 386.75 40.98"><title>SourceSansPro-Light</title><path d="M1.74,33.12a15.58,15.58,0,0,0,11.64,5.34c6,0,9.84-3.24,9.84-7.92,0-4.92-3.24-6.54-7.14-8.28l-6-2.7c-3.42-1.5-8-4-8-9.84C2.1,4,7,0,13.56,0a15.05,15.05,0,0,1,11,4.74L23,6.6a12.54,12.54,0,0,0-9.42-4.08c-5.22,0-8.7,2.76-8.7,7.08,0,4.56,4,6.3,6.84,7.62l6,2.64c4.38,2,8.28,4.44,8.28,10.5S21,41,13.32,41A17.43,17.43,0,0,1,0,35Z"/><path d="M44.28,10.74c7,0,13,5.52,13,15.18S51.24,41,44.28,41s-12.9-5.52-12.9-15.06S37.38,10.74,44.28,10.74Zm0,27.9c5.82,0,10.2-5.16,10.2-12.72S50.1,13.08,44.28,13.08,34.14,18.3,34.14,25.92,38.46,38.64,44.28,38.64Z"/><path d="M65.46,11.46H68.1V29.58c0,6.12,1.92,9,6.54,9,3.42,0,5.94-1.8,9.3-5.88V11.46h2.64v28.8H84.36l-.3-4.8h-.12C81.12,38.76,78.12,41,74.16,41c-5.94,0-8.7-3.6-8.7-11Z"/><path d="M97.62,11.46H99.9l.24,5.34h.18c1.92-3.54,4.74-6.06,8.16-6.06a5.93,5.93,0,0,1,2.88.6l-.6,2.4a6.28,6.28,0,0,0-2.64-.48c-2.58,0-5.64,2-7.86,7.38V40.26H97.62Z"/><path d="M126.78,10.74a11.81,11.81,0,0,1,8.46,3.54l-1.56,1.86a9.82,9.82,0,0,0-6.84-3.06c-5.88,0-10.44,5.22-10.44,12.84s4.14,12.72,10.44,12.72a11.58,11.58,0,0,0,7.68-3.3l1.38,1.8A13.61,13.61,0,0,1,126.72,41c-7.44,0-13.08-5.52-13.08-15.06S119.76,10.74,126.78,10.74Z"/><path d="M152.1,10.74c6.84,0,11,4.86,11,13.32a13,13,0,0,1-.12,2.16H142.26c.12,7.26,4.38,12.48,10.86,12.48a12.76,12.76,0,0,0,7.74-2.58l1.08,2A16.06,16.06,0,0,1,152.88,41c-7.38,0-13.32-5.64-13.32-15.06S145.68,10.74,152.1,10.74Zm8.52,13.44c0-7.38-3.3-11.16-8.46-11.16-4.92,0-9.3,4.26-9.9,11.16Z"/><path d="M181.68,33.12a15.58,15.58,0,0,0,11.64,5.34c6,0,9.83-3.24,9.83-7.92,0-4.92-3.23-6.54-7.13-8.28l-6-2.7c-3.42-1.5-8-4-8-9.84C182,4,187,0,193.5,0a15,15,0,0,1,11,4.74L202.92,6.6a12.54,12.54,0,0,0-9.42-4.08c-5.22,0-8.7,2.76-8.7,7.08,0,4.56,4,6.3,6.84,7.62l6,2.64c4.38,2,8.27,4.44,8.27,10.5S200.94,41,193.26,41A17.43,17.43,0,0,1,179.94,35Z"/><path d="M230.69,22.2c.12-4.38-1.14-9.12-6.78-9.12a15.89,15.89,0,0,0-9.18,3.36l-1.19-2a19.19,19.19,0,0,1,10.67-3.72c6.84,0,9.12,4.92,9.12,11.1V40.26h-2.22l-.3-3.72h-.12c-2.94,2.34-6.42,4.44-10.2,4.44-4.55,0-8.39-2.46-8.39-7.92C212.1,26.7,217.92,23.64,230.69,22.2Zm-9.78,16.5c3.3,0,6.24-1.62,9.78-4.68V24.24c-11.81,1.38-15.84,4.14-15.84,8.7C214.85,37.08,217.61,38.7,220.91,38.7Z"/><path d="M243.65,11.46h2.28l.24,4.44h.18c2.94-2.94,5.94-5.16,9.9-5.16,5.94,0,8.7,3.6,8.7,11V40.26h-2.64V22.14c0-6.12-1.92-9-6.6-9-3.42,0-5.88,1.8-9.42,5.4V40.26h-2.64Z"/><path d="M273.53,35c2.46,2,5,3.66,9.18,3.66,4.5,0,6.84-2.64,6.84-5.7,0-3.6-3.72-5.16-7-6.36-4.38-1.56-9.18-3.3-9.18-8.22,0-4.2,3.3-7.68,9.3-7.68a13.36,13.36,0,0,1,8.22,3l-1.44,1.86a10.9,10.9,0,0,0-6.9-2.58c-4.44,0-6.48,2.58-6.48,5.22,0,3.18,3.36,4.56,6.78,5.82,4.5,1.68,9.42,3.18,9.42,8.82,0,4.32-3.48,8.1-9.72,8.1A16.67,16.67,0,0,1,272,37Z"/><path d="M311.93.72h10.8c8.82,0,14,2.88,14,11,0,7.74-5.28,11.52-14,11.52h-8v17h-2.76ZM322,20.94c8.1,0,11.94-2.7,11.94-9.18,0-6.66-3.9-8.7-11.94-8.7h-7.32V20.94Z"/><path d="M344.87,11.46h2.28l.24,5.34h.18c1.92-3.54,4.74-6.06,8.16-6.06a5.93,5.93,0,0,1,2.88.6l-.6,2.4a6.28,6.28,0,0,0-2.64-.48c-2.58,0-5.64,2-7.86,7.38V40.26h-2.64Z"/><path d="M373.79,10.74c7,0,13,5.52,13,15.18s-6,15.06-13,15.06-12.9-5.52-12.9-15.06S366.89,10.74,373.79,10.74Zm0,27.9c5.82,0,10.2-5.16,10.2-12.72s-4.38-12.84-10.2-12.84-10.14,5.22-10.14,12.84S368,38.64,373.79,38.64Z"/></svg>
