<svg xmlns="http://www.w3.org/2000/svg" viewBox="0 0 320.04 43.98"><title>TitilliumWeb-Light</title><path d="M0,5V1.62H30V5H16.92V43.32H13.2V5Z"/><path d="M35.28,5.82V1.32h3.54v4.5Zm0,37.5v-30h3.54v30Z"/><path d="M63,16.5H53V31.32q0,5.82.84,7.62t4,1.8l5.52-.42.24,3.06a43.76,43.76,0,0,1-6.06.6q-4.56,0-6.33-2.25t-1.77-8.61V16.5H44.94V13.32h4.44V3.9H53v9.42H63Z"/><path d="M68.64,5.82V1.32h3.54v4.5Zm0,37.5v-30h3.54v30Z"/><path d="M81.54,43.32V0h3.54V43.32Z"/><path d="M94.8,43.32V0h3.54V43.32Z"/><path d="M107.7,5.82V1.32h3.54v4.5Zm0,37.5v-30h3.54v30Z"/><path d="M139.2,13.32h3.54v30H139.2V41.1A17.61,17.61,0,0,1,130,43.92q-6.12,0-8.07-3.12t-2-11.82V13.32h3.54v15.6q0,7,1.29,9.36t5.61,2.4a15.79,15.79,0,0,0,4.32-.63,15.36,15.36,0,0,0,3.36-1.29l1.14-.6Z"/><path d="M155.28,43.32h-3.54v-30h3.54v2.22A18.17,18.17,0,0,1,165,12.72q5.16,0,7.32,3.18a22.51,22.51,0,0,1,5.25-2.25,19.48,19.48,0,0,1,5.55-.93q6,0,8,3.15t2,11.67V43.32H189.6V27.72q0-6.9-1.29-9.33T182.7,16a16.64,16.64,0,0,0-4.44.63,16.81,16.81,0,0,0-3.48,1.29l-1.2.6q.9,2.28.9,9.24v15.6h-3.6V27.84q0-7-1.29-9.45T164,16a17.71,17.71,0,0,0-7.62,1.92l-1.14.6Z"/><path d="M212.52,1.62h3.78L223.86,40h2L234.6,2.1H239L247.68,40h2l7.56-38.4H261l-8.58,41.7H245l-8.22-36.6-8.22,36.6H221.1Z"/><path d="M286.08,40.32l1.8-.18.12,2.94a95.72,95.72,0,0,1-11.46.84q-6.48-.06-9.06-3.84T264.9,28.44q0-15.72,12.36-15.72,5.94,0,8.88,3.39t2.94,10.83L289,29.82h-20.4q0,5.52,1.89,8.19t6.48,2.67Q281.52,40.68,286.08,40.32Zm-17.52-13.5h16.92q0-5.94-2-8.46t-6.24-2.52a8.07,8.07,0,0,0-6.51,2.61Q268.56,21.06,268.56,26.82Z"/><path d="M309.36,12.72c4,0,6.78,1.16,8.34,3.48s2.34,6.33,2.34,12-1,9.74-3,12.12S311.4,43.92,306,43.92a80.31,80.31,0,0,1-8-.48l-1.56-.12V0H300V14.94A21.68,21.68,0,0,1,309.36,12.72ZM300,40.32q4.19.36,6.75.36a13.73,13.73,0,0,0,4.59-.72,6.06,6.06,0,0,0,3.15-2.43,10.07,10.07,0,0,0,1.47-3.9,37.18,37.18,0,0,0,.36-5.79q0-6.36-1.53-9.12c-1-1.84-2.94-2.76-5.73-2.76a19.82,19.82,0,0,0-4.32.51,20.77,20.77,0,0,0-3.54,1.05L300,18Z"/></svg>
