<svg xmlns="http://www.w3.org/2000/svg" viewBox="0 0 191.04 47.46"><title>Ubuntu-Light</title><path d="M15.18,47.46a17.7,17.7,0,0,1-7-1.26,12.15,12.15,0,0,1-4.71-3.48A14,14,0,0,1,.81,37.53,24.21,24.21,0,0,1,0,31.14V5H4.08V30.6a19.18,19.18,0,0,0,.81,5.91,11.41,11.41,0,0,0,2.25,4.11A8.79,8.79,0,0,0,10.62,43a12.68,12.68,0,0,0,4.56.78A12.68,12.68,0,0,0,19.74,43a8.79,8.79,0,0,0,3.48-2.4,11.41,11.41,0,0,0,2.25-4.11,19.18,19.18,0,0,0,.81-5.91V5h4.08V31.14a24.21,24.21,0,0,1-.81,6.39,14,14,0,0,1-2.61,5.19,12.15,12.15,0,0,1-4.71,3.48A17.7,17.7,0,0,1,15.18,47.46Z"/><path d="M44.64,17.4a13.88,13.88,0,0,1,3.27-1.65,14.7,14.7,0,0,1,5.31-.87,14.14,14.14,0,0,1,6,1.2,12.41,12.41,0,0,1,4.41,3.36,14.83,14.83,0,0,1,2.73,5.13,21.7,21.7,0,0,1,.93,6.51,19.44,19.44,0,0,1-1.11,6.78A14.59,14.59,0,0,1,63,43a13.42,13.42,0,0,1-4.8,3.21A16.67,16.67,0,0,1,52,47.28a35.83,35.83,0,0,1-6.84-.54,35.08,35.08,0,0,1-4.44-1.14V.72L44.64,0Zm0,25.5a17.27,17.27,0,0,0,2.67.57,32.08,32.08,0,0,0,4.65.27,10.57,10.57,0,0,0,8.1-3.27q3.06-3.27,3.06-9.39a21.43,21.43,0,0,0-.54-4.89,11.46,11.46,0,0,0-1.74-4,8.7,8.7,0,0,0-3.15-2.73,10.34,10.34,0,0,0-4.83-1,12.57,12.57,0,0,0-2.64.27,15.29,15.29,0,0,0-2.34.69,12.86,12.86,0,0,0-1.89.9,13.11,13.11,0,0,0-1.35.9Z"/><path d="M99.54,45.48q-1.74.48-4.68,1.08a36.69,36.69,0,0,1-7.2.6,14.59,14.59,0,0,1-5.82-1,9.45,9.45,0,0,1-3.78-2.88A11.67,11.67,0,0,1,76,38.76a25.08,25.08,0,0,1-.63-5.82V15.54h3.9V31.68a27.59,27.59,0,0,0,.48,5.58A9.07,9.07,0,0,0,81.3,41a6.09,6.09,0,0,0,2.79,2,12.12,12.12,0,0,0,4.17.63,33.45,33.45,0,0,0,4.8-.3,12.91,12.91,0,0,0,2.58-.54V15.54h3.9Z"/><path d="M109.86,16.62q1.74-.48,4.68-1.08a36.69,36.69,0,0,1,7.2-.6,15,15,0,0,1,5.91,1,9.08,9.08,0,0,1,3.78,2.91,11.87,11.87,0,0,1,2,4.53,26.28,26.28,0,0,1,.6,5.82V46.56h-3.9V30.48a29.38,29.38,0,0,0-.45-5.58,9.31,9.31,0,0,0-1.5-3.72,5.83,5.83,0,0,0-2.76-2.07,12.54,12.54,0,0,0-4.29-.63,32.82,32.82,0,0,0-4.77.3,14.62,14.62,0,0,0-2.61.54V46.56h-3.9Z"/><path d="M147.66,15.54H160v3.3H147.66v16.5a16.76,16.76,0,0,0,.45,4.29,6,6,0,0,0,1.29,2.55,4.09,4.09,0,0,0,2,1.2,10.88,10.88,0,0,0,2.64.3,11.37,11.37,0,0,0,4-.57,17.24,17.24,0,0,0,2.34-1l1,3.24a14.11,14.11,0,0,1-2.94,1.23,14.53,14.53,0,0,1-4.56.69,13.54,13.54,0,0,1-4.83-.75,7,7,0,0,1-3.12-2.28,9.35,9.35,0,0,1-1.65-3.81,26.53,26.53,0,0,1-.48-5.4V6.42l3.9-.72Z"/><path d="M191,45.48q-1.74.48-4.68,1.08a36.69,36.69,0,0,1-7.2.6,14.59,14.59,0,0,1-5.82-1,9.45,9.45,0,0,1-3.78-2.88,11.67,11.67,0,0,1-2.07-4.5,25.08,25.08,0,0,1-.63-5.82V15.54h3.9V31.68a27.59,27.59,0,0,0,.48,5.58A9.07,9.07,0,0,0,172.8,41a6.09,6.09,0,0,0,2.79,2,12.12,12.12,0,0,0,4.17.63,33.45,33.45,0,0,0,4.8-.3,12.91,12.91,0,0,0,2.58-.54V15.54H191Z"/></svg>
