<svg xmlns="http://www.w3.org/2000/svg" viewBox="0 0 349.49 45.01"><title>YanoneKaffeesatz-Light</title><path d="M11.93,43.68a.82.82,0,0,1-.12.54,1.51,1.51,0,0,1-.78.15q-.66,0-1.8,0V27.18L.05,2.88q-.12-.24,0-.33A2.68,2.68,0,0,1,1,2.43q.75,0,2.07,0l3.12,8.7Q7.43,14.46,9,19.35t1.65,5.43q.06-.42,1.53-5t2.91-8.7L18,2.94a.78.78,0,0,1,.27-.39,2.55,2.55,0,0,1,.87-.12q.72,0,1.86,0L11.93,27.18Z"/><path d="M23.27,43.38q-2.34-1.74-2.34-7.26,0-5.76,2.52-7.74a10.68,10.68,0,0,1,6.78-2,15.2,15.2,0,0,1,5,.66V21.6q0-3-1.29-4.08a5.81,5.81,0,0,0-3.81-1.08,27.87,27.87,0,0,0-5.19.45,16.83,16.83,0,0,0-3.69,1.05,3.44,3.44,0,0,1-.36-1.56q0-.84.42-1.08A11.93,11.93,0,0,1,25,14.25a34.5,34.5,0,0,1,5.73-.45q3.66,0,5.43,1.65T38,21.06v3.72q0,11-.36,18a14.44,14.44,0,0,1-8,2.22A9.81,9.81,0,0,1,23.27,43.38ZM33,42.12a6,6,0,0,0,2-1q.3-3.36.3-11.94a13.17,13.17,0,0,0-4.26-.6,12.19,12.19,0,0,0-3.81.51,4.69,4.69,0,0,0-2.52,2.13,9.49,9.49,0,0,0-1,4.86,8.77,8.77,0,0,0,.84,4.32,3.73,3.73,0,0,0,2.16,1.83,12.1,12.1,0,0,0,3.36.39A9,9,0,0,0,33,42.12Z"/><path d="M44.45,15.9a26,26,0,0,1,9.78-2.1q4.68,0,6.42,1.95t1.74,6.39V43.68a.82.82,0,0,1-.12.54,1.6,1.6,0,0,1-.81.15q-.69,0-1.83,0V22.8q0-3.6-1.11-5.07t-4.35-1.47a18.77,18.77,0,0,0-3.6.39,13.47,13.47,0,0,0-3.42,1.11V43.68a.82.82,0,0,1-.12.54,1.51,1.51,0,0,1-.78.15q-.66,0-1.8,0Z"/><path d="M72.23,43.89q-2-1.11-3.06-4.5a34.66,34.66,0,0,1-1.08-9.93q0-15.66,10-15.66a9.1,9.1,0,0,1,5.25,1.38,8.52,8.52,0,0,1,3,4.8,34.33,34.33,0,0,1,1,9.42q0,7.86-2.55,11.73A8.33,8.33,0,0,1,77.45,45,10.64,10.64,0,0,1,72.23,43.89ZM82.7,39.36q1.83-3.24,1.83-10.08a33.51,33.51,0,0,0-.75-8,7.11,7.11,0,0,0-2.16-4A5.8,5.8,0,0,0,78,16.2a5.71,5.71,0,0,0-5.22,3.09Q71,22.38,71,29.76a32.34,32.34,0,0,0,.75,8,7,7,0,0,0,2.13,3.84,5.89,5.89,0,0,0,3.66,1.05A5.7,5.7,0,0,0,82.7,39.36Z"/><path d="M93.05,15.9a26,26,0,0,1,9.78-2.1q4.68,0,6.42,1.95T111,22.14V43.68a.82.82,0,0,1-.12.54,1.6,1.6,0,0,1-.81.15q-.69,0-1.83,0V22.8q0-3.6-1.11-5.07t-4.35-1.47a18.77,18.77,0,0,0-3.6.39,13.47,13.47,0,0,0-3.42,1.11V43.68a.82.82,0,0,1-.12.54,1.51,1.51,0,0,1-.78.15q-.66,0-1.8,0Z"/><path d="M131.36,41.79a11.38,11.38,0,0,0,3.33-1.53,5.44,5.44,0,0,1,.36,1.92q0,.6-1.14,1.29a10.15,10.15,0,0,1-3,1.11,17.94,17.94,0,0,1-4,.42,12.22,12.22,0,0,1-5.34-1,7.24,7.24,0,0,1-3.33-4.08,24.64,24.64,0,0,1-1.23-8.82q0-7.26,1.56-11.07t3.87-5a11.35,11.35,0,0,1,5.31-1.2,6.57,6.57,0,0,1,5.67,2.49,11.62,11.62,0,0,1,1.83,7,39.81,39.81,0,0,1-.48,7,58.6,58.6,0,0,1-7.86.87q-4.32.21-7.2.15a21.24,21.24,0,0,0,.9,7.08,5.52,5.52,0,0,0,2.52,3.21,9.25,9.25,0,0,0,4.14.81A14.36,14.36,0,0,0,131.36,41.79Zm-9.09-23q-2.16,2.49-2.46,10.17h1.92a49.5,49.5,0,0,0,10.68-.84,34.41,34.41,0,0,0,.24-4.14,12.39,12.39,0,0,0-1.14-5.82q-1.08-1.86-3.9-1.86A6.79,6.79,0,0,0,122.27,18.75Z"/><path d="M170.21,43.86q0,.6-1.08.6t-1.68-.06a79.53,79.53,0,0,0-5-12.72,30.05,30.05,0,0,0-5.07-7.14,9.6,9.6,0,0,0-3.12-2V43.68a.82.82,0,0,1-.12.54,1.51,1.51,0,0,1-.78.15q-.66,0-1.8,0V3.12a.82.82,0,0,1,.12-.54,1.51,1.51,0,0,1,.78-.15q.66,0,1.8,0V20.58l13-18.06A9.06,9.06,0,0,1,169,2.4q1.2,0,1.2.54a3,3,0,0,1-.24.54L157,20.76a22.9,22.9,0,0,1,7.35,8,58.59,58.59,0,0,1,5.85,14.7A.84.84,0,0,1,170.21,43.86Z"/><path d="M176.15,43.38q-2.34-1.74-2.34-7.26,0-5.76,2.52-7.74a10.68,10.68,0,0,1,6.78-2,15.2,15.2,0,0,1,5,.66V21.6q0-3-1.29-4.08a5.81,5.81,0,0,0-3.81-1.08,27.87,27.87,0,0,0-5.19.45,16.83,16.83,0,0,0-3.69,1.05,3.44,3.44,0,0,1-.36-1.56q0-.84.42-1.08a11.93,11.93,0,0,1,3.69-1.05,34.5,34.5,0,0,1,5.73-.45q3.66,0,5.43,1.65t1.77,5.61v3.72q0,11-.36,18a14.44,14.44,0,0,1-8,2.22A9.81,9.81,0,0,1,176.15,43.38Zm9.69-1.26a6,6,0,0,0,2-1q.3-3.36.3-11.94a13.17,13.17,0,0,0-4.26-.6,12.19,12.19,0,0,0-3.81.51,4.69,4.69,0,0,0-2.52,2.13,9.49,9.49,0,0,0-1,4.86,8.77,8.77,0,0,0,.84,4.32,3.73,3.73,0,0,0,2.16,1.83,12.1,12.1,0,0,0,3.36.39A9,9,0,0,0,185.84,42.12Z"/><path d="M225.8.51q1.29.51,1.29,1.35a4.6,4.6,0,0,1-.36,1.38,14.14,14.14,0,0,0-4.5-.72A8.07,8.07,0,0,0,217,4.08q-1.95,1.56-1.95,6.48V14.4h6.6a9.52,9.52,0,0,1-.12,2q-.12.36-.66.36h-5.82V43.68a1,1,0,0,1-.15.45.66.66,0,0,1-.63.27h-1.92V16.8H202V43.68a1.16,1.16,0,0,1-.12.45q-.12.27-.6.27h-2V16.8h-4.74q0-1,0-1.53a1,1,0,0,1,.21-.72.94.94,0,0,1,.6-.15h3.9V9.9q0-5.94,2.85-7.77A11.79,11.79,0,0,1,208.67.3a11.35,11.35,0,0,1,6.36,2A6.75,6.75,0,0,1,218.21.45,15.79,15.79,0,0,1,222.05,0,10.66,10.66,0,0,1,225.8.51Zm-13.41,10a14.31,14.31,0,0,1,1.2-6.18,7,7,0,0,0-2.28-1.2,10.35,10.35,0,0,0-2.94-.36,7.65,7.65,0,0,0-4.44,1.32Q202,5.4,202,9.84V14.4h10.38Z"/><path d="M237.44,41.79a11.38,11.38,0,0,0,3.33-1.53,5.44,5.44,0,0,1,.36,1.92q0,.6-1.14,1.29a10.15,10.15,0,0,1-3,1.11,17.94,17.94,0,0,1-4,.42,12.22,12.22,0,0,1-5.34-1,7.24,7.24,0,0,1-3.33-4.08,24.64,24.64,0,0,1-1.23-8.82q0-7.26,1.56-11.07t3.87-5a11.35,11.35,0,0,1,5.31-1.2,6.57,6.57,0,0,1,5.67,2.49,11.62,11.62,0,0,1,1.83,7,39.81,39.81,0,0,1-.48,7,58.6,58.6,0,0,1-7.86.87q-4.32.21-7.2.15a21.24,21.24,0,0,0,.9,7.08,5.52,5.52,0,0,0,2.52,3.21,9.25,9.25,0,0,0,4.14.81A14.36,14.36,0,0,0,237.44,41.79Zm-9.09-23q-2.16,2.49-2.46,10.17h1.92a49.5,49.5,0,0,0,10.68-.84,34.41,34.41,0,0,0,.24-4.14,12.39,12.39,0,0,0-1.14-5.82q-1.08-1.86-3.9-1.86A6.79,6.79,0,0,0,228.35,18.75Z"/><path d="M260.18,41.79a11.38,11.38,0,0,0,3.33-1.53,5.44,5.44,0,0,1,.36,1.92q0,.6-1.14,1.29a10.15,10.15,0,0,1-3,1.11,17.94,17.94,0,0,1-4,.42,12.22,12.22,0,0,1-5.34-1,7.24,7.24,0,0,1-3.33-4.08,24.64,24.64,0,0,1-1.23-8.82q0-7.26,1.56-11.07t3.87-5a11.35,11.35,0,0,1,5.31-1.2,6.57,6.57,0,0,1,5.67,2.49,11.62,11.62,0,0,1,1.83,7,39.81,39.81,0,0,1-.48,7,58.6,58.6,0,0,1-7.86.87q-4.32.21-7.2.15a21.24,21.24,0,0,0,.9,7.08A5.52,5.52,0,0,0,252,41.55a9.25,9.25,0,0,0,4.14.81A14.36,14.36,0,0,0,260.18,41.79Zm-9.09-23q-2.16,2.49-2.46,10.17h1.92a49.5,49.5,0,0,0,10.68-.84,34.41,34.41,0,0,0,.24-4.14,12.39,12.39,0,0,0-1.14-5.82q-1.08-1.86-3.9-1.86A6.79,6.79,0,0,0,251.09,18.75Z"/><path d="M270.83,44.28q-2.1-.72-2.1-1.74a2.4,2.4,0,0,1,.6-1.68,10.48,10.48,0,0,0,3,1.23,16.49,16.49,0,0,0,3.87.39,9.11,9.11,0,0,0,5.16-1.26,4.26,4.26,0,0,0,1.86-3.78,6.57,6.57,0,0,0-.87-3.36,9.64,9.64,0,0,0-2.79-2.88L273,26.82a10.16,10.16,0,0,1-3.27-3,6.45,6.45,0,0,1-.81-3.27,5.65,5.65,0,0,1,2.64-4.92,12.26,12.26,0,0,1,7-1.8,15.66,15.66,0,0,1,4.29.51,7.82,7.82,0,0,1,2.61,1.17q.84.66.84,1.2a2.68,2.68,0,0,1-.72,1.56,13.22,13.22,0,0,0-3.21-1.5,12.34,12.34,0,0,0-3.57-.48,10,10,0,0,0-5,1.11,3.42,3.42,0,0,0-1.95,3.09,4,4,0,0,0,.66,2.25A9.38,9.38,0,0,0,275,25l6.84,4.56A12.67,12.67,0,0,1,285.11,33a7.85,7.85,0,0,1,1,4A7.12,7.12,0,0,1,283.55,43a11.34,11.34,0,0,1-7.2,2A17.42,17.42,0,0,1,270.83,44.28Z"/><path d="M293.45,43.38q-2.34-1.74-2.34-7.26,0-5.76,2.52-7.74a10.68,10.68,0,0,1,6.78-2,15.2,15.2,0,0,1,5,.66V21.6q0-3-1.29-4.08a5.81,5.81,0,0,0-3.81-1.08,27.87,27.87,0,0,0-5.19.45,16.83,16.83,0,0,0-3.69,1.05,3.44,3.44,0,0,1-.36-1.56q0-.84.42-1.08a11.93,11.93,0,0,1,3.69-1.05A34.5,34.5,0,0,1,301,13.8q3.66,0,5.43,1.65t1.77,5.61v3.72q0,11-.36,18a14.44,14.44,0,0,1-8,2.22A9.81,9.81,0,0,1,293.45,43.38Zm9.69-1.26a6,6,0,0,0,2-1q.3-3.36.3-11.94a13.17,13.17,0,0,0-4.26-.6,12.19,12.19,0,0,0-3.81.51,4.69,4.69,0,0,0-2.52,2.13,9.49,9.49,0,0,0-1,4.86,8.77,8.77,0,0,0,.84,4.32,3.73,3.73,0,0,0,2.16,1.83,12.1,12.1,0,0,0,3.36.39A9,9,0,0,0,303.14,42.12Z"/><path d="M319.1,43.83a5.62,5.62,0,0,1-1.41-3.09,35.53,35.53,0,0,1-.3-5.22V16.86h-4.62a10.07,10.07,0,0,1,.12-2,.52.52,0,0,1,.54-.42h4V4.8q0-.84.45-1a8.14,8.14,0,0,1,2.25-.18V14.4h7.62a13.32,13.32,0,0,1-.09,2.07.47.47,0,0,1-.51.39h-7V35.64a37.73,37.73,0,0,0,.15,3.84,4.27,4.27,0,0,0,.81,2.22,2.43,2.43,0,0,0,2,.84,7.18,7.18,0,0,0,2-.24,14,14,0,0,0,1.95-.78,4.37,4.37,0,0,1,.24,1.5q0,1-1.41,1.47a9.8,9.8,0,0,1-3.33.51A4.56,4.56,0,0,1,319.1,43.83Z"/><path d="M331.13,44A2.2,2.2,0,0,1,331,43a2.52,2.52,0,0,1,.24-1.14L346.25,16.8h-7.68a67,67,0,0,0-7.26.3q-.06-.66-.06-1.38,0-1.32.9-1.32h17a2.11,2.11,0,0,1,.21.3,1.11,1.11,0,0,1,.15.6,3.31,3.31,0,0,1-.36,1.5l-15,25h7.62a48.52,48.52,0,0,0,7.56-.42,8.75,8.75,0,0,1,.06,1.32,2.87,2.87,0,0,1-.21,1.32.92.92,0,0,1-.87.36H331.37A2.33,2.33,0,0,1,331.13,44Z"/></svg>
